<svg xmlns="http://www.w3.org/2000/svg" xmlns:xlink="http://www.w3.org/1999/xlink" width="93" height="93" viewBox="0 0 93 93">
  <defs>
    <filter id="Trazado_874925" x="0" y="0" width="93" height="93" filterUnits="userSpaceOnUse">
      <feOffset dy="3" input="SourceAlpha"/>
      <feGaussianBlur stdDeviation="3" result="blur"/>
      <feFlood flood-opacity="0.161"/>
      <feComposite operator="in" in2="blur"/>
      <feComposite in="SourceGraphic"/>
    </filter>
  </defs>
  <g id="Grupo_1143025" data-name="Grupo 1143025" transform="translate(-738.051 -494)">
    <g id="Grupo_1143024" data-name="Grupo 1143024" transform="translate(-19.201 -18.234)">
      <g transform="matrix(1, 0, 0, 1, 757.25, 512.23)" filter="url(#Trazado_874925)">
        <g id="Trazado_874925-2" data-name="Trazado 874925" transform="translate(9 6)" fill="#97d8f6">
          <path d="M 37.5 73.50044250488281 C 32.63936614990234 73.50044250488281 27.9249324798584 72.54882049560547 23.48763275146484 70.6719970703125 C 19.20095634460449 68.85888671875 15.35082244873047 66.262939453125 12.04415512084961 62.95628356933594 C 8.737500190734863 59.64961624145508 6.141555786132812 55.79948425292969 4.328444480895996 51.5128059387207 C 2.451622247695923 47.07550811767578 1.5 42.3610725402832 1.5 37.50043869018555 C 1.5 32.63936233520508 2.451622247695923 27.92492866516113 4.328444480895996 23.48762893676758 C 6.141555786132812 19.20096206665039 8.737488746643066 15.35081768035889 12.04415512084961 12.04416179656982 C 15.35082244873047 8.737495422363281 19.20095634460449 6.141561985015869 23.48763275146484 4.328450679779053 C 27.9249324798584 2.451628446578979 32.63936614990234 1.500006318092346 37.5 1.500006318092346 C 42.36063385009766 1.500006318092346 47.07506561279297 2.451628446578979 51.51236724853516 4.328450679779053 C 55.79904556274414 6.141561985015869 59.64917755126953 8.737495422363281 62.95584487915039 12.04416179656982 C 66.26251220703125 15.35081768035889 68.85844421386719 19.20096206665039 70.67155456542969 23.48762893676758 C 72.54837799072266 27.92492866516113 73.5 32.63936233520508 73.5 37.49999618530273 C 73.5 42.3610725402832 72.54837799072266 47.07550811767578 70.67155456542969 51.5128059387207 C 68.85844421386719 55.79948425292969 66.26249694824219 59.64961624145508 62.95584487915039 62.95628356933594 C 59.64917755126953 66.262939453125 55.79904556274414 68.85888671875 51.51236724853516 70.6719970703125 C 47.07506561279297 72.54882049560547 42.36063385009766 73.50044250488281 37.5 73.50044250488281 Z" stroke="none"/>
          <path d="M 37.5 2.999992370605469 C 32.84121322631836 2.999992370605469 28.3233642578125 3.911758422851562 24.07196426391602 5.709945678710938 C 19.96408843994141 7.447433471679688 16.27420043945312 9.935417175292969 13.10481262207031 13.10480499267578 C 9.9354248046875 16.27420425415039 7.447441101074219 19.96408081054688 5.709953308105469 24.07196807861328 C 3.911766052246094 28.32336807250977 3 32.84120559692383 3 37.50043106079102 C 3 42.15922927856445 3.911766052246094 46.67706680297852 5.709953308105469 50.928466796875 C 7.447441101074219 55.03634262084961 9.9354248046875 58.72623062133789 13.10481262207031 61.8956184387207 C 16.27420043945312 65.06500244140625 19.96408843994141 67.55299377441406 24.07196426391602 69.29048156738281 C 28.3233642578125 71.08866882324219 32.84121322631836 72.00042724609375 37.5 72.00042724609375 C 42.15878677368164 72.00042724609375 46.6766357421875 71.08866882324219 50.92803955078125 69.29048156738281 C 55.03591156005859 67.55299377441406 58.72579956054688 65.06500244140625 61.89518737792969 61.8956184387207 C 65.0645751953125 58.72623062133789 67.55256652832031 55.03634262084961 69.29004669189453 50.928466796875 C 71.08823394775391 46.67706680297852 72 42.15922927856445 72 37.50000381469727 C 72 32.84120559692383 71.08823394775391 28.32336807250977 69.29004669189453 24.07196807861328 C 67.55256652832031 19.96408081054688 65.0645751953125 16.27420425415039 61.89518737792969 13.10480499267578 C 58.72579956054688 9.935417175292969 55.03591156005859 7.447433471679688 50.92803955078125 5.709945678710938 C 46.6766357421875 3.911758422851562 42.15878677368164 2.999992370605469 37.5 2.999992370605469 M 37.5 -7.62939453125e-06 C 58.21067428588867 -7.62939453125e-06 75 16.7893180847168 75 37.50000381469727 L 75 37.50043106079102 C 75 58.21111679077148 58.21067428588867 75.00042724609375 37.5 75.00042724609375 C 16.78932571411133 75.00042724609375 0 58.21111679077148 0 37.50043106079102 L 0 37.50000381469727 C 0 16.7893180847168 16.78932571411133 -7.62939453125e-06 37.5 -7.62939453125e-06 Z" stroke="none" fill="#fff"/>
        </g>
      </g>
    </g>
    <g id="rutina-de-ejercicio" transform="translate(762.051 495.25)">
      <g id="Grupo_1143021" data-name="Grupo 1143021" transform="translate(0.669 27.419)">
        <path id="Trazado_904102" data-name="Trazado 904102" d="M9.731,55.667A2.231,2.231,0,0,1,7.5,53.436V36.481a2.231,2.231,0,1,1,4.462,0V53.436A2.231,2.231,0,0,1,9.731,55.667Z" transform="translate(-7.5 -34.25)" fill="#57758d"/>
        <path id="Trazado_904103" data-name="Trazado 904103" d="M9.731,221.481A2.231,2.231,0,0,1,7.5,219.25v2.677a2.231,2.231,0,0,0,4.462,0V219.25A2.231,2.231,0,0,1,9.731,221.481Z" transform="translate(-7.5 -202.741)" fill="#4b6276"/>
        <path id="Trazado_904104" data-name="Trazado 904104" d="M59.731,55.667A2.231,2.231,0,0,1,57.5,53.436V36.481a2.231,2.231,0,1,1,4.462,0V53.436A2.231,2.231,0,0,1,59.731,55.667Z" transform="translate(-53.038 -34.25)" fill="#57758d"/>
        <path id="Trazado_904105" data-name="Trazado 904105" d="M405.731,55.667a2.231,2.231,0,0,1-2.231-2.231V36.481a2.231,2.231,0,1,1,4.462,0V53.436A2.231,2.231,0,0,1,405.731,55.667Z" transform="translate(-368.161 -34.25)" fill="#57758d"/>
        <path id="Trazado_904106" data-name="Trazado 904106" d="M455.731,55.667a2.231,2.231,0,0,1-2.231-2.231V36.481a2.231,2.231,0,1,1,4.462,0V53.436A2.231,2.231,0,0,1,455.731,55.667Z" transform="translate(-413.7 -34.25)" fill="#57758d"/>
        <path id="Trazado_904107" data-name="Trazado 904107" d="M455.731,221.481a2.231,2.231,0,0,1-2.231-2.231v2.677a2.231,2.231,0,0,0,4.462,0V219.25A2.231,2.231,0,0,1,455.731,221.481Z" transform="translate(-413.7 -202.741)" fill="#4b6276"/>
        <path id="Trazado_904108" data-name="Trazado 904108" d="M405.731,221.481a2.231,2.231,0,0,1-2.231-2.231v2.677a2.231,2.231,0,0,0,4.462,0V219.25A2.231,2.231,0,0,1,405.731,221.481Z" transform="translate(-368.161 -202.741)" fill="#4b6276"/>
        <path id="Trazado_904109" data-name="Trazado 904109" d="M59.731,221.481A2.231,2.231,0,0,1,57.5,219.25v2.677a2.231,2.231,0,0,0,4.462,0V219.25A2.231,2.231,0,0,1,59.731,221.481Z" transform="translate(-53.038 -202.741)" fill="#4b6276"/>
        <path id="Trazado_904110" data-name="Trazado 904110" d="M107.5,124.25h26.415V129.6H107.5Z" transform="translate(-98.576 -116.219)" fill="#e3edf6"/>
        <path id="Trazado_904111" data-name="Trazado 904111" d="M107.5,154.25h26.415v2.677H107.5Z" transform="translate(-98.576 -143.541)" fill="#c5d9ec"/>
        <g id="Grupo_1143020" data-name="Grupo 1143020" transform="translate(12.583 2.499)">
          <path id="Trazado_904112" data-name="Trazado 904112" d="M152.873,153.284v-.848a2.186,2.186,0,1,0-4.373,0v5.812l3.213,2.945V163.1H165.1v-1.639l1.526-2.616a7.139,7.139,0,0,0,.973-3.6v-1.963Z" transform="translate(-148.5 -142.397)" fill="#ffe4c2"/>
          <path id="Trazado_904113" data-name="Trazado 904113" d="M167.962,77.158V74.481a2.231,2.231,0,1,0-4.462,0v2.677a2.231,2.231,0,1,0,4.462,0Z" transform="translate(-162.161 -71.358)" fill="#ffe4c2"/>
          <path id="Trazado_904114" data-name="Trazado 904114" d="M267.962,77.158V74.481a2.231,2.231,0,0,0-4.462,0v2.677a2.231,2.231,0,0,0,4.462,0Z" transform="translate(-253.238 -71.358)" fill="#ffe4c2"/>
          <path id="Trazado_904115" data-name="Trazado 904115" d="M217.962,68.943V64.481a2.231,2.231,0,0,0-4.462,0v4.462a2.231,2.231,0,0,0,4.462,0Z" transform="translate(-207.7 -62.25)" fill="#ffe4c2"/>
          <path id="Trazado_904116" data-name="Trazado 904116" d="M317.07,81.712V79.035a1.785,1.785,0,1,0-3.57,0v2.677a1.785,1.785,0,1,0,3.57,0Z" transform="translate(-298.776 -75.911)" fill="#ffe4c2"/>
        </g>
        <path id="Trazado_904117" data-name="Trazado 904117" d="M175.088,264.25l.84.77v1.907h13.386v-1.639l.605-1.038Z" transform="translate(-160.133 -243.725)" fill="#f2d1a5"/>
        <path id="Trazado_904118" data-name="Trazado 904118" d="M179.671,303.174H166.285a1.785,1.785,0,0,1-1.785-1.785v-5.354a1.785,1.785,0,0,1,1.785-1.785h13.386a1.785,1.785,0,0,1,1.785,1.785v5.354A1.785,1.785,0,0,1,179.671,303.174Z" transform="translate(-150.49 -271.048)" fill="#f88fa4"/>
        <path id="Trazado_904119" data-name="Trazado 904119" d="M179.671,346.035H166.285a1.785,1.785,0,0,1-1.785-1.785v2.677a1.785,1.785,0,0,0,1.785,1.785h13.386a1.785,1.785,0,0,0,1.785-1.785V344.25A1.785,1.785,0,0,1,179.671,346.035Z" transform="translate(-150.49 -316.586)" fill="#f05475"/>
        <path id="Trazado_904120" data-name="Trazado 904120" d="M184.5,394.25h13.386v8.031H184.5Z" transform="translate(-168.705 -362.124)" fill="#ffe4c2"/>
        <path id="Trazado_904121" data-name="Trazado 904121" d="M184.5,454.25h13.386v2.677H184.5Z" transform="translate(-168.705 -416.77)" fill="#f2d1a5"/>
      </g>
      <g id="Grupo_1143022" data-name="Grupo 1143022" transform="translate(16.465 52.629)">
        <path id="Trazado_904122" data-name="Trazado 904122" d="M264.5,416.75h1.339v1.339H264.5Z" transform="translate(-257.361 -407.826)" fill="#fff"/>
        <path id="Trazado_904123" data-name="Trazado 904123" d="M188.516,318.089h-1.339V316.75h1.339Zm-2.677,0H184.5V316.75h1.339Z" transform="translate(-184.5 -316.75)" fill="#fff"/>
      </g>
      <g id="Grupo_1143023" data-name="Grupo 1143023" transform="translate(0 26.75)">
        <path id="Trazado_904124" data-name="Trazado 904124" d="M45.6,33.411V29.65A2.9,2.9,0,0,0,40.47,27.8a2.9,2.9,0,0,0-5.131,1.851v5.131H32.215v-1.74a2.452,2.452,0,0,0-4.165-1.757,2.894,2.894,0,0,0-4.183-.45,2.9,2.9,0,0,0-5.167,0,2.9,2.9,0,0,0-4.778,2.207v1.74H10.262V29.65A2.9,2.9,0,0,0,5.131,27.8,2.9,2.9,0,0,0,0,29.65v3.761H1.339V29.65a1.562,1.562,0,1,1,3.123,0V46.606a1.562,1.562,0,1,1-3.123,0V34.75H0V46.606a2.9,2.9,0,0,0,5.131,1.851,2.9,2.9,0,0,0,5.131-1.851V41.474h2.32v4.589L15.8,49.009v1.037a2.458,2.458,0,0,0-1.785,2.361V57.76A2.458,2.458,0,0,0,15.8,60.121v7.456h1.339V60.215H29.181v1.339h-2.9v1.339h2.9V64.23H27.619v1.339h1.562v2.008H30.52V60.121A2.458,2.458,0,0,0,32.3,57.76V52.406a2.458,2.458,0,0,0-1.785-2.361v-.883l1.435-2.46a7.818,7.818,0,0,0,1.064-3.934V41.474h2.32v5.131a2.9,2.9,0,0,0,5.131,1.851A2.9,2.9,0,0,0,45.6,46.606V34.75H44.262V46.606a1.562,1.562,0,0,1-3.123,0V29.65a1.562,1.562,0,0,1,3.123,0v3.761ZM8.924,46.606a1.562,1.562,0,1,1-3.123,0V29.65a1.562,1.562,0,0,1,3.123,0ZM28.646,33.041a1.115,1.115,0,0,1,2.231,0v2.677a1.115,1.115,0,1,1-2.231,0Zm-4.462,0a1.562,1.562,0,0,1,3.123,0v2.677a1.562,1.562,0,1,1-3.123,0Zm-4.462,2.677v-3.57a1.562,1.562,0,1,1,3.123,0v4.462a1.562,1.562,0,1,1-3.123,0ZM15.26,33.041a1.562,1.562,0,0,1,3.123,0v2.677a1.562,1.562,0,1,1-3.123,0Zm-2.677,6.916v.178h-2.32V36.12H13.95a2.881,2.881,0,0,0,.443,1.181A2.86,2.86,0,0,0,12.583,39.957Zm22.756.178H28.78v1.339h2.9v1.294a6.476,6.476,0,0,1-.881,3.26L29.181,48.8v1.151H22.9v1.339H29.85a1.117,1.117,0,0,1,1.115,1.115V57.76a1.117,1.117,0,0,1-1.115,1.115H16.465a1.117,1.117,0,0,1-1.115-1.115V52.406a1.117,1.117,0,0,1,1.115-1.115h5.1V49.952h-4.43V48.42l-3.213-2.945V39.957a1.517,1.517,0,1,1,3.034,0v3.168h1.339V41.474h9.147V40.136H18.294v-.178a2.838,2.838,0,0,0-.445-1.527,2.9,2.9,0,0,0,.85-.5,2.9,2.9,0,0,0,5.167,0,2.894,2.894,0,0,0,4.183-.45,2.452,2.452,0,0,0,4.131-1.356h3.157Zm4.462,6.47a1.562,1.562,0,1,1-3.123,0V29.65a1.562,1.562,0,0,1,3.123,0Z" transform="translate(0 -26.75)"/>
      </g>
    </g>
  </g>
</svg>
