<svg xmlns="http://www.w3.org/2000/svg" xmlns:xlink="http://www.w3.org/1999/xlink" width="103" height="103" viewBox="0 0 103 103">
  <defs>
    <filter id="Elipse_14847" x="0" y="0" width="103" height="103" filterUnits="userSpaceOnUse">
      <feOffset dy="3" input="SourceAlpha"/>
      <feGaussianBlur stdDeviation="3" result="blur"/>
      <feFlood flood-opacity="0.161"/>
      <feComposite operator="in" in2="blur"/>
      <feComposite in="SourceGraphic"/>
    </filter>
  </defs>
  <g id="Grupo_1143289" data-name="Grupo 1143289" transform="translate(-213.051 -4025)">
    <g transform="matrix(1, 0, 0, 1, 213.05, 4025)" filter="url(#Elipse_14847)">
      <g id="Elipse_14847-2" data-name="Elipse 14847" transform="translate(9 6)" fill="#7d5c5c" stroke="#fff" stroke-width="3">
        <circle cx="42.5" cy="42.5" r="42.5" stroke="none"/>
        <circle cx="42.5" cy="42.5" r="41" fill="none"/>
      </g>
    </g>
    <g id="embarazada-1" transform="translate(155.013 4043)">
      <g id="Grupo_1143287" data-name="Grupo 1143287" transform="translate(89.952 0.91)">
        <path id="Trazado_904905" data-name="Trazado 904905" d="M169.479,206.05l-2.349-11.2a5.461,5.461,0,0,0-3.554-4.038l-3.134-1.088c0,.022-12.912,0-12.912,0l-3.135,1.088c-1.811.629-2.2,2.707-2.441,3.958s-2.058,9.806-2.058,9.806l6.463,2.785c-3.517,8.272,5.564,15.936,5.564,15.936L165.2,212.835l3.005-2.787A4.259,4.259,0,0,0,169.479,206.05Z" transform="translate(-134.64 -167.615)" fill="#b2e5fb"/>
        <path id="Trazado_904906" data-name="Trazado 904906" d="M209.264,190.471c6.261-1.8,6.456-6.546,6.457-6.569l-2.32-.805-10.592.8S202.989,188.668,209.264,190.471Z" transform="translate(-189.917 -161.789)" fill="#ffcdbe"/>
        <path id="Trazado_904907" data-name="Trazado 904907" d="M213.4,181.471l-.647-.224h-6.98l-2.965,1.029a7.623,7.623,0,0,0,10.592-.8Z" transform="translate(-189.916 -160.163)" fill="#ebae9d"/>
        <path id="Trazado_904908" data-name="Trazado 904908" d="M183.209,356.343l-6.786-7.382a9.994,9.994,0,0,1-.23-7.818" transform="translate(-165.925 -300.657)" fill="#91dafa"/>
        <path id="Trazado_904909" data-name="Trazado 904909" d="M155.917,213.749c1.876-2.031,1.752-4.878.992-7.09l-.732-2.131a.91.91,0,1,0-1.721.591l.732,2.131c.76,2.212,1.054,4.308-.821,6.339l-6.434,8.316c-2.372.826-7.53,2.253-8.394-2.584-.73-4.086,5.084-7.207,5.084-7.207l-6.5,1.475c-1.876-2.03-1.581-4.126-.821-6.339l.732-2.131a.91.91,0,0,0-1.721-.591l-.732,2.131a9.949,9.949,0,0,0-.549,2.355l-1.528.485,1.89-9.009a2.3,2.3,0,0,1,1.263-1.793,5.461,5.461,0,0,0-3.554,4.038l-2.015,9.6,6.322,3.037-.242.606a9.995,9.995,0,0,0,.23,7.818l6.785,7.382,10.911-7.382a9.01,9.01,0,0,0,.744-2.333l-2.6-4.255Z" transform="translate(-126.896 -175.496)" fill="#91dafa"/>
        <path id="Trazado_904910" data-name="Trazado 904910" d="M108.992,389.016l3.417-7.087c-1.781-1.175-3.236-2.138-3.8-2.523a4.292,4.292,0,0,0-5.96,1.152s.017,3.024.961,4.432A13.635,13.635,0,0,0,108.992,389.016Z" transform="translate(-101.907 -333.629)" fill="#c38778"/>
        <path id="Trazado_904911" data-name="Trazado 904911" d="M332.317,389.017,328.9,381.93c1.781-1.175,3.236-2.138,3.8-2.523a4.293,4.293,0,0,1,5.96,1.152s-.017,3.024-.961,4.432A13.637,13.637,0,0,1,332.317,389.017Z" transform="translate(-300.708 -333.63)" fill="#c38778"/>
        <path id="Trazado_904912" data-name="Trazado 904912" d="M362.441,397.454a6.64,6.64,0,0,0,.961-3.218,4.294,4.294,0,0,1,.009,4.8,13.747,13.747,0,0,1-5.449,4.008l-.908-.347V401.48A13.638,13.638,0,0,0,362.441,397.454Z" transform="translate(-325.446 -347.307)" fill="#b46e5a"/>
        <path id="Trazado_904913" data-name="Trazado 904913" d="M241.779,412.581l-4.09-4.78,7.751-.076s1.466-.972,3.317-2.194l3.417,5.873C248.486,414.37,241.779,412.581,241.779,412.581Z" transform="translate(-220.565 -357.231)" fill="#ffcdbe"/>
        <path id="Trazado_904914" data-name="Trazado 904914" d="M229.481,427.839c-.556.268-1.135.526-1.731.773a3.845,3.845,0,0,0-3.095-1.416h-5.161s-1.653-1.082-4.5-2.96l-3.134.031,9.779,8.206a49.937,49.937,0,0,0,8.748-3.073Z" transform="translate(-197.872 -373.665)" fill="#ebae9d"/>
        <path id="Trazado_904915" data-name="Trazado 904915" d="M98.27,397.454a6.641,6.641,0,0,1-.961-3.218,4.294,4.294,0,0,0-.009,4.8,13.747,13.747,0,0,0,5.449,4.008l.908-.347V401.48A13.637,13.637,0,0,1,98.27,397.454Z" transform="translate(-96.572 -347.307)" fill="#b46e5a"/>
        <path id="Trazado_904916" data-name="Trazado 904916" d="M172.076,416.933a5.342,5.342,0,0,0,4.7-3.138,2.311,2.311,0,0,0-2.125-1.215h-5.569s-6.34-4.164-10.714-7.05l-3.417,5.873C158.642,414.369,168.356,416.933,172.076,416.933Z" transform="translate(-147.87 -357.23)" fill="#ffcdbe"/>
        <path id="Trazado_904917" data-name="Trazado 904917" d="M165.5,458.248c-3.72,0-11.576-1.637-17.122-4.316l-.908,1.56c5.838,2.791,14.278,4.576,18.03,4.576,4.385,0,5.446-2.276,4.7-3.744-.511,1.029-1.953,1.924-4.7,1.924Z" transform="translate(-141.296 -399.759)" fill="#ebae9d"/>
        <path id="Trazado_904918" data-name="Trazado 904918" d="M201.359,17.443h13.433V15.127a7.624,7.624,0,0,0-12.366-5.973c-.707,1.675-2.005,3.744-2.005,5.973Z" transform="translate(-187.819 -7.5)" fill="#c38778"/>
        <path id="Trazado_904919" data-name="Trazado 904919" d="M194.974,27.1a15.581,15.581,0,0,1,1.067-5.973,7.611,7.611,0,0,0-2.887,5.973v2.316a7.883,7.883,0,0,0,1.82-.221Z" transform="translate(-181.434 -19.475)" fill="#b46e5a"/>
        <path id="Trazado_904920" data-name="Trazado 904920" d="M207,40.9c-1.238,1.89-4.165,4.846-7.637,5.669a32.191,32.191,0,0,0-1.213,4.579c0,4.212,3.476,7.627,7.02,7.627a7.627,7.627,0,0,0,7.627-7.627l.826-2.179-.826-2.179C210.976,46.791,208.116,43.858,207,40.9Z" transform="translate(-185.827 -36.848)" fill="#ffcdbe"/>
        <path id="Trazado_904921" data-name="Trazado 904921" d="M318.854,89.436v4.358a2.263,2.263,0,0,0,0-4.358Z" transform="translate(-291.881 -79.493)" fill="#ebae9d"/>
        <path id="Trazado_904922" data-name="Trazado 904922" d="M183.005,92.2V87.617a7.883,7.883,0,0,1-1.82.221,2.263,2.263,0,0,0,0,4.358,7.627,7.627,0,0,0,7.627,7.627C185.268,99.822,183.005,96.408,183.005,92.2Z" transform="translate(-169.465 -77.895)" fill="#ebae9d"/>
        <path id="Trazado_904923" data-name="Trazado 904923" d="M236.487,359.494l5.144-5.828-2.885-2.395-4.378,5.77-5.966,2.33C230.4,361.145,233.486,361.469,236.487,359.494Z" transform="translate(-212.405 -309.555)" fill="#ffcdbe"/>
        <path id="Trazado_904924" data-name="Trazado 904924" d="M227.1,371.008l-5.443,5.048c-3,1.975-5.247,2.038-7.786.658l-2.007.784c3.675,2.418,6.688,2.657,10.885-.107l5.687-5.274Z" transform="translate(-197.871 -326.897)" fill="#ebae9d"/>
        <path id="Trazado_904925" data-name="Trazado 904925" d="M139.96,300.536l4.163-2.215-.983-2.862-3.6,1.23-1.04,2.673A1.051,1.051,0,0,0,139.96,300.536Z" transform="translate(-133.391 -260.516)" fill="#b2e5fb"/>
        <path id="Trazado_904926" data-name="Trazado 904926" d="M131.341,308.837a1.051,1.051,0,0,1-1.461-1.173l.433-2.067-1.961.67-.319,1.522a2.589,2.589,0,0,0,3.6,2.891l3.851-1.741-.587-1.709Z" transform="translate(-124.165 -269.424)" fill="#91dafa"/>
        <path id="Trazado_904927" data-name="Trazado 904927" d="M186.237,273.325a9.213,9.213,0,0,0-3.343.642l-5.984,2.044.983,2.862,6.392-1.849,4.086.662h2.959S190.272,273.325,186.237,273.325Z" transform="translate(-167.162 -241.068)" fill="#ffcdbe"/>
        <path id="Trazado_904928" data-name="Trazado 904928" d="M190.4,295.782l-5.384,2.435.587,1.709,6.407-2.9h3.484A3.949,3.949,0,0,0,190.4,295.782Z" transform="translate(-174.284 -260.411)" fill="#ebae9d"/>
      </g>
      <g id="Grupo_1143288" data-name="Grupo 1143288" transform="translate(89.038 0)">
        <path id="Trazado_904929" data-name="Trazado 904929" d="M114.158,62.13a40.264,40.264,0,0,1-8.238-1.217.91.91,0,0,1,.419-1.771,38.473,38.473,0,0,0,7.819,1.168,5.718,5.718,0,0,0,3.276-.753,1.475,1.475,0,0,0,.735-1.174,1.3,1.3,0,0,0-1.434-1.212h-5.569a.91.91,0,0,1-.5-.149L100.756,50.5l-3.338,5.738a47.7,47.7,0,0,0,5.683,2.043.91.91,0,0,1-.516,1.746c-3.747-1.107-10.375-3.474-12.662-6.884a5.2,5.2,0,0,1,7.235-7.209c.369.249,1.12.748,2.094,1.393q-.125-.392-.218-.8a9.957,9.957,0,0,1-.071-4.055L97.8,43a3.5,3.5,0,0,1-4.866-3.907l2.334-11.126a6.4,6.4,0,0,1,4.146-4.711l4.383-1.521a8.526,8.526,0,0,1-3-5.821,3.3,3.3,0,0,1-.028-5.74V8.537A8.538,8.538,0,0,1,113.827,1.3a.91.91,0,0,1-.967,1.542,6.718,6.718,0,0,0-10.279,5.7V9.88c3.4-.464,6.461-3.393,7.786-5.415a.91.91,0,0,1,1.613.178A11.193,11.193,0,0,0,114.41,8.38a6.966,6.966,0,0,0,1.606,1.266V8.537A6.7,6.7,0,0,0,115,4.992a.91.91,0,0,1,1.545-.962,8.517,8.517,0,0,1,1.286,4.507v1.632a3.3,3.3,0,0,1-.028,5.74,8.528,8.528,0,0,1-3,5.821l4.383,1.521a6.347,6.347,0,0,1,1.978,1.115.91.91,0,1,1-1.162,1.4,4.533,4.533,0,0,0-1.413-.8l-2.128-.739c-.638,2.372-2.707,5.026-6.912,6.234a.91.91,0,0,1-.5,0c-4.206-1.208-6.275-3.863-6.912-6.234l-2.128.739a4.574,4.574,0,0,0-2.961,3.365L94.711,39.462a1.679,1.679,0,0,0,2.335,1.874l3.1-1.4-1.006-2.928-.74.253a.91.91,0,1,1-.588-1.722l1.061-.362a10.538,10.538,0,0,1,.625-2.807l.732-2.131a.91.91,0,1,1,1.721.591l-.732,2.131a11.349,11.349,0,0,0-.432,1.562l4.608-1.574a10.074,10.074,0,0,1,3.637-.69c3.757,0,5.553,3.307,5.979,5.056a.91.91,0,0,1-.884,1.125h-6.247l-6.7,3.031-.106.266c-.89,2.231-.614,6.3,2.189,8.232l.8.524,2.567-1a.91.91,0,1,1,.662,1.7l-1.245.486c2.8,1.367,5.123,1.043,8.229-.985l4.871-4.517-2.691-2.234-3.8,5.013a.91.91,0,0,1-.394.3l-1.659.648a.91.91,0,1,1-.662-1.7l1.42-.555,5.461-7.2-.274-1.246a.91.91,0,0,1,.22-.813c1.513-1.638,1.363-3.29.629-5.425l-.732-2.131a.91.91,0,1,1,1.721-.591l.732,2.131c.724,2.107,1.189,4.555-.7,6.884l.266,1.212a.909.909,0,0,1-.164.745l-.965,1.272,2.936,2.437,2.419-2.244a3.366,3.366,0,0,0,1-3.143l-2.348-11.2a.91.91,0,1,1,1.781-.374l2.348,11.2a5.2,5.2,0,0,1-1.544,4.852l-1.428,1.324a5.4,5.4,0,0,1,2.671-.154,5.112,5.112,0,0,1,3.3,2.175,5.188,5.188,0,0,1-.005,5.787c-1.638,2.443-5.525,4.34-8.7,5.554a3.341,3.341,0,0,1-1.507,2.36,7.546,7.546,0,0,1-4.307,1.074Zm-2.72-6.78h5.3a3.267,3.267,0,0,1,2.849,1.545q.834-.325,1.593-.66L117.845,50.5l-2.517,1.659a11.506,11.506,0,0,1-5.514,2.119ZM94.252,46.86a3.415,3.415,0,0,0-.649.062,3.383,3.383,0,0,0-2.168,5.206,11.687,11.687,0,0,0,4.333,3.324L99.234,49.5c-1.454-.96-2.606-1.724-3.095-2.054a3.36,3.36,0,0,0-1.887-.581Zm25.114,2.64,3.46,5.948a11.724,11.724,0,0,0,4.336-3.32,3.373,3.373,0,0,0,0-3.763,3.3,3.3,0,0,0-2.135-1.4,3.541,3.541,0,0,0-2.648.526c-.592.4-1.613,1.079-3.017,2.008ZM100.858,36.42l.95,2.764,5.5-2.485a.91.91,0,0,1,.375-.081h5.12a4.2,4.2,0,0,0-3.771-2.54,8.317,8.317,0,0,0-3.048.593Zm3.008-12.788c.307,1.213,1.422,3.769,5.433,5.011,4.011-1.242,5.126-3.8,5.433-5.011l-1.888-.655a8.534,8.534,0,0,1-7.091,0Zm-2.194-11.869a1.313,1.313,0,0,0-.743,1.269,1.313,1.313,0,0,0,.743,1.269.91.91,0,0,1,.91.91,6.717,6.717,0,0,0,13.433,0,.91.91,0,0,1,.91-.91,1.313,1.313,0,0,0,.743-1.269,1.313,1.313,0,0,0-.743-1.269c-1.519,0-3.042-1.321-3.815-2.108a13.476,13.476,0,0,1-2.169-2.932c-1.864,2.21-5.276,5.041-9.27,5.041Zm7.627,8.343a3.61,3.61,0,0,1-2.56-1.059.91.91,0,1,1,1.287-1.287,1.8,1.8,0,0,0,2.546,0,.91.91,0,1,1,1.287,1.287A3.609,3.609,0,0,1,109.3,20.106Zm2.942-5.531a2.379,2.379,0,0,1-1.687-.7.91.91,0,1,1,1.287-1.287.566.566,0,0,0,.8,0,.91.91,0,0,1,1.287,1.287A2.379,2.379,0,0,1,112.241,14.575Zm-5.885,0a2.379,2.379,0,0,1-1.687-.7.91.91,0,0,1,1.287-1.287.566.566,0,0,0,.8,0,.91.91,0,0,1,1.287,1.287,2.379,2.379,0,0,1-1.687.7Z" transform="translate(-89.038 0)"/>
      </g>
    </g>
  </g>
</svg>
