<svg xmlns="http://www.w3.org/2000/svg" xmlns:xlink="http://www.w3.org/1999/xlink" width="96" height="96" viewBox="0 0 96 96">
  <defs>
    <filter id="Elipse_14852" x="0" y="0" width="96" height="96" filterUnits="userSpaceOnUse">
      <feOffset dy="3" input="SourceAlpha"/>
      <feGaussianBlur stdDeviation="3" result="blur"/>
      <feFlood flood-opacity="0.161"/>
      <feComposite operator="in" in2="blur"/>
      <feComposite in="SourceGraphic"/>
    </filter>
  </defs>
  <g id="Grupo_1143293" data-name="Grupo 1143293" transform="translate(-629.051 -5482)">
    <g transform="matrix(1, 0, 0, 1, 629.05, 5482)" filter="url(#Elipse_14852)">
      <g id="Elipse_14852-2" data-name="Elipse 14852" transform="translate(9 6)" fill="#97d8f6" stroke="#fff" stroke-width="3">
        <circle cx="39" cy="39" r="39" stroke="none"/>
        <circle cx="39" cy="39" r="37.5" fill="none"/>
      </g>
    </g>
    <g id="levantar-pesas" transform="translate(653.051 5503)">
      <path id="Trazado_905108" data-name="Trazado 905108" d="M39.959,297.9l-.515,7.379-1.227.483a3.169,3.169,0,1,1-2.32-5.9l1.275-.5A16.112,16.112,0,0,0,39.959,297.9Zm0,0" transform="translate(-30.743 -270.259)" fill="#ffe0b2"/>
      <path id="Trazado_905109" data-name="Trazado 905109" d="M209.285,71.432l-.166,24.283-2.351-2.985-3.7-4.679a.792.792,0,0,0-.119-1.575H198.4l4.552-7.3V71.432a3.149,3.149,0,0,1,1.98-2.929,2.978,2.978,0,0,1,1.188-.238,3.163,3.163,0,0,1,3.167,3.167Zm0,0" transform="translate(-179.991 -61.931)" fill="#dfc49c"/>
      <path id="Trazado_905110" data-name="Trazado 905110" d="M206.91,73.757l-.142,21.3-.024,2.985-6.049-7.664a.792.792,0,0,0-.119-1.575H198.4l4.552-7.3V73.757a3.149,3.149,0,0,1,1.98-2.929,3.239,3.239,0,0,1,1.053.689A3.187,3.187,0,0,1,206.91,73.757Zm0,0" transform="translate(-179.991 -64.257)" fill="#ffe0b2"/>
      <path id="Trazado_905111" data-name="Trazado 905111" d="M114.208,273.925l-1.259,11.369a1.586,1.586,0,0,1-1.576,1.409H96.758a1.58,1.58,0,0,1-1.568-1.37l-1.4-10.324h-.008l.515-7.379c.4-.261.792-.523,1.188-.8a3.922,3.922,0,0,1,2.264-.713H102.1a3.291,3.291,0,0,0,.4-.024.01.01,0,0,0,.008,0,.01.01,0,0,0,.008,0l.04-.055.934-1.5h2.573a.794.794,0,0,1,.792.792c0,.4,1.686.72,1.306.784l5.162,5.241A3.187,3.187,0,0,1,114.208,273.925Zm0,0" transform="translate(-85.08 -239.991)" fill="#6a1b9a"/>
      <path id="Trazado_905112" data-name="Trazado 905112" d="M111.833,273.925l-1.259,11.369A1.586,1.586,0,0,1,109,286.7H96.758a1.58,1.58,0,0,1-1.568-1.37l-1.4-10.324h-.008l.515-7.379c.4-.261.792-.523,1.188-.8a3.922,3.922,0,0,1,2.264-.713H102.1a3.291,3.291,0,0,0,.4-.024.01.01,0,0,0,.008,0,.01.01,0,0,0,.008,0l.04-.055.934-1.5h2.177a.792.792,0,0,1,.119,1.575l5.162,5.241A3.187,3.187,0,0,1,111.833,273.925Zm0,0" transform="translate(-85.08 -239.991)" fill="#9d27b0"/>
      <path id="Trazado_905113" data-name="Trazado 905113" d="M61.318,8.535A1.583,1.583,0,0,1,62.9,10.119V24.37a1.583,1.583,0,0,1-3.167,0V10.119A1.583,1.583,0,0,1,61.318,8.535Zm0,0" transform="translate(-54.192 -7.743)" fill="#545c60"/>
      <path id="Trazado_905114" data-name="Trazado 905114" d="M27.185,34.133a1.583,1.583,0,0,1,1.583,1.583v9.5a1.583,1.583,0,0,1-3.167,0v-9.5A1.583,1.583,0,0,1,27.185,34.133Zm0,0" transform="translate(-23.226 -30.966)" fill="#7f8e94"/>
      <path id="Trazado_905115" data-name="Trazado 905115" d="M419.716,25.953a1.583,1.583,0,0,1-1.583-1.583V10.119a1.583,1.583,0,1,1,3.167,0V24.37A1.583,1.583,0,0,1,419.716,25.953Zm0,0" transform="translate(-379.338 -7.743)" fill="#545c60"/>
      <path id="Trazado_905116" data-name="Trazado 905116" d="M453.849,46.8a1.583,1.583,0,0,1-1.583-1.583v-9.5a1.583,1.583,0,1,1,3.167,0v9.5A1.583,1.583,0,0,1,453.849,46.8Zm0,0" transform="translate(-410.304 -30.966)" fill="#7f8e94"/>
      <path id="Trazado_905117" data-name="Trazado 905117" d="M139.876,159.539a3.286,3.286,0,0,1-.024.4,5.921,5.921,0,0,1-5.914,5.542,3.282,3.282,0,0,1-.4-.024,5.041,5.041,0,0,1-.776-.1,5.57,5.57,0,0,1-2.391-1.077A5.885,5.885,0,0,1,128,159.539a5.945,5.945,0,0,1,4.742-5.819h.016a5.785,5.785,0,0,1,1.18-.119A5.94,5.94,0,0,1,139.876,159.539Zm0,0" transform="translate(-116.124 -139.35)" fill="#dfc49c"/>
      <path id="Trazado_905118" data-name="Trazado 905118" d="M137.5,160.7a3.36,3.36,0,0,1-.024.4,5.916,5.916,0,0,1-4.711,5.415,5.57,5.57,0,0,1-2.391-1.077A5.885,5.885,0,0,1,128,160.7a5.945,5.945,0,0,1,4.742-5.819h.016A5.945,5.945,0,0,1,137.5,160.7Zm0,0" transform="translate(-116.124 -140.509)" fill="#ffe0b2"/>
      <path id="Trazado_905119" data-name="Trazado 905119" d="M53.575,19A2.378,2.378,0,0,1,51.2,16.626V2.375a2.375,2.375,0,1,1,4.75,0V16.626A2.378,2.378,0,0,1,53.575,19Zm0-17.418a.793.793,0,0,0-.792.792V16.626a.792.792,0,1,0,1.583,0V2.375A.792.792,0,0,0,53.575,1.583Zm0,0" transform="translate(-46.449)"/>
      <path id="Trazado_905120" data-name="Trazado 905120" d="M19.442,39.853a2.378,2.378,0,0,1-2.375-2.375v-9.5a2.375,2.375,0,0,1,4.75,0v9.5A2.378,2.378,0,0,1,19.442,39.853Zm0-12.668a.792.792,0,0,0-.792.792v9.5a.792.792,0,0,0,1.583,0v-9.5A.792.792,0,0,0,19.442,27.185Zm0,0" transform="translate(-15.483 -23.226)"/>
      <path id="Trazado_905121" data-name="Trazado 905121" d="M411.977,19a2.378,2.378,0,0,1-2.375-2.375V2.375a2.375,2.375,0,1,1,4.75,0V16.626A2.378,2.378,0,0,1,411.977,19Zm0-17.418a.792.792,0,0,0-.792.792V16.626a.792.792,0,1,0,1.583,0V2.375A.793.793,0,0,0,411.977,1.583Zm0,0" transform="translate(-371.598)"/>
      <path id="Trazado_905122" data-name="Trazado 905122" d="M446.109,39.853a2.378,2.378,0,0,1-2.375-2.375v-9.5a2.375,2.375,0,0,1,4.75,0v9.5A2.378,2.378,0,0,1,446.109,39.853Zm0-12.668a.792.792,0,0,0-.792.792v9.5a.792.792,0,0,0,1.583,0v-9.5A.792.792,0,0,0,446.109,27.185Zm0,0" transform="translate(-402.564 -23.226)"/>
      <path id="Trazado_905123" data-name="Trazado 905123" d="M2.375,95.451H.792a.792.792,0,1,1,0-1.583H2.375a.792.792,0,0,1,0,1.583Zm0,0" transform="translate(0 -85.158)"/>
      <path id="Trazado_905124" data-name="Trazado 905124" d="M480.242,95.451h-1.583a.792.792,0,0,1,0-1.583h1.583a.792.792,0,1,1,0,1.583Zm0,0" transform="translate(-433.53 -85.158)"/>
      <path id="Trazado_905125" data-name="Trazado 905125" d="M317.492,95.451h-9.5a.792.792,0,1,1,0-1.583h9.5a.792.792,0,1,1,0,1.583Zm0,0" transform="translate(-278.697 -85.158)"/>
      <path id="Trazado_905126" data-name="Trazado 905126" d="M100.375,95.451H86.124a.792.792,0,1,1,0-1.583h14.251a.792.792,0,1,1,0,1.583Zm0,0" transform="translate(-77.415 -85.158)"/>
      <path id="Trazado_905127" data-name="Trazado 905127" d="M126.292,158.515a4.036,4.036,0,0,1-.491-.03,6.472,6.472,0,0,1-3.555-1.338,6.725,6.725,0,1,1,10.776-5.362,4.041,4.041,0,0,1-.03.491A6.7,6.7,0,0,1,126.292,158.515Zm0-11.876a5.136,5.136,0,0,0-3.091,9.245,4.952,4.952,0,0,0,2.743,1.025,2.949,2.949,0,0,0,.348.022,5.131,5.131,0,0,0,5.124-4.8,3.021,3.021,0,0,0,.022-.348A5.152,5.152,0,0,0,126.292,146.639Zm0,0" transform="translate(-108.478 -131.596)"/>
      <path id="Trazado_905128" data-name="Trazado 905128" d="M246.059,87.445a.792.792,0,0,1-.792-.792V63.693a2.375,2.375,0,0,0-4.75,0v7.743a.792.792,0,1,1-1.583,0V63.693a3.959,3.959,0,0,1,7.917,0v22.96A.792.792,0,0,1,246.059,87.445Zm0,0" transform="translate(-216.765 -54.192)"/>
      <path id="Trazado_905129" data-name="Trazado 905129" d="M140.889,274.417c-.094,0-.186,0-.277-.009a.761.761,0,0,1-.119.009h-3.167a.792.792,0,0,1,0-1.583h2.993a.741.741,0,0,1,.267-.018,2.13,2.13,0,0,0,.548,0,.748.748,0,0,1,.139-.007.835.835,0,0,1,.587.232.791.791,0,0,1,0,1.119.8.8,0,0,1-.568.232h-.007A2.9,2.9,0,0,1,140.889,274.417Zm0,0" transform="translate(-123.867 -247.498)"/>
      <path id="Trazado_905130" data-name="Trazado 905130" d="M307.991,226.791A.792.792,0,0,1,307.2,226V214.124a.792.792,0,1,1,1.583,0V226A.792.792,0,0,1,307.991,226.791Zm0,0" transform="translate(-278.697 -193.539)"/>
      <path id="Trazado_905131" data-name="Trazado 905131" d="M177.793,274.65H171.46a.792.792,0,0,1,0-1.583h6.334a.792.792,0,1,1,0,1.583Zm0,0" transform="translate(-154.833 -247.731)"/>
      <path id="Trazado_905132" data-name="Trazado 905132" d="M49.367,295H34.752a2.378,2.378,0,0,1-2.353-2.058l-1.265-9.324-.3.116a3.961,3.961,0,0,1-2.9-7.372l1.277-.5a18.86,18.86,0,0,0,3.809-2.176,4.7,4.7,0,0,1,2.718-.855h3.784a.743.743,0,0,1,.267-.018,2.465,2.465,0,0,0,.6,0,.5.5,0,0,1,.107-.006h.008a.791.791,0,0,1,.046,1.581,4.15,4.15,0,0,1-.735.016.773.773,0,0,1-.119.009H35.742a3.129,3.129,0,0,0-1.81.568,20.256,20.256,0,0,1-4.139,2.353l-1.278.5a2.377,2.377,0,0,0,1.743,4.424l1.236-.483a.792.792,0,0,1,1.073.631l1.4,10.324a.791.791,0,0,0,.782.684H49.367a.791.791,0,0,0,.789-.7l1.425-12.844a.792.792,0,0,1,1.574.175L51.73,292.885A2.371,2.371,0,0,1,49.367,295Zm0,0" transform="translate(-23.074 -247.495)"/>
    </g>
  </g>
</svg>
