<svg xmlns="http://www.w3.org/2000/svg" xmlns:xlink="http://www.w3.org/1999/xlink" width="93" height="93" viewBox="0 0 93 93">
  <defs>
    <filter id="Trazado_874925" x="0" y="0" width="93" height="93" filterUnits="userSpaceOnUse">
      <feOffset dy="3" input="SourceAlpha"/>
      <feGaussianBlur stdDeviation="3" result="blur"/>
      <feFlood flood-opacity="0.161"/>
      <feComposite operator="in" in2="blur"/>
      <feComposite in="SourceGraphic"/>
    </filter>
  </defs>
  <g id="Grupo_1143025" data-name="Grupo 1143025" transform="translate(-738.051 -494)">
    <g id="Grupo_1143024" data-name="Grupo 1143024" transform="translate(-19.201 -18.234)">
      <g transform="matrix(1, 0, 0, 1, 757.25, 512.23)" filter="url(#Trazado_874925)">
        <g id="Trazado_874925-2" data-name="Trazado 874925" transform="translate(9 6)" fill="#97d8f6">
          <path d="M 37.5 73.50044250488281 C 32.63936614990234 73.50044250488281 27.9249324798584 72.54882049560547 23.48763275146484 70.6719970703125 C 19.20095634460449 68.85888671875 15.35082244873047 66.262939453125 12.04415512084961 62.95628356933594 C 8.737500190734863 59.64961624145508 6.141555786132812 55.79948425292969 4.328444480895996 51.5128059387207 C 2.451622247695923 47.07550811767578 1.5 42.3610725402832 1.5 37.50043869018555 C 1.5 32.63936233520508 2.451622247695923 27.92492866516113 4.328444480895996 23.48762893676758 C 6.141555786132812 19.20096206665039 8.737488746643066 15.35081768035889 12.04415512084961 12.04416179656982 C 15.35082244873047 8.737495422363281 19.20095634460449 6.141561985015869 23.48763275146484 4.328450679779053 C 27.9249324798584 2.451628446578979 32.63936614990234 1.500006318092346 37.5 1.500006318092346 C 42.36063385009766 1.500006318092346 47.07506561279297 2.451628446578979 51.51236724853516 4.328450679779053 C 55.79904556274414 6.141561985015869 59.64917755126953 8.737495422363281 62.95584487915039 12.04416179656982 C 66.26251220703125 15.35081768035889 68.85844421386719 19.20096206665039 70.67155456542969 23.48762893676758 C 72.54837799072266 27.92492866516113 73.5 32.63936233520508 73.5 37.49999618530273 C 73.5 42.3610725402832 72.54837799072266 47.07550811767578 70.67155456542969 51.5128059387207 C 68.85844421386719 55.79948425292969 66.26249694824219 59.64961624145508 62.95584487915039 62.95628356933594 C 59.64917755126953 66.262939453125 55.79904556274414 68.85888671875 51.51236724853516 70.6719970703125 C 47.07506561279297 72.54882049560547 42.36063385009766 73.50044250488281 37.5 73.50044250488281 Z" stroke="none"/>
          <path d="M 37.5 2.999992370605469 C 32.84121322631836 2.999992370605469 28.3233642578125 3.911758422851562 24.07196426391602 5.709945678710938 C 19.96408843994141 7.447433471679688 16.27420043945312 9.935417175292969 13.10481262207031 13.10480499267578 C 9.9354248046875 16.27420425415039 7.447441101074219 19.96408081054688 5.709953308105469 24.07196807861328 C 3.911766052246094 28.32336807250977 3 32.84120559692383 3 37.50043106079102 C 3 42.15922927856445 3.911766052246094 46.67706680297852 5.709953308105469 50.928466796875 C 7.447441101074219 55.03634262084961 9.9354248046875 58.72623062133789 13.10481262207031 61.8956184387207 C 16.27420043945312 65.06500244140625 19.96408843994141 67.55299377441406 24.07196426391602 69.29048156738281 C 28.3233642578125 71.08866882324219 32.84121322631836 72.00042724609375 37.5 72.00042724609375 C 42.15878677368164 72.00042724609375 46.6766357421875 71.08866882324219 50.92803955078125 69.29048156738281 C 55.03591156005859 67.55299377441406 58.72579956054688 65.06500244140625 61.89518737792969 61.8956184387207 C 65.0645751953125 58.72623062133789 67.55256652832031 55.03634262084961 69.29004669189453 50.928466796875 C 71.08823394775391 46.67706680297852 72 42.15922927856445 72 37.50000381469727 C 72 32.84120559692383 71.08823394775391 28.32336807250977 69.29004669189453 24.07196807861328 C 67.55256652832031 19.96408081054688 65.0645751953125 16.27420425415039 61.89518737792969 13.10480499267578 C 58.72579956054688 9.935417175292969 55.03591156005859 7.447433471679688 50.92803955078125 5.709945678710938 C 46.6766357421875 3.911758422851562 42.15878677368164 2.999992370605469 37.5 2.999992370605469 M 37.5 -7.62939453125e-06 C 58.21067428588867 -7.62939453125e-06 75 16.7893180847168 75 37.50000381469727 L 75 37.50043106079102 C 75 58.21111679077148 58.21067428588867 75.00042724609375 37.5 75.00042724609375 C 16.78932571411133 75.00042724609375 0 58.21111679077148 0 37.50043106079102 L 0 37.50000381469727 C 0 16.7893180847168 16.78932571411133 -7.62939453125e-06 37.5 -7.62939453125e-06 Z" stroke="none" fill="#fff"/>
        </g>
      </g>
    </g>
    <g id="trotar" transform="translate(708.989 511.004)">
      <path id="Trazado_904227" data-name="Trazado 904227" d="M148.136,406.5l-2.019-5.267-3.6,1.329,3.093,8.365c2.122-1.193,3.017-3.136,2.564-4.321Z" transform="translate(-80.7 -359.709)" fill="#ededed" fill-rule="evenodd"/>
      <path id="Trazado_904228" data-name="Trazado 904228" d="M189.715,313.9l1.955-4.059c-1.712-.988-6.011-2.872-6.623-7.037l-1.015,5.27-.547,2.845-6.189,2.072,2.019,5.267,8.984-3.1a2.161,2.161,0,0,0,1.416-1.255Z" transform="translate(-111.879 -271.463)" fill="#ffa21f" fill-rule="evenodd"/>
      <path id="Trazado_904229" data-name="Trazado 904229" d="M267.55,307.541l-4.811-4.738H252.2c.612,4.165,4.911,6.049,6.623,7.037l3.939,2.213,0,7.437h5.39v-9.8c0-1.167.091-1.476-.594-2.149Z" transform="translate(-179.027 -271.463)" fill="#ffa21f" fill-rule="evenodd"/>
      <path id="Trazado_904230" data-name="Trazado 904230" d="M363.293,467.951c.7-2.31-2.529-3.921-3.79-3.921H354.11v.067l-.012,3.854h9.195Z" transform="translate(-270.383 -416.003)" fill="#ededed" fill-rule="evenodd"/>
      <path id="Trazado_904231" data-name="Trazado 904231" d="M251.923,168.174l.009-4.988-3.166-4.985a6.068,6.068,0,0,1-2.523.579,7.01,7.01,0,0,1-3.011-.617l-2.268,3.278a2.405,2.405,0,0,1,1.4,4.6l-2.239.767,1.25,6.325h10.544Z" transform="translate(-168.202 -141.793)" fill="#fc4250" fill-rule="evenodd"/>
      <path id="Trazado_904232" data-name="Trazado 904232" d="M179.8,193.727a2.405,2.405,0,0,0-1.4-4.6c-.05.015-.1.029-.152.047l-6.295,2.158a2.411,2.411,0,0,0-1.618,2.181V199.8a2.406,2.406,0,1,0,4.811-.021l-.018-4.45,2.429-.832Z" transform="translate(-105.644 -169.479)" fill="#fdd99b" fill-rule="evenodd"/>
      <path id="Trazado_904233" data-name="Trazado 904233" d="M360.105,170.111l3.482-4.956a2.4,2.4,0,1,0-3.948-2.728l-2.511,3.665-2.967-.015-.009,4.988,3.717,0c1.118,0,1.548-.006,2.236-.952Z" transform="translate(-270.432 -144.684)" fill="#fdd99b" fill-rule="evenodd"/>
      <path id="Trazado_904234" data-name="Trazado 904234" d="M248.361,66.058a7,7,0,0,0,4.176-6.146,6.732,6.732,0,0,0-1.744-4.53,12.374,12.374,0,0,1-5.54,1.655c-3.79.291-5.584,5.494-5.584,5.494a6.43,6.43,0,0,0,3.158,3.489,7.01,7.01,0,0,0,3.011.617,6.066,6.066,0,0,0,2.523-.579Z" transform="translate(-167.797 -49.65)" fill="#fdd99b" fill-rule="evenodd"/>
      <path id="Trazado_904235" data-name="Trazado 904235" d="M244,14.775a3.223,3.223,0,0,0,1.115-4.688c-4.071,2.037-6.505.7-8.8,1.517-3.957,1.405-5.209,4.926-3.441,10.32,0,0,1.794-5.2,5.584-5.494A12.373,12.373,0,0,0,244,14.775Z" transform="translate(-161.006 -9.043)" fill="#b3b3b3" fill-rule="evenodd"/>
      <g id="Grupo_1143032" data-name="Grupo 1143032" transform="translate(52.5 0)">
        <path id="Trazado_904236" data-name="Trazado 904236" d="M124.989,46.984H120.64l0-6.393a1.044,1.044,0,0,0-.533-.91l-3.939-2.213h0c-.192-.11-.41-.229-.642-.356-1.619-.882-4.183-2.28-5.141-4.728h8.765l4.507,4.439c.291.286.291.286.284,1.031,0,.114,0,.238,0,.373v1.634a1.044,1.044,0,1,0,2.087,0V38.227c0-.128,0-.245,0-.354a2.872,2.872,0,0,0-.908-2.539l-4.5-4.431.006-3.479,2.678,0a3.071,3.071,0,0,0,3.077-1.382l.01-.014,3.483-4.957a3.391,3.391,0,0,0,.558-2.564,3.438,3.438,0,0,0-6.222-1.353l-2.2,3.209-1.844-.009-2.267-3.57a7.847,7.847,0,0,0,3.745-6.521A7.779,7.779,0,0,0,120.317,5.9a4.5,4.5,0,0,0,.8-1.046,4.311,4.311,0,0,0-.22-4.3,1.043,1.043,0,0,0-1.386-.438,10.146,10.146,0,0,1-4.992,1.11l-.509,0-.491,0a7.857,7.857,0,0,0-2.687.363c-2.639.937-6.676,3.691-4.091,11.608v0l.006.018c.009.027.019.054.03.079h0A7.808,7.808,0,0,0,109.4,16.7l-1.429,2.064-6.126,2.1A3.457,3.457,0,0,0,99.522,24c0,.012,0,.025,0,.037v1.143H93.554a1.044,1.044,0,1,0,0,2.087h5.968v3.054a3.453,3.453,0,0,0,3.459,3.439H103a3.449,3.449,0,0,0,3.424-3.464l-.015-3.7.59-.2.979,4.953-.813,4.224h-5.937a1.044,1.044,0,0,0,0,2.087h5.535l-.194,1.005-5.611,1.879-.016.006-.014,0-3.6,1.329a1.044,1.044,0,0,0-.617,1.341L99.8,51.584a1.044,1.044,0,0,0,1.49.548c2.021-1.137,3.26-3,3.213-4.647l8.128-2.808a3.186,3.186,0,0,0,2.014-1.788l1.468-3.047,1.789,1.03a1.049,1.049,0,0,0,.253.1l.4.225,0,6.822h0l-.012,3.921a1.044,1.044,0,0,0,1.044,1.047h9.195a1.044,1.044,0,0,0,1-.74,3.276,3.276,0,0,0-.57-3A6.106,6.106,0,0,0,124.989,46.984Zm-2.428-24.532a1.044,1.044,0,0,0,.866-.454l2.511-3.666a1.351,1.351,0,0,1,1.876-.348,1.366,1.366,0,0,1,.569.89,1.317,1.317,0,0,1-.212,1l-3.478,4.949c-.373.513-.377.513-1.388.516l-2.67,0,.005-2.895Zm-3-12.19a5.824,5.824,0,0,1-8.178,5.186c-.03-.016-.06-.03-.091-.043a5.2,5.2,0,0,1-2.421-2.551c.465-1.088,2.02-4.234,4.529-4.427a15.182,15.182,0,0,0,5.2-1.338A5.7,5.7,0,0,1,119.565,10.262ZM108.3,6.561a4.812,4.812,0,0,1,3.228-3.016A5.845,5.845,0,0,1,113.52,3.3l.474,0,.527,0a12.464,12.464,0,0,0,4.9-.869,1.879,1.879,0,0,1-.138,1.412c-.8,1.459-3.691,2.317-6.041,2.5-2.414.185-4.1,1.944-5.151,3.541A7.286,7.286,0,0,1,108.3,6.561Zm-3.283,18.3a1.044,1.044,0,0,0-.705.992l.018,4.451a1.359,1.359,0,0,1-1.346,1.368h-.006a1.38,1.38,0,0,1-1.372-1.352V26.329a1.032,1.032,0,0,0,0-.218V24.054a1.376,1.376,0,0,1,.913-1.215l6.294-2.157a1.323,1.323,0,0,1,.429-.072,1.362,1.362,0,0,1,.444,2.649Zm5.344.376a3.45,3.45,0,0,0,.146-6.47l.777-1.123a8.523,8.523,0,0,0,2.623.388,6.84,6.84,0,0,0,2.1-.345l2.547,4.01-.008,4.686h0l-.007,3.914H109.9l-.907-4.59Zm-9.079,24.348-2.259-6.109,1.652-.61,1.689,4.41C102.552,47.756,102.232,48.721,101.286,49.583Zm11.479-7.6a1.143,1.143,0,0,1-.817.722l-8.032,2.775-1.267-3.308,5.157-1.727a1.044,1.044,0,0,0,.694-.792l.912-4.737a14.276,14.276,0,0,0,4.879,3.9Zm7.866,8.921.005-1.834h4.353a4.142,4.142,0,0,1,2.542,1.429,1.684,1.684,0,0,1,.227.4h-7.127Z" transform="translate(-88.369 0)"/>
        <path id="Trazado_904237" data-name="Trazado 904237" d="M129.885,345.443a1.044,1.044,0,0,0,0-2.087h-.026a1.044,1.044,0,0,0,0,2.087Z" transform="translate(-120.916 -307.819)"/>
        <path id="Trazado_904238" data-name="Trazado 904238" d="M53.57,243.247h-.026a1.044,1.044,0,0,0,0,2.087h.026a1.044,1.044,0,0,0,0-2.087Z" transform="translate(-52.5 -218.071)"/>
        <path id="Trazado_904239" data-name="Trazado 904239" d="M397.281,413.76a1.044,1.044,0,0,0-1.044,1.044v.026a1.044,1.044,0,0,0,2.087,0V414.8A1.044,1.044,0,0,0,397.281,413.76Z" transform="translate(-360.66 -370.936)"/>
      </g>
    </g>
  </g>
</svg>
