<svg xmlns="http://www.w3.org/2000/svg" xmlns:xlink="http://www.w3.org/1999/xlink" width="99" height="99" viewBox="0 0 99 99">
  <defs>
    <filter id="Elipse_14843" x="0" y="0" width="99" height="99" filterUnits="userSpaceOnUse">
      <feOffset dy="3" input="SourceAlpha"/>
      <feGaussianBlur stdDeviation="3" result="blur"/>
      <feFlood flood-opacity="0.161"/>
      <feComposite operator="in" in2="blur"/>
      <feComposite in="SourceGraphic"/>
    </filter>
  </defs>
  <g id="Grupo_1143127" data-name="Grupo 1143127" transform="translate(-173.051 -379)">
    <g transform="matrix(1, 0, 0, 1, 173.05, 379)" filter="url(#Elipse_14843)">
      <g id="Elipse_14843-2" data-name="Elipse 14843" transform="translate(9 6)" fill="#fdbabb" stroke="#fff" stroke-width="3">
        <circle cx="40.5" cy="40.5" r="40.5" stroke="none"/>
        <circle cx="40.5" cy="40.5" r="39" fill="none"/>
      </g>
    </g>
    <g id="objetivo_3_" data-name="objetivo (3)" transform="translate(195.051 398)">
      <g id="Grupo_1143125" data-name="Grupo 1143125" transform="translate(2.669 0.89)">
        <g id="Grupo_1143110" data-name="Grupo 1143110" transform="translate(34.213 3.773)">
          <path id="Trazado_904790" data-name="Trazado 904790" d="M49.77,10.543,46,14.316l-.009.009a19.491,19.491,0,0,0-4.538-3.39l.133-.4a6.7,6.7,0,0,0,.356-2.18V5.24a25.023,25.023,0,0,1,7.83,5.3Z" transform="translate(-41.45 -5.24)" fill="#ef7385"/>
        </g>
        <g id="Grupo_1143111" data-name="Grupo 1143111" transform="translate(35.085 40.531)">
          <path id="Trazado_904791" data-name="Trazado 904791" d="M46.1,46.559l3.773,3.773a25.025,25.025,0,0,1-7.448,5.134l.721-.721a5.332,5.332,0,0,0,1.566-3.782v-3.15A15.363,15.363,0,0,0,46.1,46.55Z" transform="translate(-42.43 -46.55)" fill="#ef7385"/>
        </g>
        <g id="Grupo_1143112" data-name="Grupo 1143112" transform="translate(38.751 9.076)">
          <path id="Trazado_904792" data-name="Trazado 904792" d="M57.628,28.818H52.289A19.485,19.485,0,0,0,46.55,14.982l.009-.009L50.332,11.2a24.835,24.835,0,0,1,7.3,17.618Z" transform="translate(-46.55 -11.2)" fill="#ef7385"/>
        </g>
        <g id="Grupo_1143113" data-name="Grupo 1143113" transform="translate(38.751 26.694)">
          <path id="Trazado_904793" data-name="Trazado 904793" d="M52.289,31h5.339a24.872,24.872,0,0,1-7.3,17.618l-3.773-3.773-.009-.009A19.449,19.449,0,0,0,52.289,31Z" transform="translate(-46.55 -31)" fill="#ef7385"/>
        </g>
        <g id="Grupo_1143114" data-name="Grupo 1143114" transform="translate(0 26.694)">
          <path id="Trazado_904794" data-name="Trazado 904794" d="M14.078,44.836l-.009.009L10.3,48.618A24.835,24.835,0,0,1,3,31H8.339a19.449,19.449,0,0,0,5.739,13.836Z" transform="translate(-3 -31)" fill="#ef7385"/>
        </g>
        <g id="Grupo_1143115" data-name="Grupo 1143115" transform="translate(7.296 40.531)">
          <path id="Trazado_904795" data-name="Trazado 904795" d="M26.149,55.848v1.637A24.9,24.9,0,0,1,11.2,50.332l3.773-3.773.009-.009a19.458,19.458,0,0,0,8.533,5.01,5.328,5.328,0,0,0,1.53,3.186Z" transform="translate(-11.2 -46.55)" fill="#ef7385"/>
        </g>
        <g id="Grupo_1143116" data-name="Grupo 1143116" transform="translate(0 9.076)">
          <path id="Trazado_904796" data-name="Trazado 904796" d="M14.069,14.973l.009.009A19.5,19.5,0,0,0,8.339,28.818H3A24.872,24.872,0,0,1,10.3,11.2Z" transform="translate(-3 -11.2)" fill="#ef7385"/>
        </g>
        <g id="Grupo_1143117" data-name="Grupo 1143117" transform="translate(7.296 3.39)">
          <path id="Trazado_904797" data-name="Trazado 904797" d="M19.386,10.487l.133.409-.036.009a19.224,19.224,0,0,0-4.5,3.372l-.009-.009L11.2,10.5A25.053,25.053,0,0,1,19.982,4.81a6.839,6.839,0,0,0-.952,3.5A6.7,6.7,0,0,0,19.386,10.487Z" transform="translate(-11.2 -4.81)" fill="#ef7385"/>
        </g>
        <g id="Grupo_1143118" data-name="Grupo 1143118" transform="translate(22.245 49.829)">
          <path id="Trazado_904798" data-name="Trazado 904798" d="M40.457,57v3.559H28V57Z" transform="translate(-28 -57)" fill="#b4dd7f"/>
        </g>
        <g id="Grupo_1143119" data-name="Grupo 1143119" transform="translate(17.796 23.135)">
          <path id="Trazado_904799" data-name="Trazado 904799" d="M31.9,36.788a1.785,1.785,0,0,1,1.78-1.78,1.793,1.793,0,0,1,1.78,1.78v.89a1.785,1.785,0,0,1,1.78-1.78,1.793,1.793,0,0,1,1.78,1.78v.89a1.745,1.745,0,0,1,.525-1.264,1.781,1.781,0,0,1,3.034,1.264V48.809a5.332,5.332,0,0,1-1.566,3.782l-.721.721-.383.383H27.449l-1.1-1.1a5.328,5.328,0,0,1-1.53-3.186,4.467,4.467,0,0,1-.036-.6V46.656a15.469,15.469,0,0,0-1.628-6.9,1.44,1.44,0,0,1,1.29-2.082,3.9,3.9,0,0,1,3.9,3.9V28.78A1.785,1.785,0,0,1,30.118,27a1.793,1.793,0,0,1,1.78,1.78v8.008Z" transform="translate(-23 -27)" fill="#f0d0b4"/>
        </g>
        <g id="Grupo_1143120" data-name="Grupo 1143120" transform="translate(17.796 19.576)">
          <path id="Trazado_904800" data-name="Trazado 904800" d="M37.237,30.118H31.9v-1.78a1.793,1.793,0,0,0-1.78-1.78,1.785,1.785,0,0,0-1.78,1.78v1.78H23a7.118,7.118,0,1,1,14.237,0Z" transform="translate(-23 -23)" fill="#b4dd7f"/>
        </g>
        <g id="Grupo_1143121" data-name="Grupo 1143121" transform="translate(15.127)">
          <path id="Trazado_904801" data-name="Trazado 904801" d="M20.614,10.859l-.125-.383-.133-.409A6.7,6.7,0,0,1,20,7.887a6.839,6.839,0,0,1,.952-3.5A7.267,7.267,0,0,1,22.02,3.02,6.859,6.859,0,0,1,26.887,1H39.576V7.887a6.7,6.7,0,0,1-.356,2.18l-.133.4-.125.392A2.667,2.667,0,0,0,36.906,9.9h-.89a1.785,1.785,0,0,0-1.78-1.78h-3.71a6.082,6.082,0,0,1-4.3-1.78A3.912,3.912,0,0,0,23.559,9.9h-.89a2.667,2.667,0,0,0-2.055.961Z" transform="translate(-20 -1)" fill="#fcd770"/>
        </g>
        <g id="Grupo_1143122" data-name="Grupo 1143122" transform="translate(31.143 8.898)">
          <path id="Trazado_904802" data-name="Trazado 904802" d="M40.945,11.961a2.673,2.673,0,0,1-2.055,4.378H38V11h.89a2.667,2.667,0,0,1,2.055.961Z" transform="translate(-38 -11)" fill="#f0d0b4"/>
        </g>
        <g id="Grupo_1143123" data-name="Grupo 1143123" transform="translate(18.686 5.339)">
          <path id="Trazado_904803" data-name="Trazado 904803" d="M24,10.559A3.912,3.912,0,0,1,26.669,7a6.082,6.082,0,0,0,4.3,1.78h3.71a1.785,1.785,0,0,1,1.78,1.78V15.9a5.343,5.343,0,0,1-5.339,5.339h-1.78A5.343,5.343,0,0,1,24,15.9V10.559Z" transform="translate(-24 -7)" fill="#f0d0b4"/>
        </g>
        <g id="Grupo_1143124" data-name="Grupo 1143124" transform="translate(15.127 8.898)">
          <path id="Trazado_904804" data-name="Trazado 904804" d="M23.559,11v5.339h-.89a2.669,2.669,0,1,1,0-5.339Z" transform="translate(-20 -11)" fill="#f0d0b4"/>
        </g>
      </g>
      <g id="Grupo_1143126" data-name="Grupo 1143126" transform="translate(0 0)">
        <circle id="Elipse_14945" data-name="Elipse 14945" cx="1" cy="1" r="1" transform="translate(23.584 10.584)"/>
        <circle id="Elipse_14946" data-name="Elipse 14946" cx="1" cy="1" r="1" transform="translate(29.584 10.584)"/>
        <path id="Trazado_904805" data-name="Trazado 904805" d="M32.351,16.741a1.99,1.99,0,0,1-3.559,0l-.093-.188-1.592.8.093.188a3.77,3.77,0,0,0,6.743,0l.093-.188-1.592-.8Z" transform="translate(-2.987 -1.824)"/>
        <path id="Trazado_904806" data-name="Trazado 904806" d="M55.168,28.474v-1.78H53.355A25.755,25.755,0,0,0,46.444,9.982l1.274-1.274L46.46,7.449,45.187,8.723A25.819,25.819,0,0,0,38.262,4.1V0H24.687a7.774,7.774,0,0,0-6.531,3.568A25.586,25.586,0,0,0,10,8.737L8.709,7.45,7.45,8.709,8.737,10a25.914,25.914,0,0,0-6.923,16.7H0v1.78H1.8A25.735,25.735,0,0,0,8.707,45.2L7.45,46.459l1.258,1.258,1.253-1.253a25.671,25.671,0,0,0,14.064,6.673v2.031H38.263V51.087l.021-.021a25.712,25.712,0,0,0,6.9-4.63l1.281,1.281,1.258-1.258-1.282-1.282a25.817,25.817,0,0,0,6.92-16.7Zm-3.592-1.78H48.019a20.438,20.438,0,0,0-5.349-12.939l2.515-2.515a23.978,23.978,0,0,1,6.39,15.454ZM24.438,48.985a4.474,4.474,0,0,1-1.3-3.147V43.681a16.4,16.4,0,0,0-1.721-7.293.551.551,0,0,1,.492-.8,3.013,3.013,0,0,1,3.009,3.01v2.329h1.78V25.8a.89.89,0,0,1,1.78,0V40.931h1.78V33.813a.89.89,0,0,1,1.78,0v7.118h1.78V34.7a.89.89,0,1,1,1.78,0v6.229h1.78v-5.34a.89.89,0,0,1,1.78,0V45.838a4.424,4.424,0,0,1-1.3,3.146L37,49.829H25.283ZM8.9,27.584a18.677,18.677,0,0,1,8.03-15.34c0,.072-.021.141-.021.214a3.563,3.563,0,0,0,3.559,3.559h.071A6.237,6.237,0,0,0,23.7,20.586a8.012,8.012,0,0,0-4.125,7v.89h5.339v6.433a4.739,4.739,0,0,0-3.009-1.094,2.33,2.33,0,0,0-2.084,3.371,14.6,14.6,0,0,1,1.534,6.5V45.2A18.748,18.748,0,0,1,8.9,27.584ZM20.466,14.237a1.78,1.78,0,1,1,0-3.559Zm7.118,8.9A2.673,2.673,0,0,0,24.915,25.8v.89h-3.5a6.229,6.229,0,0,1,12.331,0h-3.5V25.8A2.673,2.673,0,0,0,27.584,23.135Zm-.89-3.559a4.454,4.454,0,0,1-4.449-4.449V9.932a3.01,3.01,0,0,1,1.6-2.662A6.91,6.91,0,0,0,28.322,8.9h3.711a.891.891,0,0,1,.89.89v5.339a4.454,4.454,0,0,1-4.449,4.449ZM40.931,40.659V35.593a2.674,2.674,0,0,0-2.669-2.67,2.64,2.64,0,0,0-1.309.357,2.63,2.63,0,0,0-3.559-.89,2.616,2.616,0,0,0-3.14-1.083V28.474h5.339v-.89a8.012,8.012,0,0,0-4.125-7,6.238,6.238,0,0,0,3.164-4.569H34.7a3.563,3.563,0,0,0,3.559-3.559c0-.073-.017-.142-.021-.214a18.674,18.674,0,0,1,2.691,28.416ZM34.7,10.678a1.78,1.78,0,0,1,0,3.559Zm9.225-.695-2.52,2.52a20.468,20.468,0,0,0-3.47-2.563,7.794,7.794,0,0,0,.325-2.16V6.069A23.985,23.985,0,0,1,43.927,9.983Zm-19.24-8.2h11.8v6a5.976,5.976,0,0,1-.21,1.5A3.506,3.506,0,0,0,34.7,8.9h-.164a2.666,2.666,0,0,0-2.506-1.78H28.322A5.153,5.153,0,0,1,24.654,5.6l-.389-.389-.521.174A4.777,4.777,0,0,0,20.592,8.9h-.126a3.52,3.52,0,0,0-1.57.381,5.964,5.964,0,0,1-.21-1.5,6.007,6.007,0,0,1,6-6ZM17.131,5.956a7.711,7.711,0,0,0-.225,1.824,7.719,7.719,0,0,0,.326,2.16,20.485,20.485,0,0,0-3.47,2.564L11.251,9.993A23.91,23.91,0,0,1,17.131,5.956ZM10,11.253l2.5,2.5a20.448,20.448,0,0,0-5.35,12.938H3.594A24.134,24.134,0,0,1,10,11.253ZM3.58,28.474H7.155A20.5,20.5,0,0,0,12.512,41.4L9.966,43.944A23.972,23.972,0,0,1,3.58,28.474ZM11.22,45.206l2.55-2.549a20.321,20.321,0,0,0,7.72,4.454,6.266,6.266,0,0,0,1.689,3.132l.845.844v.256A23.9,23.9,0,0,1,11.22,45.206Zm25.262,8.183H25.8v-1.78H36.482Zm4.144-5.631a6.216,6.216,0,0,0,.305-1.919V43.09c.161-.139.324-.276.48-.419l2.509,2.508a23.99,23.99,0,0,1-3.295,2.579Zm4.551-3.839-2.511-2.511a20.379,20.379,0,0,0,5.358-12.934h3.551A24.039,24.039,0,0,1,45.177,43.919Z" transform="translate(0 0)"/>
      </g>
    </g>
  </g>
</svg>
