<svg xmlns="http://www.w3.org/2000/svg" width="90" height="90" viewBox="0 0 90 90">
  <g id="Grupo_1143245" data-name="Grupo 1143245" transform="translate(-1228.051 -1921)">
    <g id="Grupo_1107990" data-name="Grupo 1107990" transform="translate(893.27 -1912)">
      <g id="Grupo_1098742" data-name="Grupo 1098742" transform="translate(-868.539 3444.258)">
        <g id="Rect치ngulo_400898" data-name="Rect치ngulo 400898" transform="translate(1203.32 388.742)" fill="#fdbabb" stroke="#fff" stroke-width="3" opacity="0.859">
          <rect width="90" height="90" rx="45" stroke="none"/>
          <rect x="1.5" y="1.5" width="87" height="87" rx="43.5" fill="none"/>
        </g>
        <g id="Rect치ngulo_400907" data-name="Rect치ngulo 400907" transform="translate(1203.32 388.742)" fill="none" stroke="#fff" stroke-width="3">
          <rect width="90" height="90" rx="45" stroke="none"/>
          <rect x="1.5" y="1.5" width="87" height="87" rx="43.5" fill="none"/>
        </g>
      </g>
    </g>
    <g id="idea_1_" data-name="idea (1)" transform="translate(1197.583 1936.001)">
      <path id="Trazado_904878" data-name="Trazado 904878" d="M391.024,234.242h-.512l.774-10.513h2.781a3.541,3.541,0,0,1,3.541,3.541v.387A6.584,6.584,0,0,1,391.024,234.242Z" transform="translate(-299.049 -197.922)" fill="#f9a58e"/>
      <path id="Trazado_904879" data-name="Trazado 904879" d="M66.552,234.242h.512l-.774-10.513H63.509a3.541,3.541,0,0,0-3.541,3.541v.387A6.584,6.584,0,0,0,66.552,234.242Z" transform="translate(-6.635 -197.922)" fill="#eaac9d"/>
      <path id="Trazado_904880" data-name="Trazado 904880" d="M151.414,424.658v-3.013c-2.955,2.021-6.218,3.178-8.428,3.178s-5.474-1.157-8.428-3.179v3.013a4.366,4.366,0,0,1-2.477,3.936l-3.562,1.709a.472.472,0,0,0,.2.9h28.527a.472.472,0,0,0,.2-.9l-3.562-1.709A4.366,4.366,0,0,1,151.414,424.658Z" transform="translate(-67.04 -373.006)" fill="#ffcbbe"/>
      <path id="Trazado_904881" data-name="Trazado 904881" d="M145.578,62.269a16.55,16.55,0,1,0-33.01,0l1.125,15.28c.593,8.056,10.525,13.638,15.38,13.638s14.786-5.583,15.38-13.638Z" transform="translate(-53.127 -39.371)" fill="#ffcbbe"/>
      <path id="Trazado_904882" data-name="Trazado 904882" d="M198.383,51.145a16.53,16.53,0,0,1,6.9,14.692l-1.125,15.28c-.593,8.056-10.524,13.638-15.38,13.638a11.311,11.311,0,0,1-3.55-.694,16.461,16.461,0,0,0,8.164,3c4.855,0,14.786-5.583,15.38-13.638l1.125-15.28a16.558,16.558,0,0,0-11.509-17Z" transform="translate(-117.441 -45.246)" fill="#eaac9d"/>
      <path id="Trazado_904883" data-name="Trazado 904883" d="M167.844,103.979l-1.007-.47a1.443,1.443,0,0,1-.532-2.188,13.5,13.5,0,0,0-2.393-2.464,8.406,8.406,0,0,1-3.921,5.118,1.243,1.243,0,0,0-.584.8l-.247,1.086a1.2,1.2,0,0,1-1.175.938h-4.366a1.2,1.2,0,0,1-1.175-.938l-.244-1.076a1.265,1.265,0,0,0-.593-.818,8.4,8.4,0,0,1-3.915-5.115,13.489,13.489,0,0,0-2.536,2.659c.013.025.026.05.038.076a1.442,1.442,0,0,1-.7,1.916l-.668.311a12.884,12.884,0,0,0-1.088,4.4A1.759,1.759,0,0,0,144.5,110.1h22.613a1.759,1.759,0,0,0,1.755-1.874A12.885,12.885,0,0,0,167.844,103.979Z" transform="translate(-79.856 -87.455)" fill="#9dc6fb"/>
      <path id="Trazado_904884" data-name="Trazado 904884" d="M168.863,108.225a12.885,12.885,0,0,0-1.019-4.245l-1.007-.47a1.443,1.443,0,0,1-.532-2.188,13.5,13.5,0,0,0-2.393-2.464,8.342,8.342,0,0,1-.952,2.226,12.87,12.87,0,0,1,1.29,4.834,1.759,1.759,0,0,1-1.755,1.875H142.777q-.021.216-.036.433A1.759,1.759,0,0,0,144.5,110.1h22.613A1.759,1.759,0,0,0,168.863,108.225Z" transform="translate(-79.856 -87.455)" fill="#80b4fb"/>
      <path id="Trazado_904885" data-name="Trazado 904885" d="M237.838,171.043h-5.447v-3.175a.119.119,0,0,1,.119-.119h5.208a.119.119,0,0,1,.119.119Z" transform="translate(-159.168 -148.399)" fill="#c6c1c8"/>
      <path id="Trazado_904886" data-name="Trazado 904886" d="M200.06,15.886a8.388,8.388,0,1,0-12.582,7.265,1.265,1.265,0,0,1,.593.818l.244,1.076a1.2,1.2,0,0,0,1.175.938h4.366a1.2,1.2,0,0,0,1.175-.938l.247-1.086a1.244,1.244,0,0,1,.584-.8A8.384,8.384,0,0,0,200.06,15.886Z" transform="translate(-115.726 -6.634)" fill="#f6e781"/>
      <path id="Trazado_904887" data-name="Trazado 904887" d="M228.838,8.315a8.39,8.39,0,0,1-1.687,13.256,1.243,1.243,0,0,0-.584.8l-.247,1.086a1.2,1.2,0,0,1-1.175.938h-1.275a1.314,1.314,0,0,1,.1.293l.244,1.076a1.2,1.2,0,0,0,1.175.938h4.366a1.2,1.2,0,0,0,1.175-.938l.247-1.086a1.243,1.243,0,0,1,.584-.8,8.39,8.39,0,0,0-2.927-15.563Z" transform="translate(-151.631 -7.356)" fill="#f4dd45"/>
      <path id="Trazado_904888" data-name="Trazado 904888" d="M358.619,69.3h-2.178a1.442,1.442,0,0,1,0-2.884h2.178a1.442,1.442,0,0,1,0,2.884Z" transform="translate(-267.633 -58.756)" fill="#fff9e2"/>
      <path id="Trazado_904889" data-name="Trazado 904889" d="M348.465,12.247l-1.974.921a1.442,1.442,0,0,1-1.219-2.614l1.974-.921a1.442,1.442,0,0,1,1.219,2.614Z" transform="translate(-258.291 -8.403)" fill="#fff9e2"/>
      <path id="Trazado_904890" data-name="Trazado 904890" d="M348.465,116.4l-1.974-.921a1.442,1.442,0,0,0-1.219,2.614l1.974.921a1.442,1.442,0,0,0,1.219-2.614Z" transform="translate(-258.291 -102.044)" fill="#fff9e2"/>
      <path id="Trazado_904891" data-name="Trazado 904891" d="M112.216,69.3h2.178a1.442,1.442,0,0,0,0-2.884h-2.178a1.442,1.442,0,1,0,0,2.884Z" transform="translate(-51.58 -58.756)" fill="#fff9e2"/>
      <path id="Trazado_904892" data-name="Trazado 904892" d="M123.93,12.247l1.974.921a1.442,1.442,0,1,0,1.219-2.614l-1.974-.921a1.442,1.442,0,0,0-1.219,2.614Z" transform="translate(-62.481 -8.403)" fill="#fff9e2"/>
      <path id="Trazado_904893" data-name="Trazado 904893" d="M123.93,116.4l1.974-.921a1.442,1.442,0,1,1,1.219,2.614l-1.974.921a1.442,1.442,0,0,1-1.219-2.614Z" transform="translate(-62.481 -102.044)" fill="#fff9e2"/>
      <g id="Grupo_1143244" data-name="Grupo 1143244" transform="translate(52.468 -0.001)">
        <path id="Trazado_904894" data-name="Trazado 904894" d="M95.018,24.942h-1.85l.146-1.98a17.349,17.349,0,0,0-3.3-11.552h.976a2.307,2.307,0,0,0,0-4.614H88.808a2.31,2.31,0,0,0-2.044,1.237,17.488,17.488,0,0,0-1.916-1.322A9.256,9.256,0,0,0,75.722,0a9.1,9.1,0,0,0-4.1,1.076.865.865,0,1,0,.813,1.527,7.385,7.385,0,0,1,3.327-.873A7.524,7.524,0,0,1,79.7,15.772a2.113,2.113,0,0,0-1,1.362l-.247,1.086a.337.337,0,0,1-.331.264H76.676v-3.2A3.192,3.192,0,0,0,79,12.217a.865.865,0,1,0-1.73,0,1.456,1.456,0,0,1-2.911,0,.865.865,0,1,0-1.73,0,3.192,3.192,0,0,0,2.321,3.066v3.2H73.763a.337.337,0,0,1-.331-.264l-.244-1.076a2.135,2.135,0,0,0-1-1.375,7.512,7.512,0,0,1-2.41-10.8.865.865,0,1,0-1.418-.991,9.221,9.221,0,0,0-1.306,2.732A17.466,17.466,0,0,0,64.933,8.19,2.311,2.311,0,0,0,62.814,6.8H60.636a2.307,2.307,0,0,0,0,4.614h1.246a17.481,17.481,0,0,0-1.777,3.027,2.335,2.335,0,0,0-.279.642,17.37,17.37,0,0,0-1.248,7.883l.146,1.98h-1.85a4.411,4.411,0,0,0-4.406,4.406v.387a7.458,7.458,0,0,0,7.157,7.444l.078,1.062a11.928,11.928,0,0,0,1.245,4.44.865.865,0,1,0,1.55-.77,10.207,10.207,0,0,1-1.069-3.8L60.3,22.835a15.573,15.573,0,0,1,.505-5.227,2.316,2.316,0,0,0,1.683.326,13.823,13.823,0,0,0-.471,2.778,2.626,2.626,0,0,0,2.618,2.8H81.588a.865.865,0,0,0,0-1.73H79.535V19.669a2.067,2.067,0,0,0,.613-1.065l.247-1.086a.378.378,0,0,1,.173-.247,9.282,9.282,0,0,0,3.88-4.373,12.66,12.66,0,0,1,.975,1.061,2.306,2.306,0,0,0,1.193,2.879l.7.328a12.026,12.026,0,0,1,.826,3.661.893.893,0,0,1-.892.952H85.625a.865.865,0,1,0,0,1.73h1.627a2.626,2.626,0,0,0,2.618-2.8,13.822,13.822,0,0,0-.461-2.742,2.321,2.321,0,0,0,1.628-.527,15.575,15.575,0,0,1,.551,5.391l-1.125,15.28c-.5,6.837-9.243,12.837-14.517,12.837-2.949,0-7.918-2.245-11.216-5.843a.865.865,0,1,0-1.276,1.169,20.643,20.643,0,0,0,3.2,2.82v2.554a3.519,3.519,0,0,1-1.987,3.156L61.1,56.517a1.338,1.338,0,0,0,.579,2.544H90.209a1.338,1.338,0,0,0,.579-2.544l-3.562-1.709a3.519,3.519,0,0,1-1.986-3.156V49.084c3.578-2.566,6.618-6.349,6.949-10.842l.078-1.062a7.458,7.458,0,0,0,7.157-7.444v-.387A4.411,4.411,0,0,0,95.018,24.942ZM65.213,12.765a2.3,2.3,0,0,0-2.045-.157A15.708,15.708,0,0,1,66.7,9.015a9.272,9.272,0,0,0,.179,2.061,14.354,14.354,0,0,0-1.662,1.689ZM60.059,9.1a.577.577,0,0,1,.577-.577h2.178a.577.577,0,1,1,0,1.154H60.636A.577.577,0,0,1,60.059,9.1ZM54.2,29.736v-.387a2.679,2.679,0,0,1,2.676-2.676h1.978L59.5,35.44A5.727,5.727,0,0,1,54.2,29.736Zm9.55-8.909a12.013,12.013,0,0,1,.889-3.816l.369-.172A2.308,2.308,0,0,0,66.275,14.2a12.652,12.652,0,0,1,1.168-1.3,9.259,9.259,0,0,0,3.876,4.366.4.4,0,0,1,.182.261l.244,1.076a2.067,2.067,0,0,0,.613,1.065v2.111H64.64A.893.893,0,0,1,63.748,20.827Zm10.34.952V20.215H77.8v1.564ZM86.477,56.368l2.006.963H63.409l2.006-.963a5.258,5.258,0,0,0,2.968-4.716V50.218a16.361,16.361,0,0,0,7.563,2.463,16.229,16.229,0,0,0,7.563-2.474v1.443A5.259,5.259,0,0,0,86.477,56.368ZM88.808,8.526h2.178a.577.577,0,1,1,0,1.154H88.808a.574.574,0,0,1-.384-.147l-.055-.056a.578.578,0,0,1,.439-.951Zm1.279,7.386a.577.577,0,0,1-.767.279l-1.974-.921a.577.577,0,0,1,.488-1.045l1.974.921a.577.577,0,0,1,.279.767Zm-28.273-.766,1.974-.921a.577.577,0,0,1,.488,1.045l-1.974.921a.577.577,0,0,1-.488-1.045Zm26.752-2.489a2.3,2.3,0,0,0-1.969.009,14.361,14.361,0,0,0-1.58-1.59,9.2,9.2,0,0,0,.18-2.06,15.719,15.719,0,0,1,3.655,3.775Zm9.129,17.079a5.727,5.727,0,0,1-5.3,5.7l.646-8.767h1.978a2.679,2.679,0,0,1,2.676,2.676Z" transform="translate(-52.468 0.001)" fill="#222221"/>
        <path id="Trazado_904895" data-name="Trazado 904895" d="M176.522,238.286h-6.894a.865.865,0,1,0,0,1.73h6.894a.865.865,0,0,0,0-1.73Z" transform="translate(-155.348 -210.799)" fill="#222221"/>
        <path id="Trazado_904896" data-name="Trazado 904896" d="M252.533,245.994v-4.539a1.44,1.44,0,0,1,1.439-1.439h4.59a.865.865,0,1,0,0-1.73h-4.59a3.173,3.173,0,0,0-3.169,3.169v4.539a1.44,1.44,0,0,1-1.439,1.439.865.865,0,1,0,0,1.73A3.173,3.173,0,0,0,252.533,245.994Z" transform="translate(-225.886 -210.799)" fill="#222221"/>
        <path id="Trazado_904897" data-name="Trazado 904897" d="M200.845,368.718a.865.865,0,0,0-.776,1.547l.724.363a11.884,11.884,0,0,0,10.61,0l.724-.363a.865.865,0,1,0-.776-1.547l-.724.363a10.147,10.147,0,0,1-9.059,0Z" transform="translate(-182.621 -326.103)" fill="#222221"/>
        <path id="Trazado_904898" data-name="Trazado 904898" d="M201.644,32.1a.865.865,0,0,0,.888-.842,4.687,4.687,0,0,1,4.523-4.511.865.865,0,0,0-.041-1.73,6.437,6.437,0,0,0-6.211,6.2A.865.865,0,0,0,201.644,32.1Z" transform="translate(-183.691 -22.128)" fill="#222221"/>
        <path id="Trazado_904899" data-name="Trazado 904899" d="M338.453,7.4a2.292,2.292,0,0,0,1.764-.077l1.974-.921a2.307,2.307,0,1,0-1.95-4.182l-1.974.921a2.307,2.307,0,0,0,.186,4.259Zm.247-2.365a.573.573,0,0,1,.3-.325l1.974-.921a.577.577,0,1,1,.488,1.045l-1.974.921A.578.578,0,0,1,338.7,5.034Z" transform="translate(-304.12 -1.772)" fill="#222221"/>
        <path id="Trazado_904900" data-name="Trazado 904900" d="M116.924,6.4l1.974.921a2.307,2.307,0,1,0,1.95-4.182l-1.974-.921a2.307,2.307,0,0,0-1.95,4.182Zm.452-2.335a.577.577,0,0,1,.767-.279l1.974.921a.577.577,0,1,1-.487,1.045l-1.974-.921A.576.576,0,0,1,117.377,4.066Z" transform="translate(-108.31 -1.771)" fill="#222221"/>
      </g>
    </g>
  </g>
</svg>
