<svg xmlns="http://www.w3.org/2000/svg" xmlns:xlink="http://www.w3.org/1999/xlink" width="98" height="98" viewBox="0 0 98 98">
  <defs>
    <filter id="Elipse_14842" x="0" y="0" width="98" height="98" filterUnits="userSpaceOnUse">
      <feOffset dy="3" input="SourceAlpha"/>
      <feGaussianBlur stdDeviation="3" result="blur"/>
      <feFlood flood-opacity="0.161"/>
      <feComposite operator="in" in2="blur"/>
      <feComposite in="SourceGraphic"/>
    </filter>
  </defs>
  <g id="Grupo_1143035" data-name="Grupo 1143035" transform="translate(-523.551 -435)">
    <g transform="matrix(1, 0, 0, 1, 523.55, 435)" filter="url(#Elipse_14842)">
      <g id="Elipse_14842-2" data-name="Elipse 14842" transform="translate(9 6)" fill="#f6d530" stroke="#fff" stroke-width="3">
        <circle cx="40" cy="40" r="40" stroke="none"/>
        <circle cx="40" cy="40" r="38.5" fill="none"/>
      </g>
    </g>
    <g id="voto-positivo" transform="translate(544.051 452)">
      <path id="Trazado_904240" data-name="Trazado 904240" d="M58.962,82.028A25.25,25.25,0,1,1,33.711,56.777,25.251,25.251,0,0,1,58.962,82.028Zm0,0" transform="translate(-7.062 -50.366)" fill="#937de2"/>
      <path id="Trazado_904241" data-name="Trazado 904241" d="M201.253,56.777a25.468,25.468,0,0,0-3.925.3,25.254,25.254,0,0,1,0,49.892,25.251,25.251,0,1,0,3.922-50.2Zm0,0" transform="translate(-174.604 -50.366)" fill="#7570d6"/>
      <path id="Trazado_904242" data-name="Trazado 904242" d="M215.424,37.778l-14.419,9.548a4.91,4.91,0,0,1-3.488.756,4.926,4.926,0,0,0-3.5.754l-1.93,1.279L181.285,34.186l2.651-11.454a11.95,11.95,0,0,0-1.679-9.3,2.858,2.858,0,0,1,4.372-3.63l1.717,1.664a18.362,18.362,0,0,1,4.431,6.792l.932,2.507,9.591-6.337a3.27,3.27,0,0,1,4.582,1,3.314,3.314,0,0,1-1.027,4.493.036.036,0,0,0-.013.045.037.037,0,0,0,.047.018,3.24,3.24,0,0,1,1.169-.217,3.269,3.269,0,0,1,3.211,3.9,3.343,3.343,0,0,1-1.371,2.071.07.07,0,0,0-.018.1,0,0,0,0,0,0,0,.069.069,0,0,0,.092.018,3.352,3.352,0,0,1,.793-.094,3.447,3.447,0,0,1,1.844.535,3.213,3.213,0,0,1,.954.936,3.269,3.269,0,0,1-.922,4.532l-.111.074a.051.051,0,0,0-.017.064.031.031,0,0,0,.012.012.053.053,0,0,0,.065,0,3.2,3.2,0,0,1,2.775.357,3.32,3.32,0,0,1,.977.969A3.271,3.271,0,0,1,215.424,37.778Zm0,0" transform="translate(-160.373 -7.983)" fill="#fdd7bd"/>
      <path id="Trazado_904243" data-name="Trazado 904243" d="M40.783,233.84,34.7,237.868l-8.782,5.816a25.277,25.277,0,0,1-15.356-19.867l10.192-6.749,6.2-4.108a1.552,1.552,0,0,1,2.151.438l12.113,18.289A1.554,1.554,0,0,1,40.783,233.84Zm0,0" transform="translate(-8.926 -188.685)" fill="#87dbff"/>
      <path id="Trazado_904244" data-name="Trazado 904244" d="M120.854,233.84l-6.083,4.028-13.947-20.8,6.2-4.108a1.552,1.552,0,0,1,2.151.438l12.113,18.289A1.554,1.554,0,0,1,120.854,233.84Zm0,0" transform="translate(-88.997 -188.685)" fill="#6fc7ff"/>
      <g id="Grupo_1143034" data-name="Grupo 1143034" transform="translate(42.687 11.787)">
        <path id="Trazado_904245" data-name="Trazado 904245" d="M380.913,104.912l-4.8,2.567a1.554,1.554,0,0,1-1.983-.446l3.783-2.447a.036.036,0,0,0,.047.018,3.24,3.24,0,0,1,1.169-.217A3.293,3.293,0,0,1,380.913,104.912Zm0,0" transform="translate(-374.133 -104.387)" fill="#fac5aa"/>
        <path id="Trazado_904246" data-name="Trazado 904246" d="M406.285,158.062l-4.693,2.51a1.553,1.553,0,0,1-1.983-.445l3.783-2.447.163-.077a.069.069,0,0,0,.092.018,3.358,3.358,0,0,1,.793-.094A3.441,3.441,0,0,1,406.285,158.062Zm0,0" transform="translate(-396.733 -151.527)" fill="#fac5aa"/>
        <path id="Trazado_904247" data-name="Trazado 904247" d="M435.089,211.032l-4.134,2.211a1.555,1.555,0,0,1-1.982-.446l3.277-2.12a.053.053,0,0,0,.065,0A3.2,3.2,0,0,1,435.089,211.032Zm0,0" transform="translate(-422.781 -198.525)" fill="#fac5aa"/>
      </g>
      <path id="Trazado_904248" data-name="Trazado 904248" d="M56.722,24.766A4.141,4.141,0,0,0,54.157,23a4.164,4.164,0,0,0-2.777-6,4.174,4.174,0,0,0-.216-4.242A4.137,4.137,0,0,0,48.6,10.991a4.169,4.169,0,0,0-5.993-5.414l-4.15,2.749a25.936,25.936,0,0,0-7.008-2.372,19.269,19.269,0,0,0-2.674-3.235L27.058,1.054a3.757,3.757,0,0,0-5.747,4.772q.067.1.133.206A26.15,26.15,0,1,0,51.25,40.544a.9.9,0,1,0-1.691-.61,24.384,24.384,0,0,1-30.6,14.841l7.314-4.843h0L32.354,45.9h0a2.452,2.452,0,0,0,.691-3.4l-.08-.122,1.181-.782A4,4,0,0,1,37,40.986a5.8,5.8,0,0,0,4.131-.893l9.793-6.485a24.405,24.405,0,0,1-.331,2.525.9.9,0,0,0,.72,1.048.877.877,0,0,0,.165.015.9.9,0,0,0,.883-.735,26.289,26.289,0,0,0,.43-4.088l2.76-1.828a4.17,4.17,0,0,0,1.174-5.778ZM36.712,9.48,33.965,11.3l-.541-1.457a19.238,19.238,0,0,0-.771-1.787A24.129,24.129,0,0,1,36.712,9.48ZM8.247,15.712A24.354,24.354,0,0,1,22.3,7.7a11.1,11.1,0,0,1,.56,6.726l-2.192,9.468a2.447,2.447,0,0,0-3.137-.366l-6.208,4.111h0L2.372,33.567c-.049-.632-.075-1.268-.075-1.9A24.344,24.344,0,0,1,8.247,15.712ZM31.641,43.99a.651.651,0,0,1-.281.415h0L26.023,47.94,16.114,33.163a.9.9,0,0,0-1.493,1l9.9,14.768L16.9,53.98a24.427,24.427,0,0,1-14.3-18.447l8.964-5.917L12.6,31.155a.9.9,0,1,0,1.493-1l-1.025-1.528,5.456-3.6a.654.654,0,0,1,.906.185L31.546,43.5A.648.648,0,0,1,31.641,43.99ZM55.57,27.54a2.356,2.356,0,0,1-1.015,1.505L51.4,31.135l0,0L40.136,38.594a4,4,0,0,1-2.853.617,5.8,5.8,0,0,0-4.131.893l-1.181.782-9.92-14.98,2.564-11.077a12.915,12.915,0,0,0-.946-8.478.881.881,0,0,0-.038-.08,12.715,12.715,0,0,0-.823-1.438,1.959,1.959,0,0,1,3-2.488l1.717,1.665a17.563,17.563,0,0,1,4.215,6.459l.935,2.519.005.013.007.018c.007.015.013.03.019.041a.887.887,0,0,0,.062.111.9.9,0,0,0,1.246.253L43.6,7.075a2.372,2.372,0,1,1,2.619,3.955l-.832.551h0l-1.856,1.23-.007,0-.029.022a.9.9,0,0,0,1.029,1.472l1.858-1.231A2.372,2.372,0,0,1,49,17.035l-2.69,1.781a.9.9,0,1,0,.992,1.5l.416-.276,1.44-.954a2.372,2.372,0,0,1,2.619,3.955l-1.343.89-.021.014-1.325.877a.9.9,0,1,0,.992,1.5l.416-.276h0l1.44-.954A2.371,2.371,0,0,1,55.57,27.54Zm0,0"/>
    </g>
  </g>
</svg>
