<svg xmlns="http://www.w3.org/2000/svg" xmlns:xlink="http://www.w3.org/1999/xlink" width="96" height="96" viewBox="0 0 96 96">
  <defs>
    <filter id="Elipse_14851" x="0" y="0" width="96" height="96" filterUnits="userSpaceOnUse">
      <feOffset dy="3" input="SourceAlpha"/>
      <feGaussianBlur stdDeviation="3" result="blur"/>
      <feFlood flood-opacity="0.161"/>
      <feComposite operator="in" in2="blur"/>
      <feComposite in="SourceGraphic"/>
    </filter>
  </defs>
  <g id="Grupo_1143294" data-name="Grupo 1143294" transform="translate(-629.051 -5602)">
    <g transform="matrix(1, 0, 0, 1, 629.05, 5602)" filter="url(#Elipse_14851)">
      <g id="Elipse_14851-2" data-name="Elipse 14851" transform="translate(9 6)" fill="#97d8f6" stroke="#fff" stroke-width="3">
        <circle cx="39" cy="39" r="39" stroke="none"/>
        <circle cx="39" cy="39" r="37.5" fill="none"/>
      </g>
    </g>
    <g id="discapacitado" transform="translate(658.551 5619)">
      <path id="Trazado_905133" data-name="Trazado 905133" d="M178.168,300.059l6.022,1.049a2.733,2.733,0,0,1,2.072,1.685l3.579,9.039a2.732,2.732,0,1,1-5.079,2.011l-3.016-7.615h-6.434" transform="translate(-155.974 -267.723)" fill="#34abe0"/>
      <path id="Trazado_905134" data-name="Trazado 905134" d="M241.259,366.557a2.658,2.658,0,0,1-.687.09,2.732,2.732,0,0,1-2.54-1.726l-3.016-7.615a2.03,2.03,0,0,1,1.888,1.283l2.508,6.332A2.727,2.727,0,0,0,241.259,366.557Zm0,0" transform="translate(-209.243 -318.8)" fill="#1895b7"/>
      <path id="Trazado_905135" data-name="Trazado 905135" d="M67.68,197.423v-4.248a7.557,7.557,0,0,1,15.115,0v5.418" transform="translate(-59.94 -165.614)" fill="#f75772"/>
      <path id="Trazado_905136" data-name="Trazado 905136" d="M76.963,185.815a7.562,7.562,0,0,0-5.832,7.36v4.516l-3.451-.268v-4.248a7.567,7.567,0,0,1,9.284-7.36Zm0,0" transform="translate(-59.94 -165.614)" fill="#e0244c"/>
      <path id="Trazado_905137" data-name="Trazado 905137" d="M80.393,34.762A7.485,7.485,0,1,1,68.355,40.7V35.383L73.2,31.59Zm0,0" transform="translate(-60.543 -28.186)" fill="#ffc48f"/>
      <path id="Trazado_905138" data-name="Trazado 905138" d="M77.511,48a7.493,7.493,0,0,1-9.156-7.3V35.384L73.2,31.59l2.139.943L71.7,35.384V40.7A7.488,7.488,0,0,0,77.511,48Zm0,0" transform="translate(-60.543 -28.186)" fill="#e59a5c"/>
      <path id="Trazado_905139" data-name="Trazado 905139" d="M33.012,285.731a12.453,12.453,0,1,1-12.453-12.453A12.453,12.453,0,0,1,33.012,285.731Zm0,0" transform="translate(-6.786 -243.828)" fill="#3b3d4c"/>
      <path id="Trazado_905140" data-name="Trazado 905140" d="M56,311.87a9.3,9.3,0,1,1-9.3-9.3A9.3,9.3,0,0,1,56,311.87Zm0,0" transform="translate(-32.929 -269.967)" fill="#e6e6e6"/>
      <path id="Trazado_905141" data-name="Trazado 905141" d="M68.355,13.98V19.3a3.815,3.815,0,0,0,3.815-3.815V13.56h6.685A5.958,5.958,0,0,0,84.814,7.6H74.734A6.378,6.378,0,0,0,68.355,13.98Zm0,0" transform="translate(-60.543 -6.782)" fill="#5c5e70"/>
      <path id="Trazado_905142" data-name="Trazado 905142" d="M78.886,7.6a6.378,6.378,0,0,0-6.364,5.959h-.351v1.925A3.817,3.817,0,0,1,68.355,19.3V13.98A6.379,6.379,0,0,1,74.734,7.6Zm0,0" transform="translate(-60.543 -6.782)" fill="#3b3d4c"/>
      <path id="Trazado_905143" data-name="Trazado 905143" d="M73.142,255.743v5.627l2.852,2.851a2.732,2.732,0,0,1-3.863,3.863l-3.651-3.652a2.73,2.73,0,0,1-.8-1.931v-6.758" transform="translate(-59.94 -228.182)" fill="#ffc48f"/>
      <path id="Trazado_905144" data-name="Trazado 905144" d="M75.427,268.522a2.734,2.734,0,0,1-3.3-.435l-3.651-3.652a2.73,2.73,0,0,1-.8-1.931v-6.758h2.729V262.5a2.731,2.731,0,0,0,.8,1.931l3.651,3.652A2.733,2.733,0,0,0,75.427,268.522Zm0,0" transform="translate(-59.94 -228.186)" fill="#e59a5c"/>
      <path id="Trazado_905145" data-name="Trazado 905145" d="M240.4,447.243a3.255,3.255,0,1,1-3.255-3.255A3.255,3.255,0,0,1,240.4,447.243Zm0,0" transform="translate(-208.236 -396.142)" fill="#3b3d4c"/>
      <path id="Trazado_905146" data-name="Trazado 905146" d="M142.827,84.3a.819.819,0,0,0,.82-.819V81.734a.819.819,0,1,0-1.639,0v1.744A.819.819,0,0,0,142.827,84.3Zm0,0" transform="translate(-126.258 -72.194)"/>
      <path id="Trazado_905147" data-name="Trazado 905147" d="M171.147,84.3a.819.819,0,0,0,.82-.819V81.734a.819.819,0,1,0-1.639,0v1.744A.819.819,0,0,0,171.147,84.3Zm0,0" transform="translate(-151.527 -72.194)"/>
      <path id="Trazado_905148" data-name="Trazado 905148" d="M35.8,47.027H34.32a3.6,3.6,0,0,0,.267-.5,3.531,3.531,0,0,0,.043-2.718l-3.579-9.04a3.576,3.576,0,0,0-2.693-2.19l-4.684-.815v-4.2a8.346,8.346,0,0,0-1.316-4.508.819.819,0,0,0-1.38.884,6.707,6.707,0,0,1,1.057,3.625v3.962a13.207,13.207,0,0,0-8.013-2.89V25.64a.82.82,0,1,0-1.639,0v1.1H8.611A6.738,6.738,0,0,1,18.923,21.88a.82.82,0,0,0,.883-1.381,8.389,8.389,0,0,0-.9-.5A8.3,8.3,0,0,0,21.379,6.862,6.784,6.784,0,0,0,25.091.82.819.819,0,0,0,24.271,0H14.19a7.206,7.206,0,0,0-7.2,7.2v5.321A8.315,8.315,0,0,0,11.694,20,8.387,8.387,0,0,0,6.92,27.561v2.974A13.272,13.272,0,1,0,25.189,48.666h.453a4.074,4.074,0,1,0,6.529,0H35.8a.82.82,0,0,0,0-1.639ZM8.632,7.2a5.565,5.565,0,0,1,5.559-5.559h9.2a5.148,5.148,0,0,1-5.074,4.32H11.628a.819.819,0,0,0-.82.819V8.7a3,3,0,0,1-2.176,2.881Zm.042,6.059A4.642,4.642,0,0,0,12.447,8.7V7.6h5.866a6.769,6.769,0,0,0,1.331-.132A6.665,6.665,0,1,1,8.674,13.257ZM29.526,35.371l3.579,9.039a1.912,1.912,0,1,1-3.555,1.408s-3.232-8.258-3.32-8.5a13.269,13.269,0,0,0-2.2-3.836l4.048.705A1.925,1.925,0,0,1,29.526,35.371Zm-16.9-1.605,2.851,2.852a1.912,1.912,0,0,1-2.7,2.7L9.119,35.671a1.9,1.9,0,0,1-.56-1.352V28.38h3.824v4.807A.82.82,0,0,0,12.623,33.766Zm1.15,19.77A11.633,11.633,0,0,1,6.92,32.5v1.816c0,.048,0,.1,0,.143A10.112,10.112,0,0,0,5.6,47.86a.819.819,0,1,0,1.323-.967,8.474,8.474,0,0,1,.555-10.665,3.571,3.571,0,0,0,.483.6l3.651,3.652a3.551,3.551,0,1,0,5.022-5.022l-1.987-1.988A8.477,8.477,0,1,1,9.081,48.963a.819.819,0,0,0-.909,1.363,10.115,10.115,0,1,0,5.85-18.536V30.272a11.634,11.634,0,0,1-.249,23.265ZM26.93,43.653l1.1,2.769a3.579,3.579,0,0,0,.311.6H26.016A13.154,13.154,0,0,0,26.93,43.653Zm1.976,9.884A2.435,2.435,0,1,1,31.341,51.1,2.439,2.439,0,0,1,28.906,53.537Zm0,0"/>
      <path id="Trazado_905149" data-name="Trazado 905149" d="M257.365,466.586a.819.819,0,1,0,.8.651A.826.826,0,0,0,257.365,466.586Zm0,0" transform="translate(-228.46 -416.304)"/>
    </g>
  </g>
</svg>
