<svg xmlns="http://www.w3.org/2000/svg" xmlns:xlink="http://www.w3.org/1999/xlink" width="96" height="96" viewBox="0 0 96 96">
  <defs>
    <filter id="Elipse_14850" x="0" y="0" width="96" height="96" filterUnits="userSpaceOnUse">
      <feOffset dy="3" input="SourceAlpha"/>
      <feGaussianBlur stdDeviation="3" result="blur"/>
      <feFlood flood-opacity="0.161"/>
      <feComposite operator="in" in2="blur"/>
      <feComposite in="SourceGraphic"/>
    </filter>
  </defs>
  <g id="Grupo_1143297" data-name="Grupo 1143297" transform="translate(-629.051 -5722)">
    <g transform="matrix(1, 0, 0, 1, 629.05, 5722)" filter="url(#Elipse_14850)">
      <g id="Elipse_14850-2" data-name="Elipse 14850" transform="translate(9 6)" fill="#97d8f6" stroke="#fff" stroke-width="3">
        <circle cx="39" cy="39" r="39" stroke="none"/>
        <circle cx="39" cy="39" r="37.5" fill="none"/>
      </g>
    </g>
    <g id="corredor" transform="translate(651.051 5741)">
      <g id="Grupo_1143295" data-name="Grupo 1143295" transform="translate(0 0.752)">
        <path id="Trazado_905150" data-name="Trazado 905150" d="M.5,465.49H50.83a.5.5,0,0,1,.5.5v3.66a.5.5,0,0,1-.5.5H.5a.5.5,0,0,1-.5-.5v-3.66A.5.5,0,0,1,.5,465.49Z" transform="translate(0 -419.573)" fill="#fd8087"/>
        <path id="Trazado_905151" data-name="Trazado 905151" d="M312.285,344.789h-1.263a1.135,1.135,0,0,1-1.135-1.135v-3.96l3.533-.422v4.383A1.135,1.135,0,0,1,312.285,344.789Z" transform="translate(-278.819 -306.009)" fill="#b6e9ff"/>
        <path id="Trazado_905152" data-name="Trazado 905152" d="M283.947,40.123h0a4.873,4.873,0,0,0-.494-2.4h0a1.252,1.252,0,0,1,.027-1.158l.3-.535a.515.515,0,0,1,.673-.216l1.122.536a1.431,1.431,0,0,0,2.068-.857l.332-1.157a.269.269,0,0,1,.334-.181.786.786,0,0,0,.948-1.033l-.381-1.015a.913.913,0,0,1-.023-.573l.248-.864a3.476,3.476,0,0,0-2.381-4.3h0a3.476,3.476,0,0,0-4.3,2.381l-.338,1.175-1.117,1.388a4.346,4.346,0,0,1-.184,1.172l-.271.787a4.148,4.148,0,0,1-2.018,2.334l-.679.328,3.284,4.172a1.823,1.823,0,0,0,2.854.015Z" transform="translate(-249.958 -24.357)" fill="#f2ac7c"/>
        <path id="Trazado_905153" data-name="Trazado 905153" d="M300.137,187.817l1.458.92.763,1.143.757.7a1.4,1.4,0,0,0,1.156.371l8.017-1.127a1.058,1.058,0,0,1,.386.023l.9.224a3.433,3.433,0,0,0,2.831-.541l.056-.04a1.839,1.839,0,0,0,.7-2.029l-.023-.076a1.823,1.823,0,0,0-1.5-1.281l-.04-.005a5.074,5.074,0,0,0-2.844.444l-.521.247a1.058,1.058,0,0,1-.442.1l-6.387.065a.5.5,0,0,1-.487-.362l-.265-.929-.756-1.431-.269-2.166Z" transform="translate(-270.046 -164.568)" fill="#f2ac7c"/>
        <path id="Trazado_905154" data-name="Trazado 905154" d="M304.647,185.667l-2.286,4.212-2.221-2.062,3.482-5.747Z" transform="translate(-270.049 -164.568)" fill="#e89d6b"/>
        <path id="Trazado_905155" data-name="Trazado 905155" d="M227.227,122.831a19.051,19.051,0,0,1-1.1,2.793l-3.486,5.993-6.412-3.331-.143-2.231,1.111-3.491-.984.112-.838-3.9,4.717-1.109a3.184,3.184,0,0,1,3.784,2.015,5.522,5.522,0,0,0,1.249,2l.079.081a2.349,2.349,0,0,0,1.252.669A1.045,1.045,0,0,0,227.227,122.831Z" transform="translate(-193.778 -106.535)" fill="#89efb7"/>
        <path id="Trazado_905156" data-name="Trazado 905156" d="M228.865,164.75a8.021,8.021,0,0,1-.96,3.418l-3.416,6.292-4.751-.766-3.149-3.337.589-1.851,5.7,2.961a1.025,1.025,0,0,0,1.373-.421l2.936-5.408a7.7,7.7,0,0,0,.361-.758,2.321,2.321,0,0,0,.433.04A2.366,2.366,0,0,0,228.865,164.75Z" transform="translate(-194.875 -148.985)" fill="#42e8b4"/>
        <path id="Trazado_905157" data-name="Trazado 905157" d="M103.821,287.944l-1.377,1.232L102,290.531l-1.894,2.684a3.441,3.441,0,0,1-1.594,1.246L91.6,297.045l-2.328-1.085-.091-2.465,2.148-1.674a11.912,11.912,0,0,1,3.972-2.08l.871.22,1.184-.679.952-2.144.922-1.243.868-2.79Z" transform="translate(-80.239 -255.474)" fill="#626272"/>
        <path id="Trazado_905158" data-name="Trazado 905158" d="M185.717,287.94l-1.825,2.586a8.476,8.476,0,0,1-2.5-1.8,8.363,8.363,0,0,1-1.195-1.594l1.79-4.034Z" transform="translate(-162.135 -255.469)" fill="#565668"/>
        <path id="Trazado_905159" data-name="Trazado 905159" d="M286.454,305.988a2.967,2.967,0,0,1-3.963,2.79l-2.581-.922v-3.17l3.076-2.406,1.956,1.123A2.964,2.964,0,0,1,286.454,305.988Z" transform="translate(-251.847 -272.726)" fill="#f2ac7c"/>
        <path id="Trazado_905160" data-name="Trazado 905160" d="M203.438,228.861l-3.076,5.576-4.662-1.665a6.5,6.5,0,0,1-3.965-4.332,6.152,6.152,0,0,1,.587-4.764c.2-.336,1.679-2.974,1.692-3l7.9,4.1-1.252,2.484Z" transform="translate(-172.299 -199.307)" fill="#73737f"/>
        <path id="Trazado_905161" data-name="Trazado 905161" d="M70.339,390.287l-3.478,1.286-1.309-2.8,2.369-2.038Z" transform="translate(-58.98 -348.716)" fill="#f2ac7c"/>
        <path id="Trazado_905162" data-name="Trazado 905162" d="M43.89,409.588l-2.047-2.522-2.183,1.772a1.286,1.286,0,0,0-.16,1.812l3.106,3.826a1.286,1.286,0,0,0,1.806.216l.032-.026a2.814,2.814,0,0,0,.35-3.963Z" transform="translate(-35.271 -367.007)" fill="#f8feff"/>
        <path id="Trazado_905163" data-name="Trazado 905163" d="M133.394,133.511l-.685.078a1.349,1.349,0,0,0-.96.6l-3.883,6.334a1.042,1.042,0,0,0-.146.412l-.069.55a4.894,4.894,0,0,1-1.116,2.542,1.817,1.817,0,0,1-3.2-1.073,3.406,3.406,0,0,1,1.059-2.661l.612-.578a1.016,1.016,0,0,0,.219-.3l4-8.216a2.1,2.1,0,0,1,1.379-1.133l1.953-.459Z" transform="translate(-110.964 -117.368)" fill="#f2ac7c"/>
        <path id="Trazado_905164" data-name="Trazado 905164" d="M294.7,9.678l-.735,1.269a2.993,2.993,0,0,0,.93,3.99h0a.988.988,0,0,0,1.508-.586l.128-.521a1.277,1.277,0,0,1,1.592-.922h0a2.6,2.6,0,0,0,1.835-.154l1.352-.648a.4.4,0,0,1,.39.024l1.526.979a.8.8,0,0,0,1.205-.454l.015-.053a3.422,3.422,0,0,0-2.413-4.257c-.781-.207-1.554-.441-2.329-.668A4.364,4.364,0,0,0,294.7,9.678Z" transform="translate(-264.133 -7.5)" fill="#73737f"/>
      </g>
      <g id="Grupo_1143296" data-name="Grupo 1143296" transform="translate(0)">
        <path id="Línea_647" data-name="Línea 647" d="M33-6H-6.748A.752.752,0,0,1-7.5-6.748.752.752,0,0,1-6.748-7.5H33a.752.752,0,0,1,.752.752A.752.752,0,0,1,33-6Z" transform="translate(17.582 53.417)"/>
        <path id="Línea_648" data-name="Línea 648" d="M-1.171-6H-6.748A.752.752,0,0,1-7.5-6.748.752.752,0,0,1-6.748-7.5h5.577a.752.752,0,0,1,.752.752A.752.752,0,0,1-1.171-6Z" transform="translate(7.5 53.417)"/>
        <path id="Trazado_905165" data-name="Trazado 905165" d="M291.218,401.973h-.838a5.05,5.05,0,0,1-2.554-9.406l.925-.542v-1.559a.752.752,0,0,1,1.5,0v1.99a.752.752,0,0,1-.372.649l-1.3.76a3.546,3.546,0,0,0,1.794,6.605h.838a.752.752,0,0,1,0,1.5Z" transform="translate(-256.721 -350.642)"/>
        <path id="Trazado_905166" data-name="Trazado 905166" d="M305.941,340.79h-1.263a1.889,1.889,0,0,1-1.887-1.887v-1.316a.752.752,0,1,1,1.5,0V338.9a.384.384,0,0,0,.383.383h1.263a.384.384,0,0,0,.383-.383v-4.212a.752.752,0,1,1,1.5,0V338.9A1.889,1.889,0,0,1,305.941,340.79Z" transform="translate(-272.434 -300.459)"/>
        <path id="Trazado_905167" data-name="Trazado 905167" d="M197.622,183.386a3.72,3.72,0,0,1-1.254-.218l-7.243-2.588a7.108,7.108,0,0,1-4.433-4.731,6.986,6.986,0,0,1,.663-5.382l1.727-2.993,1.628-5.117a.752.752,0,0,1,1.433.456l-1.652,5.194a.753.753,0,0,1-.065.148l-1.767,3.063a5.474,5.474,0,0,0-.519,4.217,5.6,5.6,0,0,0,3.493,3.728l7.243,2.588a2.213,2.213,0,0,0,1.83-4.013l-6.62-3.724a.752.752,0,1,1,.737-1.311l6.62,3.724a3.718,3.718,0,0,1-1.819,6.958Z" transform="translate(-165.937 -145.608)"/>
        <path id="Trazado_905168" data-name="Trazado 905168" d="M170.309,341.376a.752.752,0,0,1-.263-1.457l.55-.2a2.7,2.7,0,0,0,1.252-.981l3.11-4.472a.752.752,0,0,1,1.235.859l-3.111,4.473a4.2,4.2,0,0,1-1.955,1.528l-.556.207A.751.751,0,0,1,170.309,341.376Z" transform="translate(-152.558 -300.46)"/>
        <path id="Línea_649" data-name="Línea 649" d="M-6.75-4.065a.752.752,0,0,1-.7-.49.752.752,0,0,1,.442-.967l5.188-1.933a.752.752,0,0,1,.967.442.752.752,0,0,1-.442.967L-6.487-4.112A.75.75,0,0,1-6.75-4.065Z" transform="translate(16.025 48.139)"/>
        <path id="Línea_650" data-name="Línea 650" d="M.934-1.986a.749.749,0,0,1-.347-.086L-7.1-6.083A.752.752,0,0,1-7.416-7.1.752.752,0,0,1-6.4-7.416L1.282-3.4A.752.752,0,0,1,1.6-2.39.752.752,0,0,1,.934-1.986Z" transform="translate(28.691 28.976)"/>
        <path id="Trazado_905169" data-name="Trazado 905169" d="M39.748,310.232a2.053,2.053,0,0,1-1.6-.764l-3.222-3.978A2.066,2.066,0,0,1,34.47,304a1.984,1.984,0,0,1,.729-1.379l2.182-1.771,4.228-3.361a12.812,12.812,0,0,1,5.558-2.547.879.879,0,0,0,.639-.507l1.844-4.153a.752.752,0,0,1,1.375.61l-1.844,4.153a2.383,2.383,0,0,1-1.733,1.374,11.3,11.3,0,0,0-4.9,2.247l-3.628,2.884,2.59,3.2a3.631,3.631,0,0,1,.808,2.618,3.455,3.455,0,0,1-1.268,2.4A2.053,2.053,0,0,1,39.748,310.232Zm-2-7.741-1.6,1.3a.493.493,0,0,0-.179.343.57.57,0,0,0,.129.41l3.222,3.978a.535.535,0,0,0,.748.105,1.988,1.988,0,0,0,.75-1.392,2.135,2.135,0,0,0-.478-1.539Z" transform="translate(-31.007 -260.776)"/>
        <path id="Trazado_905170" data-name="Trazado 905170" d="M279.269,82.822a.752.752,0,0,1-.346-1.42,3.4,3.4,0,0,0,1.659-1.918l.272-.789c.027-.081.052-.169.074-.257a.752.752,0,1,1,1.462.351q-.047.2-.112.391l-.274.794a4.892,4.892,0,0,1-2.39,2.765A.749.749,0,0,1,279.269,82.822Z" transform="translate(-250.593 -70.055)"/>
        <path id="Trazado_905171" data-name="Trazado 905171" d="M328.294,70.384h-.039a.752.752,0,0,1-.713-.789,4.146,4.146,0,0,0-.42-2.035,2.009,2.009,0,0,1,.044-1.857l.3-.537a1.27,1.27,0,0,1,1.657-.531l1.126.538a.711.711,0,0,0,.632.054.681.681,0,0,0,.4-.443l.334-1.161a1.025,1.025,0,0,1,1.262-.7l-.339-1.067a1.679,1.679,0,0,1-.042-1.047l.249-.867a2.78,2.78,0,0,0,.07-.312.752.752,0,0,1,1.483.247,4.272,4.272,0,0,1-.109.481l-.249.867a.165.165,0,0,0,0,.1l.382,1.018a1.542,1.542,0,0,1-1.38,2.082l-.221.769a2.188,2.188,0,0,1-3.161,1.311l-.886-.422-.189.343a.5.5,0,0,0-.011.466,5.654,5.654,0,0,1,.572,2.775A.752.752,0,0,1,328.294,70.384Z" transform="translate(-294.14 -53.087)"/>
        <path id="Trazado_905172" data-name="Trazado 905172" d="M291.749,0a5.148,5.148,0,0,1,1.411.2l2.421.694a4.174,4.174,0,0,1,2.86,5.168A1.581,1.581,0,0,1,296.93,7.24a1.549,1.549,0,0,1-.838-.247l-1.361-.873-1.176.563a3.384,3.384,0,0,1-2.367.2.524.524,0,0,0-.655.379l-.128.521a1.739,1.739,0,0,1-2.655,1.031,3.752,3.752,0,0,1-1.163-4.992l.735-1.269A5.131,5.131,0,0,1,291.749,0ZM296.9,5.728,297,5.645a2.67,2.67,0,0,0-1.829-3.307l-2.422-.694a3.609,3.609,0,0,0-4.122,1.662l-.735,1.269a2.245,2.245,0,0,0,.7,2.987.23.23,0,0,0,.129.04.236.236,0,0,0,.232-.181l.128-.521A2.028,2.028,0,0,1,291.6,5.437a1.863,1.863,0,0,0,1.3-.11l1.554-.744a.752.752,0,0,1,.731.045Z" transform="translate(-257.403)"/>
        <path id="Línea_651" data-name="Línea 651" d="M-4.656-3.13a.751.751,0,0,1-.608-.309L-7.356-6.305a.752.752,0,0,1,.164-1.051.752.752,0,0,1,1.051.164l2.092,2.866a.752.752,0,0,1-.164,1.051A.749.749,0,0,1-4.656-3.13Z" transform="translate(16.089 45.972)"/>
        <path id="Trazado_905173" data-name="Trazado 905173" d="M119.3,170.551a2.573,2.573,0,0,1-2.568-2.432,4.161,4.161,0,0,1,1.3-3.258l.613-.581.061-.086,1.037-2.129a.752.752,0,0,1,1.352.659l-1.037,2.129a1.757,1.757,0,0,1-.379.519l-.613.581a2.66,2.66,0,0,0-.828,2.083,1.071,1.071,0,0,0,1.887.632,4.14,4.14,0,0,0,.948-2.158l.07-.553a1.787,1.787,0,0,1,.255-.716l3.893-6.352a2.108,2.108,0,0,1,1.51-.959l4.069-.466a.752.752,0,1,1,.171,1.494l-4.06.465a.594.594,0,0,0-.418.267l-3.886,6.341a.28.28,0,0,0-.042.114l-.07.552a5.641,5.641,0,0,1-1.291,2.941A2.581,2.581,0,0,1,119.3,170.551Z" transform="translate(-105.025 -141.673)"/>
        <path id="Trazado_905174" data-name="Trazado 905174" d="M173.79,128.305a.752.752,0,0,1-.66-1.111l4.595-8.468a7.334,7.334,0,0,0,.759-2.145,3.1,3.1,0,0,1-2.249-.939l-.08-.082a6.244,6.244,0,0,1-1.423-2.277,2.434,2.434,0,0,0-2.9-1.546l-6.705,1.576a1.346,1.346,0,0,0-.877.728L162.8,117a.752.752,0,1,1-1.352-.659l1.439-2.955a2.848,2.848,0,0,1,1.874-1.536l6.706-1.576a3.928,3.928,0,0,1,4.676,2.5,4.75,4.75,0,0,0,1.083,1.733l.08.082a1.6,1.6,0,0,0,1.756.367.752.752,0,0,1,1.033.735,8.848,8.848,0,0,1-1.053,3.751l-4.595,8.468A.752.752,0,0,1,173.79,128.305Z" transform="translate(-145.196 -99.11)"/>
        <path id="Trazado_905175" data-name="Trazado 905175" d="M340.089,191.031a4.151,4.151,0,0,1-1.007-.124l-.9-.224a.305.305,0,0,0-.112-.007l-1.44.2a.752.752,0,0,1-.209-1.489l1.452-.2a1.819,1.819,0,0,1,.673.038l.9.224a2.678,2.678,0,0,0,2.212-.422,1.12,1.12,0,0,0,.474-1.242,1.107,1.107,0,0,0-.907-.829,4.349,4.349,0,0,0-2.464.373l-.521.247a1.82,1.82,0,0,1-.756.174l-6.39.065a1.257,1.257,0,0,1-1.217-.906l-1.081-3.748a.752.752,0,1,1,1.445-.417l1.028,3.565,6.2-.063a.307.307,0,0,0,.128-.029l.521-.247a5.814,5.814,0,0,1,3.266-.51,2.6,2.6,0,0,1,2.165,1.815,2.624,2.624,0,0,1-.958,2.934A4.282,4.282,0,0,1,340.089,191.031Z" transform="translate(-295.806 -163.931)"/>
        <path id="Trazado_905176" data-name="Trazado 905176" d="M305.4,244.2a2.135,2.135,0,0,1-1.477-.592l-2-1.9a.752.752,0,1,1,1.036-1.09l2,1.9a.641.641,0,0,0,.534.172l3.093-.435a.752.752,0,1,1,.209,1.489l-3.093.435A2.179,2.179,0,0,1,305.4,244.2Z" transform="translate(-271.444 -216.312)"/>
        <path id="Línea_652" data-name="Línea 652" d="M-6.75-1.352a.749.749,0,0,1-.362-.094.752.752,0,0,1-.3-1.022l2.562-4.645a.752.752,0,0,1,1.022-.3.752.752,0,0,1,.3,1.022L-6.091-1.741A.752.752,0,0,1-6.75-1.352Z" transform="translate(35.079 37.623)"/>
        <path id="Línea_653" data-name="Línea 653" d="M-5.982-2.422a.752.752,0,0,1-.734-.594l-.768-3.575a.752.752,0,0,1,.577-.893.752.752,0,0,1,.893.577l.768,3.575a.752.752,0,0,1-.577.893A.755.755,0,0,1-5.982-2.422Z" transform="translate(28.397 20.003)"/>
      </g>
    </g>
  </g>
</svg>
