<svg xmlns="http://www.w3.org/2000/svg" xmlns:xlink="http://www.w3.org/1999/xlink" width="138" height="138" viewBox="0 0 138 138">
  <defs>
    <filter id="Elipse_14842" x="0" y="0" width="138" height="138" filterUnits="userSpaceOnUse">
      <feOffset dy="3" input="SourceAlpha"/>
      <feGaussianBlur stdDeviation="3" result="blur"/>
      <feFlood flood-opacity="0.161"/>
      <feComposite operator="in" in2="blur"/>
      <feComposite in="SourceGraphic"/>
    </filter>
  </defs>
  <g id="Grupo_1143103" data-name="Grupo 1143103" transform="translate(-707.051 -505)">
    <g id="Grupo_1143099" data-name="Grupo 1143099" transform="translate(183.969 70.469)">
      <g transform="matrix(1, 0, 0, 1, 523.08, 434.53)" filter="url(#Elipse_14842)">
        <g id="Elipse_14842-2" data-name="Elipse 14842" transform="translate(9 6)" fill="#f6d530" stroke="#fff" stroke-width="3">
          <circle cx="60" cy="60" r="60" stroke="none"/>
          <circle cx="60" cy="60" r="58.5" fill="none"/>
        </g>
      </g>
    </g>
    <g id="Grupo_1143101" data-name="Grupo 1143101" transform="translate(20 155)">
      <g id="Grupo_1143096" data-name="Grupo 1143096" transform="translate(719.703 379.652)">
        <g id="Grupo_1143086" data-name="Grupo 1143086" transform="translate(0 7.383)">
          <g id="Grupo_1143066" data-name="Grupo 1143066" transform="translate(2.797 22.126)">
            <path id="Trazado_904716" data-name="Trazado 904716" d="M43.9,223.331H26.935v-7.354a4.112,4.112,0,0,1,4.112-4.112h8.737a4.112,4.112,0,0,1,4.112,4.112v7.354Z" transform="translate(-26.935 -211.865)" fill="#fff6e0"/>
            <path id="Trazado_904717" data-name="Trazado 904717" d="M384.751,223.331H367.79v-7.354a4.112,4.112,0,0,1,4.112-4.112h8.737a4.112,4.112,0,0,1,4.112,4.112v7.354Z" transform="translate(-318.555 -211.865)" fill="#fff6e0"/>
          </g>
          <g id="Grupo_1143074" data-name="Grupo 1143074" transform="translate(7.591)">
            <g id="Grupo_1143069" data-name="Grupo 1143069" transform="translate(0 1.537)">
              <g id="Grupo_1143068" data-name="Grupo 1143068">
                <g id="Grupo_1143067" data-name="Grupo 1143067">
                  <path id="Trazado_904718" data-name="Trazado 904718" d="M78.048,176.311H60.125v-6.765a6.833,6.833,0,0,1,6.833-6.833h4.256a6.833,6.833,0,0,1,6.833,6.833Z" transform="translate(-60.125 -149.223)" fill="#8affb3"/>
                  <path id="Trazado_904719" data-name="Trazado 904719" d="M89.374,85.1h-.012a5.531,5.531,0,0,1-5.531-5.531v-4.7a5.531,5.531,0,0,1,5.531-5.531h.012a5.531,5.531,0,0,1,5.531,5.531v4.7A5.531,5.531,0,0,1,89.374,85.1Z" transform="translate(-80.407 -69.329)" fill="#ffcab9"/>
                  <path id="Trazado_904720" data-name="Trazado 904720" d="M105.06,69.329h-.012a5.5,5.5,0,0,0-2.883.81,5.527,5.527,0,0,1,2.648,4.721v4.7a5.527,5.527,0,0,1-2.648,4.721,5.5,5.5,0,0,0,2.883.81h.012a5.531,5.531,0,0,0,5.531-5.531v-4.7a5.531,5.531,0,0,0-5.531-5.531Z" transform="translate(-96.093 -69.329)" fill="#fabba7"/>
                </g>
              </g>
              <path id="Trazado_904721" data-name="Trazado 904721" d="M83.831,77.212v-2.34a5.537,5.537,0,1,1,11.074,0Z" transform="translate(-80.407 -69.329)" fill="#828cb3"/>
              <path id="Trazado_904722" data-name="Trazado 904722" d="M104.813,74.872v1.221l5.778-1.221a5.536,5.536,0,0,0-8.426-4.729A5.54,5.54,0,0,1,104.813,74.872Z" transform="translate(-96.093 -69.329)" fill="#717eb3"/>
            </g>
            <g id="Grupo_1143073" data-name="Grupo 1143073" transform="translate(38.685)">
              <path id="Trazado_904723" data-name="Trazado 904723" d="M413.682,77.665a3.388,3.388,0,0,1-3.388-3.388v-12.2a3.388,3.388,0,1,1,6.776,0v12.2A3.388,3.388,0,0,1,413.682,77.665Z" transform="translate(-398.398 -58.686)" fill="#828cb3"/>
              <g id="Grupo_1143072" data-name="Grupo 1143072" transform="translate(0 1.537)">
                <g id="Grupo_1143071" data-name="Grupo 1143071" transform="translate(0 5.531)">
                  <g id="Grupo_1143070" data-name="Grupo 1143070">
                    <path id="Trazado_904724" data-name="Trazado 904724" d="M345.864,176.311H327.941v-6.765a6.833,6.833,0,0,1,6.833-6.833h4.256a6.833,6.833,0,0,1,6.833,6.833v6.765Z" transform="translate(-327.941 -154.754)" fill="#ffea00"/>
                    <path id="Trazado_904725" data-name="Trazado 904725" d="M362.722,107.621v4.7a5.531,5.531,0,0,1-5.531,5.531h-.012a5.531,5.531,0,0,1-5.531-5.531v-4.7Z" transform="translate(-348.224 -107.621)" fill="#ffcab9"/>
                    <path id="Trazado_904726" data-name="Trazado 904726" d="M372.63,107.62v4.7a5.527,5.527,0,0,1-2.648,4.721,5.5,5.5,0,0,0,2.883.81h.012a5.531,5.531,0,0,0,5.531-5.531v-4.7H372.63Z" transform="translate(-363.909 -107.62)" fill="#fabba7"/>
                  </g>
                </g>
                <path id="Trazado_904727" data-name="Trazado 904727" d="M351.648,77.212v-2.34a5.537,5.537,0,1,1,11.074,0Z" transform="translate(-348.224 -69.329)" fill="#828cb3"/>
                <path id="Trazado_904728" data-name="Trazado 904728" d="M372.63,74.872v1.221l5.778-1.221a5.536,5.536,0,0,0-8.426-4.729A5.54,5.54,0,0,1,372.63,74.872Z" transform="translate(-363.909 -69.329)" fill="#717eb3"/>
              </g>
            </g>
          </g>
          <ellipse id="Elipse_14936" data-name="Elipse 14936" cx="35.895" cy="15.532" rx="35.895" ry="15.532" transform="translate(0 22.795)" fill="#cc8b66"/>
          <g id="Grupo_1143085" data-name="Grupo 1143085" transform="translate(2.797 31.269)">
            <g id="Grupo_1143081" data-name="Grupo 1143081" transform="translate(4.794)">
              <g id="Grupo_1143077" data-name="Grupo 1143077">
                <g id="Grupo_1143076" data-name="Grupo 1143076">
                  <g id="Grupo_1143075" data-name="Grupo 1143075">
                    <path id="Trazado_904729" data-name="Trazado 904729" d="M78.048,381.569,60.125,388.2V375.382a6.833,6.833,0,0,1,6.833-6.833h4.256a6.833,6.833,0,0,1,6.833,6.833Z" transform="translate(-60.125 -355.06)" fill="#ff59ac"/>
                    <path id="Trazado_904730" data-name="Trazado 904730" d="M89.374,297.692h-.012a5.531,5.531,0,0,1-5.531-5.531V280.7a5.531,5.531,0,0,1,5.531-5.531h.012a5.531,5.531,0,0,1,5.531,5.531v11.464A5.531,5.531,0,0,1,89.374,297.692Z" transform="translate(-80.407 -275.166)" fill="#828cb3"/>
                    <path id="Trazado_904731" data-name="Trazado 904731" d="M105.06,275.167h-.012a5.5,5.5,0,0,0-2.883.81,5.527,5.527,0,0,1,2.648,4.721v11.464a5.527,5.527,0,0,1-2.648,4.721,5.5,5.5,0,0,0,2.883.81h.012a5.531,5.531,0,0,0,5.531-5.531V280.7A5.531,5.531,0,0,0,105.06,275.167Z" transform="translate(-96.093 -275.167)" fill="#717eb3"/>
                  </g>
                </g>
              </g>
              <g id="Grupo_1143080" data-name="Grupo 1143080" transform="translate(38.685)">
                <g id="Grupo_1143079" data-name="Grupo 1143079">
                  <g id="Grupo_1143078" data-name="Grupo 1143078">
                    <path id="Trazado_904732" data-name="Trazado 904732" d="M345.865,375.383a6.833,6.833,0,0,0-6.833-6.833h-4.256a6.833,6.833,0,0,0-6.833,6.833v8.555h17.923Z" transform="translate(-327.942 -355.061)" fill="#87dbff"/>
                    <path id="Trazado_904733" data-name="Trazado 904733" d="M357.191,290.932h-.012a5.531,5.531,0,0,1-5.531-5.531v-4.7a5.531,5.531,0,0,1,5.531-5.531h.012a5.531,5.531,0,0,1,5.531,5.531v4.7A5.531,5.531,0,0,1,357.191,290.932Z" transform="translate(-348.224 -275.166)" fill="#828cb3"/>
                    <path id="Trazado_904734" data-name="Trazado 904734" d="M372.877,275.167h-.012a5.5,5.5,0,0,0-2.883.81,5.527,5.527,0,0,1,2.648,4.721v4.7a5.527,5.527,0,0,1-2.648,4.721,5.5,5.5,0,0,0,2.883.81h.012a5.531,5.531,0,0,0,5.531-5.531v-4.7A5.531,5.531,0,0,0,372.877,275.167Z" transform="translate(-363.91 -275.167)" fill="#717eb3"/>
                  </g>
                </g>
              </g>
            </g>
            <g id="Grupo_1143084" data-name="Grupo 1143084" transform="translate(0 20.589)">
              <path id="Trazado_904735" data-name="Trazado 904735" d="M43.9,430.251H29.639a2.7,2.7,0,0,1-2.7-2.7v-5.732a4.112,4.112,0,0,1,4.112-4.112h8.737a4.112,4.112,0,0,1,4.112,4.112v8.436Z" transform="translate(-26.935 -417.703)" fill="#fff6e0"/>
              <path id="Trazado_904736" data-name="Trazado 904736" d="M81.667,417.7H75.889A4.112,4.112,0,0,1,80,421.815v8.436h5.778v-8.436a4.112,4.112,0,0,0-4.112-4.112Z" transform="translate(-68.818 -417.703)" fill="#fff0cc"/>
              <g id="Grupo_1143082" data-name="Grupo 1143082" transform="translate(16.918 3.515)">
                <path id="Trazado_904737" data-name="Trazado 904737" d="M144.058,446l5.8-3.619a2.119,2.119,0,0,1,2.321,3.546l-8.119,5.137Z" transform="translate(-144.058 -442.036)" fill="#fff6e0"/>
              </g>
              <g id="Grupo_1143083" data-name="Grupo 1143083" transform="translate(40.157 3.515)">
                <path id="Trazado_904738" data-name="Trazado 904738" d="M314.019,446l-5.8-3.619a2.119,2.119,0,0,0-2.32,3.546l8.119,5.137Z" transform="translate(-304.941 -442.036)" fill="#fff6e0"/>
              </g>
              <path id="Trazado_904739" data-name="Trazado 904739" d="M382.047,430.251H367.79v-8.436A4.112,4.112,0,0,1,371.9,417.7h8.737a4.112,4.112,0,0,1,4.112,4.112v5.732A2.7,2.7,0,0,1,382.047,430.251Z" transform="translate(-318.555 -417.703)" fill="#fff6e0"/>
              <path id="Trazado_904740" data-name="Trazado 904740" d="M422.522,417.7h-5.778a4.112,4.112,0,0,1,4.112,4.112v5.732a2.7,2.7,0,0,1-2.7,2.7h5.778a2.7,2.7,0,0,0,2.7-2.7v-5.732A4.112,4.112,0,0,0,422.522,417.7Z" transform="translate(-360.438 -417.703)" fill="#fff0cc"/>
            </g>
          </g>
        </g>
        <g id="Grupo_1143089" data-name="Grupo 1143089" transform="translate(32.413 37.516)">
          <g id="Grupo_1143088" data-name="Grupo 1143088">
            <g id="Grupo_1143087" data-name="Grupo 1143087">
              <path id="Trazado_904741" data-name="Trazado 904741" d="M245.569,274.1a6.8,6.8,0,1,0-5.454,6.666l3.14,1.84v-3.4A6.782,6.782,0,0,0,245.569,274.1Z" transform="translate(-231.97 -267.297)" fill="#fff6e0"/>
            </g>
          </g>
        </g>
        <g id="Grupo_1143095" data-name="Grupo 1143095" transform="translate(25.55)">
          <g id="Grupo_1143092" data-name="Grupo 1143092" transform="translate(0 9.013)">
            <g id="Grupo_1143091" data-name="Grupo 1143091">
              <g id="Grupo_1143090" data-name="Grupo 1143090">
                <path id="Trazado_904742" data-name="Trazado 904742" d="M184.457,76.769a6.8,6.8,0,1,1,5.454,6.666l-3.14,1.84v-3.4A6.782,6.782,0,0,1,184.457,76.769Z" transform="translate(-184.457 -69.97)" fill="#fff6e0"/>
              </g>
            </g>
          </g>
          <g id="Grupo_1143094" data-name="Grupo 1143094" transform="translate(9.112)">
            <g id="Grupo_1143093" data-name="Grupo 1143093">
              <path id="Trazado_904743" data-name="Trazado 904743" d="M261.141,14.371a6.8,6.8,0,1,0-5.454,6.666l3.14,1.84v-3.4A6.781,6.781,0,0,0,261.141,14.371Z" transform="translate(-247.542 -7.572)" fill="#ff59ac"/>
            </g>
          </g>
        </g>
      </g>
      <g id="Grupo_1143097" data-name="Grupo 1143097" transform="translate(719.051 379)">
        <path id="Trazado_904744" data-name="Trazado 904744" d="M66.335,103.118a7.9,7.9,0,0,0-.467-1.99c7.78-4.345,10.81-10.7,5.3-16.907V78.567a5.2,5.2,0,0,0-4.837-5.181,7.894,7.894,0,0,0-.574-2.252,4.492,4.492,0,0,0,1.365-3.214v-12.2A4.479,4.479,0,0,0,58.894,53.3a6.642,6.642,0,0,0-9.181,6.1v4.7a6.572,6.572,0,0,0,.773,3.1,8.123,8.123,0,0,0-4.2,7.361q-1.962-.224-3.985-.353a1.084,1.084,0,0,0-.137,2.162c7.286.462,14.829,1.787,21.414,5.057,10.2,4.959,11.141,12.364,1.254,17.8a7.908,7.908,0,0,0-2.652-2.295,6.573,6.573,0,0,0,.772-3.1v-4.7a6.62,6.62,0,0,0-13.241,0v4.7a6.572,6.572,0,0,0,.772,3.1,8.194,8.194,0,0,0-4.2,7.639,81.107,81.107,0,0,1-18.6,0,8.128,8.128,0,0,0-3.424-7.164V89.13a6.62,6.62,0,0,0-13.241,0v8.276a7.935,7.935,0,0,0-1.882,1.818C-1.043,93.6.369,86.033,11.012,81.131c5.931-2.794,14.012-4.52,22.755-4.862a1.084,1.084,0,0,0-.084-2.165c-2.032.079-4.031.233-5.98.455A8.173,8.173,0,0,0,23.5,67.2a6.572,6.572,0,0,0,.773-3.1V59.4a6.62,6.62,0,0,0-13.241.012V64.1a6.571,6.571,0,0,0,.772,3.1,7.927,7.927,0,0,0-4.154,6.187A5.2,5.2,0,0,0,2.81,78.567v5.65c-5.506,6.2-2.479,12.567,5.3,16.911a7.9,7.9,0,0,0-.464,1.99A5.2,5.2,0,0,0,2.81,108.3v5.732A3.792,3.792,0,0,0,6.6,117.818H20.81a.913.913,0,0,0,.8-.3l7.9-5a3.231,3.231,0,0,0-.446-5.617,84,84,0,0,0,15.8.006,3.23,3.23,0,0,0-.432,5.611l8.119,5.137a1.1,1.1,0,0,0,.579.168H67.385a3.789,3.789,0,0,0,3.777-3.561A1.084,1.084,0,0,0,69,114.129a1.62,1.62,0,0,1-1.614,1.523H54.211c0-1.83,0-5.537,0-7.353a3.032,3.032,0,0,1,3.029-3.029q4.368,0,8.737,0a3.1,3.1,0,0,1,3.029,3.173,1.084,1.084,0,0,0,2.167,0,5.253,5.253,0,0,0-4.836-5.326Zm2.67-24.551v3.671a24.075,24.075,0,0,0-2.627-1.763V75.568A3.031,3.031,0,0,1,69.005,78.567Zm-6.35-25.155a2.307,2.307,0,0,1,2.3,2.3v12.2a2.287,2.287,0,0,1-.373,1.259A7.911,7.911,0,0,0,62.18,67.2a6.572,6.572,0,0,0,.773-3.1V59.4a6.594,6.594,0,0,0-2.227-4.942A2.3,2.3,0,0,1,62.655,53.412ZM51.879,64.1V62.628l8.907-1.882V64.1a4.453,4.453,0,0,1-4.448,4.448h-.012A4.453,4.453,0,0,1,51.879,64.1Zm2.992-8.9a4.459,4.459,0,0,1,1.465-.248,4.521,4.521,0,0,1,4.367,3.6l-8.824,1.865v-1A4.466,4.466,0,0,1,54.872,55.2ZM48.455,74.84a5.959,5.959,0,0,1,3.378-5.891,6.648,6.648,0,0,0,9,0,5.764,5.764,0,0,1,3.378,5.24v5.136A54.808,54.808,0,0,0,48.455,74.84ZM13.194,64.1V62.628L22.1,60.745V64.1a4.453,4.453,0,0,1-4.448,4.448h-.012A4.453,4.453,0,0,1,13.194,64.1Zm2.992-8.9a4.459,4.459,0,0,1,1.465-.248,4.521,4.521,0,0,1,4.367,3.6l-8.824,1.865C13.092,58.18,13.885,56,16.187,55.2ZM13.149,68.949a6.648,6.648,0,0,0,9,0,6.1,6.1,0,0,1,3.393,5.888A53.758,53.758,0,0,0,9.77,79.325V74.188a5.756,5.756,0,0,1,3.379-5.239ZM7.6,75.568v4.907a24.129,24.129,0,0,0-2.627,1.762v-3.67A3.031,3.031,0,0,1,7.6,75.568Zm17.923,28.353v3.53l-3.589,2.24a7.648,7.648,0,0,0-.521-3.658,6.653,6.653,0,0,0,2.853-5.439C24.8,100.772,25.526,102.69,25.526,103.921ZM13.194,89.129a4.454,4.454,0,0,1,8.907,0v11.464a4.474,4.474,0,0,1-2.023,3.728,5.171,5.171,0,0,0-3.337-1.217h-2.77a4.393,4.393,0,0,1-.777-2.51ZM11.525,103.1H9.83a5.715,5.715,0,0,1,1.2-2.773A7.219,7.219,0,0,0,11.525,103.1ZM4.976,114.031V108.3A3.032,3.032,0,0,1,8,105.27h8.737A3.032,3.032,0,0,1,19.77,108.3v7.353H6.6a1.622,1.622,0,0,1-1.621-1.621Zm23.366-3.343-6.406,4.053v-2.5l5.246-3.274C28.237,108.3,29.575,109.87,28.342,110.688ZM51.879,89.129a4.454,4.454,0,0,1,8.907,0v4.7a4.453,4.453,0,0,1-4.448,4.448h-.012a4.453,4.453,0,0,1-4.448-4.448Zm-6.747,20.7a1.054,1.054,0,0,1,1.622-.854l5.289,3.3v2.5l-6.449-4.08A1.033,1.033,0,0,1,45.133,109.825Zm6.912-1.525v1.418l-3.589-2.24v-3.557a5.746,5.746,0,0,1,3.378-5.239,6.648,6.648,0,0,0,9,0,5.753,5.753,0,0,1,3.319,4.422H57.239A5.2,5.2,0,0,0,52.044,108.3Z" transform="translate(-0.002 -43.862)"/>
        <path id="Trazado_904745" data-name="Trazado 904745" d="M224.469,267.681a7.907,7.907,0,0,0,9.022,7.8l2.8,1.64a1.1,1.1,0,0,0,1.631-.935v-2.929a7.882,7.882,0,1,0-13.452-5.576Zm7.883-5.716a5.728,5.728,0,0,1,3.77,10.01,1.084,1.084,0,0,0-.368.814V274.3l-1.508-.884c-.53-.31-1.4-.015-1.894-.015A5.716,5.716,0,0,1,232.352,261.965Z" transform="translate(-192.046 -222.282)"/>
        <path id="Trazado_904746" data-name="Trazado 904746" d="M250.474,309.739a1.084,1.084,0,0,0,0-2.167A1.084,1.084,0,0,0,250.474,309.739Z" transform="translate(-213.4 -263.155)"/>
        <path id="Trazado_904747" data-name="Trazado 904747" d="M272.845,309.739a1.084,1.084,0,0,0,0-2.167A1.084,1.084,0,0,0,272.845,309.739Z" transform="translate(-232.539 -263.155)"/>
        <path id="Trazado_904748" data-name="Trazado 904748" d="M295.215,309.739a1.084,1.084,0,0,0,0-2.167A1.084,1.084,0,0,0,295.215,309.739Z" transform="translate(-251.678 -263.155)"/>
        <path id="Trazado_904749" data-name="Trazado 904749" d="M179.26,25.473a1.1,1.1,0,0,0,1.631.935l2.8-1.64a7.919,7.919,0,0,0,8.924-9.045,7.846,7.846,0,0,0,2.468.032l2.8,1.64a1.1,1.1,0,0,0,1.631-.935V13.53A7.882,7.882,0,1,0,186.158,9.2a7.894,7.894,0,0,0-6.9,13.346v2.929ZM193.941,2.238a5.728,5.728,0,0,1,3.77,10.01,1.084,1.084,0,0,0-.368.814v1.507l-1.508-.884a3.619,3.619,0,0,0-1.894-.015,5.716,5.716,0,0,1,0-11.432ZM179.113,16.967A5.742,5.742,0,0,1,187,11.676a7.939,7.939,0,0,0,3.146,3.181,5.741,5.741,0,0,1-5.313,7.825,3.619,3.619,0,0,0-1.894.015l-1.508.884V22.074a1.083,1.083,0,0,0-.368-.814A5.718,5.718,0,0,1,179.113,16.967Z" transform="translate(-151.386 -0.071)"/>
        <path id="Trazado_904750" data-name="Trazado 904750" d="M202.962,112.412a1.084,1.084,0,0,0,0-2.167A1.084,1.084,0,0,0,202.962,112.412Z" transform="translate(-172.75 -94.331)"/>
        <path id="Trazado_904751" data-name="Trazado 904751" d="M225.331,112.412a1.084,1.084,0,0,0,0-2.167A1.084,1.084,0,0,0,225.331,112.412Z" transform="translate(-191.888 -94.331)"/>
        <path id="Trazado_904752" data-name="Trazado 904752" d="M247.7,112.412a1.084,1.084,0,0,0,0-2.167A1.084,1.084,0,0,0,247.7,112.412Z" transform="translate(-211.027 -94.331)"/>
        <path id="Trazado_904753" data-name="Trazado 904753" d="M275.155,40.522a1.083,1.083,0,0,0,1.532,0l1-1,1,1a1.084,1.084,0,0,0,1.532-1.532l-1-1,1-1a1.084,1.084,0,0,0-1.532-1.532l-1,1-1-1a1.084,1.084,0,0,0-1.532,1.532l1,1-1,1A1.083,1.083,0,0,0,275.155,40.522Z" transform="translate(-235.136 -30.065)"/>
      </g>
    </g>
  </g>
</svg>
