<svg xmlns="http://www.w3.org/2000/svg" xmlns:xlink="http://www.w3.org/1999/xlink" width="98" height="98" viewBox="0 0 98 98">
  <defs>
    <filter id="Elipse_14842" x="0" y="0" width="98" height="98" filterUnits="userSpaceOnUse">
      <feOffset dy="3" input="SourceAlpha"/>
      <feGaussianBlur stdDeviation="3" result="blur"/>
      <feFlood flood-opacity="0.161"/>
      <feComposite operator="in" in2="blur"/>
      <feComposite in="SourceGraphic"/>
    </filter>
  </defs>
  <g id="Grupo_1143038" data-name="Grupo 1143038" transform="translate(-190.551 -932)">
    <g transform="matrix(1, 0, 0, 1, 190.55, 932)" filter="url(#Elipse_14842)">
      <g id="Elipse_14842-2" data-name="Elipse 14842" transform="translate(9 6)" fill="#f6d530" stroke="#fff" stroke-width="3">
        <circle cx="40" cy="40" r="40" stroke="none"/>
        <circle cx="40" cy="40" r="38.5" fill="none"/>
      </g>
    </g>
    <g id="saludable" transform="translate(143.965 950.999)">
      <g id="Grupo_1143036" data-name="Grupo 1143036" transform="translate(77.387 0.803)">
        <path id="Trazado_904249" data-name="Trazado 904249" d="M183.021,287.988h-6.9l-3.033-13.978-3.033,13.978h-6.9l3.368-19.476h13.122Z" transform="translate(-154.703 -240.596)" fill="#60b7ff"/>
        <path id="Trazado_904250" data-name="Trazado 904250" d="M202.469,319.913h1.188l-3.033,13.978h-3.236l2.6-11.977A2.54,2.54,0,0,1,202.469,319.913Z" transform="translate(-185.269 -286.499)" fill="#26a6fe"/>
        <path id="Trazado_904251" data-name="Trazado 904251" d="M293.7,287.988h-3.236l-3.368-19.476h3.236Z" transform="translate(-265.377 -240.596)" fill="#26a6fe"/>
        <path id="Trazado_904252" data-name="Trazado 904252" d="M222.362,17.419h0a4.028,4.028,0,0,1-4.028-4.028V11.539a3.108,3.108,0,0,1,3.108-3.108h1.84a3.108,3.108,0,0,1,3.108,3.108v1.852A4.028,4.028,0,0,1,222.362,17.419Z" transform="translate(-203.974 -8.331)" fill="#ffdfcf"/>
        <path id="Trazado_904253" data-name="Trazado 904253" d="M246.515,11.539V13.31a4.081,4.081,0,0,1-4.009,4.109,4.007,4.007,0,0,1-1.637-.339,4.028,4.028,0,0,0,2.411-3.69V10.654c0-1.227-.486-2.223-1.713-2.223h1.841A3.108,3.108,0,0,1,246.515,11.539Z" transform="translate(-224.099 -8.331)" fill="#ffcebf"/>
        <path id="Trazado_904254" data-name="Trazado 904254" d="M184.155,91.681,181.64,94.2a2.391,2.391,0,0,0-.7,1.691v11.895H167.817V95.886a2.391,2.391,0,0,0-.7-1.691L164.6,91.681l3.652-3.652,1.22,1.22a6.934,6.934,0,0,0,4.9,2.031h0a6.935,6.935,0,0,0,4.9-2.03l1.222-1.221Z" transform="translate(-155.99 -79.416)" fill="#fee97d"/>
        <path id="Trazado_904255" data-name="Trazado 904255" d="M293.541,108.666l-2.514,2.514a2.39,2.39,0,0,0-.7,1.691v11.895H287.09V112.871a2.39,2.39,0,0,1,.7-1.691l4.132-4.132Z" transform="translate(-265.377 -96.401)" fill="#fedf30"/>
        <circle id="Elipse_14932" data-name="Elipse 14932" cx="8.936" cy="8.936" r="8.936" transform="translate(9.452 15.541)" fill="#70d162"/>
        <path id="Trazado_904256" data-name="Trazado 904256" d="M251.427,161.74a8.947,8.947,0,0,1-10.554,8.79,8.939,8.939,0,0,0,0-17.582,8.947,8.947,0,0,1,10.554,8.792Z" transform="translate(-224.103 -137.262)" fill="#58c945"/>
        <path id="Trazado_904257" data-name="Trazado 904257" d="M205.86,205.751l-1.774-1.774a1.608,1.608,0,0,0-2.275,0h0a1.608,1.608,0,0,0,0,2.275l3.053,3.053a1.769,1.769,0,0,0,2.5,0l4.641-4.641a1.608,1.608,0,0,0,0-2.275h0a1.608,1.608,0,0,0-2.275,0l-3.361,3.361A.361.361,0,0,1,205.86,205.751Z" transform="translate(-188.798 -181.125)" fill="#dcf5f8"/>
        <path id="Trazado_904258" data-name="Trazado 904258" d="M324.77,11.909l-7.856,7.857-3.652-3.652,7.856-7.857a2.582,2.582,0,0,1,3.652,3.652Z" transform="translate(-288.749 -7.501)" fill="#ffdfcf"/>
        <path id="Trazado_904259" data-name="Trazado 904259" d="M341.752,11.911,333.9,19.767l-1.618-1.618,6.237-6.239a2.582,2.582,0,0,0,0-3.652,2.429,2.429,0,0,0-.208-.187,2.582,2.582,0,0,1,3.444,3.839Z" transform="translate(-305.732 -7.502)" fill="#ffcebf"/>
        <path id="Trazado_904260" data-name="Trazado 904260" d="M96.339,16.113l-3.652,3.652L84.83,11.909a2.582,2.582,0,1,1,3.652-3.652Z" transform="translate(-84.074 -7.501)" fill="#ffdfcf"/>
        <path id="Trazado_904261" data-name="Trazado 904261" d="M291.706,456.372h-4.791a1.629,1.629,0,0,1-1.616-1.426l-.942-4.338h6.9l1.7,3.846A1.366,1.366,0,0,1,291.706,456.372Z" transform="translate(-262.937 -403.216)" fill="#918291"/>
        <path id="Trazado_904262" data-name="Trazado 904262" d="M322.273,456.373h-3.236a1.366,1.366,0,0,0,1.249-1.918l-1.7-3.846h3.236l1.7,3.846A1.366,1.366,0,0,1,322.273,456.373Z" transform="translate(-293.503 -403.217)" fill="#7a6d79"/>
        <path id="Trazado_904263" data-name="Trazado 904263" d="M154.873,450.608l-.942,4.338a1.629,1.629,0,0,1-1.616,1.426h-4.791a1.366,1.366,0,0,1-1.249-1.918l1.7-3.846h6.9Z" transform="translate(-139.518 -403.216)" fill="#918291"/>
        <path id="Trazado_904264" data-name="Trazado 904264" d="M179.27,450.608l-.942,4.338a1.629,1.629,0,0,1-1.616,1.426h-3.236a1.629,1.629,0,0,0,1.616-1.426l.942-4.338Z" transform="translate(-163.915 -403.216)" fill="#7a6d79"/>
      </g>
      <g id="Grupo_1143037" data-name="Grupo 1143037" transform="translate(76.586 0.001)">
        <path id="Trazado_904265" data-name="Trazado 904265" d="M161.595,306.154H156.8a2.436,2.436,0,0,1-2.411-2.127l-3.178-14.636-3.191,14.7a2.415,2.415,0,0,1-2.4,2.058h-4.792a2.168,2.168,0,0,1-1.982-3.044l1.661-3.756,2.211-12.787a.8.8,0,1,1,1.581.273l-2.228,12.885a.8.8,0,0,1-.057.188l-1.7,3.846a.564.564,0,0,0,.515.791h4.792a.829.829,0,0,0,.82-.724l3.986-18.386a.8.8,0,0,1,1.568,0l3.974,18.316a.855.855,0,0,0,.832.794h4.792a.564.564,0,0,0,.515-.791l-1.7-3.846a.8.8,0,0,1-.057-.188l-2.989-17.284a.8.8,0,1,1,1.581-.273l2.972,17.187,1.661,3.756a2.168,2.168,0,0,1-1.982,3.044Z" transform="translate(-132.024 -251.393)"/>
        <path id="Trazado_904266" data-name="Trazado 904266" d="M215.668,11.523a4.836,4.836,0,0,1-4.83-4.83V4.841a3.914,3.914,0,0,1,3.91-3.91h1.84a3.914,3.914,0,0,1,3.91,3.91V6.693A4.836,4.836,0,0,1,215.668,11.523Zm-.92-8.988a2.308,2.308,0,0,0-2.306,2.306V6.693a3.226,3.226,0,0,0,6.452,0V4.841a2.308,2.308,0,0,0-2.306-2.306Z" transform="translate(-196.479 -0.831)"/>
        <path id="Trazado_904267" data-name="Trazado 904267" d="M174.241,91.932a.8.8,0,0,1-.8-.8V89.188a3.172,3.172,0,0,1,.936-2.258l1.947-1.947L173.8,82.465l-.654.654a7.736,7.736,0,0,1-10.94,0l-.653-.653-2.518,2.518,1.947,1.947a3.172,3.172,0,0,1,.935,2.258v1.941a.8.8,0,0,1-1.6,0V89.188a1.578,1.578,0,0,0-.465-1.123l-2.514-2.514a.8.8,0,0,1,0-1.134l3.652-3.652a.8.8,0,0,1,1.134,0l1.22,1.22a6.132,6.132,0,0,0,8.671,0l1.222-1.221a.8.8,0,0,1,1.134,0l3.652,3.652a.8.8,0,0,1,0,1.135l-2.515,2.514a1.578,1.578,0,0,0-.466,1.124v1.941A.8.8,0,0,1,174.241,91.932Z" transform="translate(-148.49 -71.916)"/>
        <path id="Trazado_904268" data-name="Trazado 904268" d="M174.685,164.783a9.74,9.74,0,0,1-4.961-18.121.8.8,0,1,1,.818,1.38,8.11,8.11,0,1,0,3.1-1.067.8.8,0,0,1-.2-1.591,9.853,9.853,0,0,1,1.24-.078,9.739,9.739,0,0,1,0,19.477Z" transform="translate(-155.496 -129.765)"/>
        <path id="Trazado_904269" data-name="Trazado 904269" d="M204.181,194.419a2.411,2.411,0,0,1,1.7,4.115l-4.641,4.641a2.571,2.571,0,0,1-3.636,0l-3.053-3.053a2.411,2.411,0,1,1,3.409-3.409l1.462,1.462,3.049-3.049A2.4,2.4,0,0,1,204.181,194.419Zm-4.754,7.9a.96.96,0,0,0,.683-.283l4.641-4.641a.806.806,0,1,0-1.14-1.14l-3.361,3.361a1.163,1.163,0,0,1-1.645,0l-1.774-1.774a.806.806,0,1,0-1.14,1.14l3.053,3.053A.96.96,0,0,0,199.427,202.324Z" transform="translate(-181.309 -173.625)"/>
        <path id="Trazado_904270" data-name="Trazado 904270" d="M310.216,13.885a.8.8,0,0,1-.567-.235L306,10a.8.8,0,0,1,0-1.134l4.339-4.34a.8.8,0,1,1,1.135,1.134L307.7,9.43l2.518,2.518L317.5,4.659a1.78,1.78,0,1,0-2.518-2.518l-.829.83a.8.8,0,1,1-1.134-1.134l.829-.83a3.385,3.385,0,1,1,4.787,4.787l-7.856,7.857A.8.8,0,0,1,310.216,13.885Z" transform="translate(-281.251 -0.015)"/>
        <path id="Trazado_904271" data-name="Trazado 904271" d="M86,13.87a.8.8,0,0,1-.567-.235L77.576,5.778A3.385,3.385,0,0,1,82.362.992l7.857,7.857a.8.8,0,0,1,0,1.134l-3.652,3.652A.8.8,0,0,1,86,13.87ZM79.969,1.6A1.78,1.78,0,0,0,78.71,4.644L86,11.933l2.518-2.518-7.29-7.289A1.768,1.768,0,0,0,79.969,1.6Z" transform="translate(-76.586 -0.001)"/>
        <path id="Línea_640" data-name="Línea 640" d="M.2-5.9H-6.7a.8.8,0,0,1-.8-.8.8.8,0,0,1,.8-.8H.2a.8.8,0,0,1,.8.8A.8.8,0,0,1,.2-5.9Z" transform="translate(28.92 54.892)"/>
        <path id="Línea_641" data-name="Línea 641" d="M-6.7-5.9a.8.8,0,0,1-.8-.8.8.8,0,0,1,.8-.8H.2a.8.8,0,0,1,.8.8.8.8,0,0,1-.8.8Z" transform="translate(15.958 54.892)"/>
      </g>
    </g>
  </g>
</svg>
