<svg xmlns="http://www.w3.org/2000/svg" xmlns:xlink="http://www.w3.org/1999/xlink" width="138" height="138" viewBox="0 0 138 138">
  <defs>
    <filter id="Elipse_14842" x="0" y="0" width="138" height="138" filterUnits="userSpaceOnUse">
      <feOffset dy="3" input="SourceAlpha"/>
      <feGaussianBlur stdDeviation="3" result="blur"/>
      <feFlood flood-opacity="0.161"/>
      <feComposite operator="in" in2="blur"/>
      <feComposite in="SourceGraphic"/>
    </filter>
    <clipPath id="clip-path">
      <path id="path5715" d="M0-682.665H64.437v64.437H0Z" transform="translate(0 682.665)"/>
    </clipPath>
  </defs>
  <g id="Grupo_1143102" data-name="Grupo 1143102" transform="translate(-1022.051 -505)">
    <g id="Grupo_1143100" data-name="Grupo 1143100" transform="translate(498.969 70.469)">
      <g transform="matrix(1, 0, 0, 1, 523.08, 434.53)" filter="url(#Elipse_14842)">
        <g id="Elipse_14842-2" data-name="Elipse 14842" transform="translate(9 6)" fill="#f6d530" stroke="#fff" stroke-width="3">
          <circle cx="60" cy="60" r="60" stroke="none"/>
          <circle cx="60" cy="60" r="58.5" fill="none"/>
        </g>
      </g>
    </g>
    <g id="g5709" transform="translate(1059.051 1221.665)">
      <g id="g5711" transform="translate(0 -682.665)">
        <g id="g5713" clip-path="url(#clip-path)">
          <g id="g5719" transform="translate(28.983 20.902)">
            <path id="path5721" d="M-107.34-1.672s8.791-2.067,9.912,8.04-11.786,15.92-11.786,15.92l-9.313-9.234Z" transform="translate(118.528 1.846)" fill="#ee6161"/>
          </g>
          <g id="g5723" transform="translate(34.496 6.18)">
            <path id="path5725" d="M-48.924-44.313c-.837,1.8-2.622,2.753-3.988,2.12s-1.38-2.681-.544-4.485,2.208-2.682,3.574-2.048,1.795,2.609.958,4.414" transform="translate(54.023 48.931)" fill="#ffb09e"/>
          </g>
          <g id="g5727" transform="translate(52.922 14.862)">
            <path id="path5729" d="M-4.1-22.223c-.837,1.8-.408,3.78.958,4.414s2.938-.678,3.775-2.482.621-3.418-.745-4.051-3.151.316-3.988,2.12" transform="translate(4.53 24.54)" fill="#ffb09e"/>
          </g>
          <g id="g5731" transform="translate(36.841 1.668)">
            <path id="path5733" d="M-7.813-100.674l2.51-5.412A8.768,8.768,0,0,1,6.34-110.352a8.768,8.768,0,0,1,4.265,11.643l-2.5,5.382A8.784,8.784,0,0,1-3.556-89.053h0a8.751,8.751,0,0,1-4.257-11.621" transform="translate(8.627 111.167)" fill="#ffcebf"/>
          </g>
          <g id="g5735" transform="translate(41.499 3.05)">
            <path id="path5737" d="M-108.806,0a9.393,9.393,0,0,1,.745,9.369l-2.643,5.707a9.241,9.241,0,0,1-9.443,5.45q.2.107.414.206a8.784,8.784,0,0,0,11.665-4.273l2.5-5.382A8.768,8.768,0,0,0-108.806,0" transform="translate(120.146)" fill="#ffb09e"/>
          </g>
          <g id="g5739" transform="translate(37.407 0.944)">
            <path id="path5741" d="M-167.676-170.753a.157.157,0,0,1-.221.031c-5.04-3.917-4.654-9.909-3.8-13.511a.294.294,0,0,0-.523-.244c-2.223,2.98-6.588,7.121-12.81,5.809a.156.156,0,0,1-.118-.189c.342-1.523,3.432-13.567,14.523-8.424s3.892,15.282,2.95,16.528" transform="translate(185.153 188.55)" fill="#685e68"/>
          </g>
          <g id="g5743" transform="translate(50.017 1.467)">
            <path id="path5745" d="M-18.39-7.165a15.7,15.7,0,0,0-1.917-.747c7.49,4.5,3.976,11.781,2.168,14.64a10.985,10.985,0,0,0,2.477,2.666.157.157,0,0,0,.221-.031C-14.5,8.117-7.3-2.021-18.39-7.165" transform="translate(20.307 7.912)" fill="#554e56"/>
          </g>
          <g id="g5747" transform="translate(16.997 51.762)">
            <path id="path5749" d="M-286.412-112.56h-28.823a1.029,1.029,0,0,1-1.029-1.029v-1.429a9.274,9.274,0,0,1,9.274-9.274h12.334a9.274,9.274,0,0,1,9.274,9.274v1.429a1.029,1.029,0,0,1-1.029,1.029" transform="translate(316.265 124.292)" fill="#cbe5e8"/>
          </g>
          <g id="g5751" transform="translate(34.829 51.762)">
            <path id="path5753" d="M-36.224,0H-40a9.274,9.274,0,0,1,9.274,9.274V10.7a1.03,1.03,0,0,1-1.029,1.029h3.776A1.03,1.03,0,0,0-26.95,10.7V9.274A9.274,9.274,0,0,0-36.224,0" transform="translate(40)" fill="#a8d3d8"/>
          </g>
          <path id="path5755" d="M317.113-192.02h-6.176v-10.043h6.176Z" transform="translate(-281.587 247.428)" fill="#ffcebf"/>
          <path id="path5757" d="M343.654-192.02h3.088v-10.043h-3.088Z" transform="translate(-311.216 247.428)" fill="#ffb09e"/>
          <g id="g5759" transform="translate(25.835 49.342)">
            <path id="path5761" d="M-33.72,0a8.069,8.069,0,0,0,3.088,6.066s-1.924,2.148-3.87,1.466c-1.542-.541-2.415-3.417-2.711-4.588a.723.723,0,0,1,.3-.776Z" transform="translate(37.235)" fill="#eae7ea"/>
          </g>
          <g id="g5763" transform="translate(32.438 49.342)">
            <path id="path5765" d="M-29.629,0a8.069,8.069,0,0,1-3.088,6.066s1.924,2.148,3.87,1.466c1.542-.541,2.415-3.417,2.711-4.588a.724.724,0,0,0-.3-.776Z" transform="translate(32.717)" fill="#eae7ea"/>
          </g>
          <g id="g5767" transform="translate(17.901 31.024)">
            <path id="path5769" d="M-55.285-39.125c0,2.252-1.377,4.078-3.076,4.078s-2.686-2.1-2.686-4.349.987-3.807,2.686-3.807,3.076,1.826,3.076,4.078" transform="translate(61.048 43.203)" fill="#ffb09e"/>
          </g>
          <g id="g5771" transform="translate(40.774 31.024)">
            <path id="path5773" d="M0-39.125c0,2.252,1.377,4.078,3.076,4.078s2.686-2.1,2.686-4.349S4.775-43.2,3.076-43.2,0-41.377,0-39.125" transform="translate(0 43.203)" fill="#ffb09e"/>
          </g>
          <g id="g5775" transform="translate(22.29 20.74)">
            <path id="path5777" d="M0-160.081v-6.756a9.929,9.929,0,0,1,9.929-9.929,9.929,9.929,0,0,1,9.929,9.929v6.719a9.948,9.948,0,0,1-9.948,9.948A9.91,9.91,0,0,1,0-160.081" transform="translate(0 176.766)" fill="#ffcebf"/>
          </g>
          <g id="g5779" transform="translate(30.314 20.74)">
            <path id="path5781" d="M-18.276,0h0a9.978,9.978,0,0,0-1.888.182,9.931,9.931,0,0,1,8.041,9.748v6.719a9.949,9.949,0,0,1-8.058,9.766,9.963,9.963,0,0,0,1.886.181,9.948,9.948,0,0,0,9.948-9.948V9.929A9.929,9.929,0,0,0-18.276,0" transform="translate(20.181)" fill="#ffb09e"/>
          </g>
          <g id="g5783" transform="translate(20.807 16.658)">
            <path id="path5785" d="M-209.6-154.969a12.116,12.116,0,0,0-.506,2.478s-2.29-1.706-2.221-2.354c.109-1.037.709-7.4-1.91-6.8s-3.7,1.037-5.885,1.037-3.267-.436-5.885-1.037-2.019,5.767-1.91,6.8c.069.649-2.047,2.348-2.047,2.348a17.339,17.339,0,0,0-.681-2.472c-.219-.469-2.185-6.429.988-10.375a.7.7,0,0,0,.034-.83,3.16,3.16,0,0,1-.541-1.769,3.173,3.173,0,0,1,.934-2.245,3.168,3.168,0,0,1,2.245-.934h7.725a3.19,3.19,0,0,1,2.989,2.1,1.04,1.04,0,0,0,.731.669c9.8,2.309,6.373,12.453,5.94,13.382" transform="translate(231.442 171.121)" fill="#685e68"/>
          </g>
          <g id="g5787" transform="translate(29.217 16.658)">
            <path id="path5789" d="M-71.914-26.579a1.041,1.041,0,0,1-.731-.669,3.19,3.19,0,0,0-2.989-2.1h-3.776a3.19,3.19,0,0,1,2.989,2.1,1.041,1.041,0,0,0,.731.669c5.535,1.3,6.85,5.109,6.868,8.34a17.836,17.836,0,0,1,.12,5.165c-.069.649,2.221,2.354,2.221,2.354a12.111,12.111,0,0,1,.505-2.478c.433-.929,3.858-11.073-5.94-13.382" transform="translate(79.409 29.349)" fill="#554e56"/>
          </g>
          <g id="g5791" transform="translate(47.636 40.143)">
            <path id="path5793" d="M-45.643,0a5.382,5.382,0,0,1,3.172,1.043A5.383,5.383,0,0,1-39.3,0c2.667,0,4.757,2.341,4.757,5.329,0,1.914-.935,5.611-7.2,8.878a1.562,1.562,0,0,1-.729.18,1.563,1.563,0,0,1-.729-.18c-6.265-3.267-7.2-6.964-7.2-8.878C-50.4,2.341-48.31,0-45.643,0" transform="translate(50.4)" fill="#ee6161"/>
          </g>
          <g id="g5795" transform="translate(53.688 40.143)">
            <path id="path5797" d="M-48.437,0A5.272,5.272,0,0,0-50.4.378a5.3,5.3,0,0,1,2.969,4.951c0,1.79-.819,5.141-6.052,8.24q.542.321,1.148.638a1.562,1.562,0,0,0,.729.18,1.563,1.563,0,0,0,.729-.18c6.265-3.267,7.2-6.964,7.2-8.878,0-2.988-2.09-5.329-4.757-5.329" transform="translate(53.485)" fill="#e94444"/>
          </g>
          <g id="g5799" transform="translate(0.944 7.322)">
            <path id="path5801" d="M-45.643,0a5.382,5.382,0,0,1,3.172,1.043A5.383,5.383,0,0,1-39.3,0c2.667,0,4.757,2.341,4.757,5.329,0,1.914-.935,5.611-7.2,8.878a1.562,1.562,0,0,1-.729.18,1.563,1.563,0,0,1-.729-.18c-6.265-3.267-7.2-6.964-7.2-8.878C-50.4,2.341-48.31,0-45.643,0" transform="translate(50.4)" fill="#ee6161"/>
          </g>
          <g id="g5803" transform="translate(6.996 7.322)">
            <path id="path5805" d="M-48.437,0A5.275,5.275,0,0,0-50.4.377a5.3,5.3,0,0,1,2.969,4.951c0,1.79-.819,5.141-6.052,8.24q.542.321,1.148.638a1.564,1.564,0,0,0,.729.179,1.564,1.564,0,0,0,.729-.179c6.265-3.267,7.2-6.965,7.2-8.878,0-2.988-2.09-5.328-4.757-5.328" transform="translate(53.485)" fill="#e94444"/>
          </g>
          <g id="g5807" transform="translate(42.148 27.527)">
            <path id="path5809" d="M-53.928-46.606h-3.753a1.867,1.867,0,0,1-1.867-1.867V-49.6a1.867,1.867,0,0,1,1.867-1.867h3.753A1.867,1.867,0,0,1-52.061-49.6v1.123a1.867,1.867,0,0,1-1.867,1.867" transform="translate(59.549 51.464)" fill="#ffcebf"/>
          </g>
          <g id="g5811" transform="translate(44.004 27.527)">
            <path id="path5813" d="M-36.118,0h-3.765a1.867,1.867,0,0,1,1.856,1.867V2.99a1.867,1.867,0,0,1-1.856,1.867h3.765A1.867,1.867,0,0,0-34.251,2.99V1.867A1.867,1.867,0,0,0-36.118,0" transform="translate(39.883)" fill="#ffb09e"/>
          </g>
          <g id="g5815" transform="translate(38.097 23.295)">
            <path id="path5817" d="M-109.5,12.316a.944.944,0,0,1-.838-.508.944.944,0,0,1,.4-1.273c2.7-1.406,11.426-6.615,10.54-14.611a10.374,10.374,0,0,0-1.417-4.472.944.944,0,0,1,.286-1.3.944.944,0,0,1,1.3.286,12.219,12.219,0,0,1,1.7,5.282C-96.5,4.9-106.1,10.662-109.067,12.208A.94.94,0,0,1-109.5,12.316Z" transform="translate(110.447 10.001)"/>
          </g>
          <g id="g5819" transform="translate(33.552 5.238)">
            <path id="path5821" d="M-37.028-73.17a3.075,3.075,0,0,1-1.3-.285c-1.747-.812-2.169-3.225-1-5.739,1.084-2.337,3.024-3.345,4.828-2.508a3.041,3.041,0,0,1,.4.226.944.944,0,0,1,.262,1.309.944.944,0,0,1-1.309.262,1.147,1.147,0,0,0-.151-.085c-1.238-.574-2.149,1.224-2.319,1.591-.671,1.449-.633,2.9.085,3.232a1.387,1.387,0,0,0,1.021.019.944.944,0,0,1,1.2.595.944.944,0,0,1-.595,1.2A3.506,3.506,0,0,1-37.028-73.17Z" transform="translate(39.987 81.993)"/>
          </g>
          <g id="g5823" transform="translate(52.207 14.005)">
            <path id="path5825" d="M-48.411-1.313a2.63,2.63,0,0,1-1.114-.246,3.224,3.224,0,0,1-1.637-1.783.944.944,0,0,1,.527-1.226.944.944,0,0,1,1.226.527,1.392,1.392,0,0,0,.677.77c.718.333,1.85-.575,2.522-2.023A3.425,3.425,0,0,0-45.83-7.2a1.1,1.1,0,0,0-.665-.888.933.933,0,0,0-.149-.056.944.944,0,0,1-.66-1.16.944.944,0,0,1,1.16-.66A2.8,2.8,0,0,1-45.7-9.8a3,3,0,0,1,1.729,2.283A5.213,5.213,0,0,1-44.5-4.5C-45.423-2.5-46.948-1.313-48.411-1.313Z" transform="translate(51.229 10.002)"/>
          </g>
          <g id="g5827" transform="translate(35.897 10.005)">
            <path id="path5829" d="M-17.319-91.36a.944.944,0,0,1-.852-.537,9.781,9.781,0,0,1-.954-4.2,9.617,9.617,0,0,1,.9-4.073l.563-1.212a.944.944,0,0,1,1.254-.459.944.944,0,0,1,.459,1.254l-.563,1.212a7.742,7.742,0,0,0-.727,3.279,7.882,7.882,0,0,0,.769,3.381.944.944,0,0,1-.444,1.259A.94.94,0,0,1-17.319-91.36Z" transform="translate(19.125 101.925)"/>
          </g>
          <g id="g5831" transform="translate(42.055 17.384)">
            <path id="path5833" d="M-124.335-1.845a9.625,9.625,0,0,1-2.874-.439.944.944,0,0,1-.62-1.182.944.944,0,0,1,1.182-.62,7.858,7.858,0,0,0,9.441-4.189l.547-1.18a.944.944,0,0,1,1.253-.459.944.944,0,0,1,.459,1.253l-.547,1.181A9.765,9.765,0,0,1-124.335-1.845Z" transform="translate(127.872 10.002)"/>
          </g>
          <g id="g5835" transform="translate(39.835 16.193)">
            <path id="path5837" d="M-77.866-38.645a6.547,6.547,0,0,1-2.627-.553,6.286,6.286,0,0,1-3.253-3.7.944.944,0,0,1,.583-1.2.944.944,0,0,1,1.2.583,4.375,4.375,0,0,0,2.23,2.594,4.448,4.448,0,0,0,3.465.074.944.944,0,0,1,1.243.486.944.944,0,0,1-.486,1.243A5.884,5.884,0,0,1-77.866-38.645Z" transform="translate(83.799 44.155)"/>
          </g>
          <g id="g5839" transform="translate(43.222 15.957)">
            <path id="path5841" d="M-7.482-7.383A.949.949,0,0,1-7.651-7.4a3.812,3.812,0,0,1-2.006-.93.944.944,0,0,1-.128-1.329.944.944,0,0,1,1.329-.128,1.982,1.982,0,0,0,1.141.529.944.944,0,0,1,.761,1.1A.944.944,0,0,1-7.482-7.383Z" transform="translate(10 10)"/>
          </g>
          <g id="g5843" transform="translate(43.799 9.014)">
            <path id="path5845" d="M-17.531-13.93a.94.94,0,0,1-.6-.216,3.938,3.938,0,0,0-.711-.493.944.944,0,0,1-.413-1.269.944.944,0,0,1,1.269-.413,5.747,5.747,0,0,1,1.055.719.944.944,0,0,1,.128,1.329A.942.942,0,0,1-17.531-13.93Z" transform="translate(19.358 16.425)"/>
          </g>
          <g id="g5847" transform="translate(48.689 11.478)">
            <path id="path5849" d="M-8.088-7.857a.941.941,0,0,1-.347-.066,4.16,4.16,0,0,0-.791-.206.944.944,0,0,1-.761-1.1.944.944,0,0,1,1.1-.761,5.917,5.917,0,0,1,1.149.308A.944.944,0,0,1-7.21-8.454.944.944,0,0,1-8.088-7.857Z" transform="translate(10.002 10.002)"/>
          </g>
          <g id="g5851" transform="translate(42.24 12.071)">
            <path id="path5853" d="M-11.108-7.7a.94.94,0,0,1-.4-.088.944.944,0,0,1-.459-1.253l.193-.417a.944.944,0,0,1,1.253-.459.944.944,0,0,1,.459,1.253l-.193.417A.944.944,0,0,1-11.108-7.7Z" transform="translate(12.052 10.002)"/>
          </g>
          <g id="g5855" transform="translate(48.078 14.778)">
            <path id="path5857" d="M-11.107-7.7a.94.94,0,0,1-.4-.088.944.944,0,0,1-.459-1.253l.193-.417a.944.944,0,0,1,1.253-.459.944.944,0,0,1,.459,1.253l-.193.417A.944.944,0,0,1-11.107-7.7Z" transform="translate(12.05 10.002)"/>
          </g>
          <g id="g5859" transform="translate(36.464 -0.002)">
            <path id="path5861" d="M-210.157-96.767a1.106,1.106,0,0,1-.674-.229c-4.471-3.475-4.975-8.419-4.563-12.069a13.413,13.413,0,0,1-9.635,4.572,12.33,12.33,0,0,1-2.553-.273,1.085,1.085,0,0,1-.694-.478,1.111,1.111,0,0,1-.15-.84c.268-1.193,1.84-7.256,6.505-9.554,2.671-1.316,5.812-1.155,9.336.479a11.65,11.65,0,0,1,5.674,4.924.944.944,0,0,1-.4,1.275.944.944,0,0,1-1.275-.4,9.837,9.837,0,0,0-4.8-4.092c-2.98-1.382-5.573-1.55-7.707-.5-3.25,1.6-4.764,5.683-5.287,7.471,5.424.709,9.217-3.145,11.04-5.589a1.228,1.228,0,0,1,1.517-.383,1.229,1.229,0,0,1,.681,1.409c-.7,2.963-1.217,8.336,2.828,12.015a14.389,14.389,0,0,0,2.477-6.56.944.944,0,0,1,1-.88.944.944,0,0,1,.88,1A17.052,17.052,0,0,1-209.28-97.2a1.1,1.1,0,0,1-.73.428A1.085,1.085,0,0,1-210.157-96.767Z" transform="translate(228.453 116.517)"/>
          </g>
          <g id="g5863" transform="translate(16.053 50.825)">
            <path id="path5865" d="M-211.843,3.612h-28.823a1.976,1.976,0,0,1-1.973-1.973V.211A10.18,10.18,0,0,1-232.807-10a.944.944,0,0,1,.978.908.944.944,0,0,1-.908.978A8.3,8.3,0,0,0-240.752.211V1.639a.086.086,0,0,0,.086.086h28.823a.086.086,0,0,0,.085-.086V.211a8.3,8.3,0,0,0-8.014-8.323.944.944,0,0,1-.908-.978A.944.944,0,0,1-219.7-10,10.18,10.18,0,0,1-209.87.211V1.639A1.976,1.976,0,0,1-211.843,3.612Z" transform="translate(242.639 10)"/>
          </g>
          <g id="g5867" transform="translate(28.405 46.111)">
            <path id="path5869" d="M-9.056-28.573A.944.944,0,0,1-10-29.517v-2.133a.944.944,0,0,1,.944-.944.944.944,0,0,1,.944.944v2.133A.944.944,0,0,1-9.056-28.573Z" transform="translate(10 32.593)"/>
          </g>
          <g id="g5871" transform="translate(34.582 45.976)">
            <path id="path5873" d="M-9.056-29.872A.944.944,0,0,1-10-30.816v-2.268a.944.944,0,0,1,.944-.944.944.944,0,0,1,.944.944v2.268A.944.944,0,0,1-9.056-29.872Z" transform="translate(10 34.028)"/>
          </g>
          <g id="g5875" transform="translate(24.891 48.398)">
            <path id="path5877" d="M-42.772-10a.943.943,0,0,1,.442.11.944.944,0,0,1,.5.831,7.179,7.179,0,0,0,2.7,5.3.944.944,0,0,1,.385.664.944.944,0,0,1-.235.731A5.739,5.739,0,0,1-42.76-.446a3.335,3.335,0,0,1-1.106-.187c-1.8-.632-2.8-3.2-3.313-5.248A1.673,1.673,0,0,1-46.5-7.67l3.2-2.168A.943.943,0,0,1-42.772-10Zm1.643,7.024a8.8,8.8,0,0,1-2.381-4.44l-1.8,1.221c.531,2.019,1.355,3.529,2.069,3.779a1.432,1.432,0,0,0,.482.081A3.008,3.008,0,0,0-41.129-2.976Z" transform="translate(47.23 10)"/>
          </g>
          <g id="g5879" transform="translate(31.494 48.398)">
            <path id="path5881" d="M-38.685-10a.943.943,0,0,1,.53.163l3.2,2.168a1.673,1.673,0,0,1,.682,1.789c-.517,2.045-1.511,4.616-3.313,5.248A3.335,3.335,0,0,1-38.7-.446,5.739,5.739,0,0,1-42.476-2.36a.944.944,0,0,1-.235-.731.944.944,0,0,1,.385-.664,7.1,7.1,0,0,0,2.7-5.3.944.944,0,0,1,.5-.834A.943.943,0,0,1-38.685-10Zm2.539,3.806-1.8-1.222a8.8,8.8,0,0,1-2.381,4.44,3.009,3.009,0,0,0,1.631.642,1.432,1.432,0,0,0,.482-.081C-37.5-2.665-36.677-4.175-36.146-6.194Z" transform="translate(42.717 10)"/>
          </g>
          <g id="g5883" transform="translate(16.958 30.08)">
            <path id="path5885" d="M-40.49-.61c-2.1,0-3.63-2.226-3.63-5.292,0-2.886,1.425-4.751,3.63-4.751a3.317,3.317,0,0,1,.748.086.944.944,0,0,1,.706,1.133.944.944,0,0,1-1.133.706,1.426,1.426,0,0,0-.322-.037c-1.284,0-1.742,1.479-1.742,2.863,0,1.673.652,3.4,1.742,3.4a1.673,1.673,0,0,0,1.116-.479.944.944,0,0,1,1.334.054.944.944,0,0,1-.054,1.334A3.5,3.5,0,0,1-40.49-.61Z" transform="translate(44.12 10.653)"/>
          </g>
          <g id="g5887" transform="translate(40.849 34.206)">
            <path id="path5889"/>
          </g>
          <g id="g5891" transform="translate(41.147 31.608)">
            <path id="path5893" d="M-49.735-1.487a3.5,3.5,0,0,1-2.4-.984A.944.944,0,0,1-52.187-3.8a.944.944,0,0,1,1.334-.051,1.669,1.669,0,0,0,1.118.481c1.09,0,1.742-1.731,1.742-3.4a4.544,4.544,0,0,0-.351-1.881.944.944,0,0,1,.458-1.254.944.944,0,0,1,1.254.458,6.331,6.331,0,0,1,.527,2.677C-46.106-3.713-47.632-1.487-49.735-1.487Z" transform="translate(52.439 10.002)"/>
          </g>
          <g id="g5895" transform="translate(21.346 34.338)">
            <path id="path5897" d="M-19.226-71.515a.944.944,0,0,1-.843-.518,10.742,10.742,0,0,1-1.162-4.891v-2.143a.944.944,0,0,1,.944-.944.944.944,0,0,1,.944.944v2.143a8.871,8.871,0,0,0,.959,4.039.944.944,0,0,1-.417,1.268A.94.94,0,0,1-19.226-71.515Z" transform="translate(21.231 80.012)"/>
          </g>
          <g id="g5899" transform="translate(25.236 34.344)">
            <path id="path5901" d="M-172.2,3.936A10.753,10.753,0,0,1-178.79,1.7.944.944,0,0,1-178.965.38.944.944,0,0,1-177.642.2,8.881,8.881,0,0,0-172.2,2.048a9.014,9.014,0,0,0,9-9v-2.1a.944.944,0,0,1,.944-.944.944.944,0,0,1,.944.944v2.1A10.9,10.9,0,0,1-172.2,3.936Z" transform="translate(179.16 10)"/>
          </g>
          <g id="g5903" transform="translate(19.859 15.714)">
            <path id="path5905" d="M-221.911-153.17a.943.943,0,0,1-.564-.187c-2.722-2.027-2.631-2.887-2.6-3.211.335-3.18,0-5.3-.511-5.75-.04-.035-.081-.072-.249-.034-.611.14-1.137.271-1.612.389a16.442,16.442,0,0,1-4.484.671,16.451,16.451,0,0,1-4.486-.672c-.475-.118-1-.249-1.61-.389-.168-.038-.209,0-.249.034-.507.45-.846,2.569-.511,5.751.034.317.123,1.16-2.394,3.183a.944.944,0,0,1-.911.152.944.944,0,0,1-.605-.7,15.553,15.553,0,0,0-.613-2.265c-.479-1.027-2.2-7.061,1-11.225a4.1,4.1,0,0,1-.606-2.146,4.1,4.1,0,0,1,1.21-2.912,4.094,4.094,0,0,1,2.913-1.211h7.725a4.138,4.138,0,0,1,3.876,2.723c6.162,1.51,7.556,5.737,7.651,9.029a.944.944,0,0,1-.916.971.944.944,0,0,1-.971-.916c-.111-3.827-2.175-6.241-6.137-7.174a1.98,1.98,0,0,1-1.4-1.266,2.245,2.245,0,0,0-2.1-1.479h-7.725a2.218,2.218,0,0,0-1.578.657,2.222,2.222,0,0,0-.657,1.578,2.217,2.217,0,0,0,.38,1.242,1.637,1.637,0,0,1-.081,1.948c-2.93,3.645-.89,9.336-.866,9.39a7.761,7.761,0,0,1,.373,1.1,4.215,4.215,0,0,0,.543-.636c-.219-2.195-.334-5.892,1.152-7.209a2.084,2.084,0,0,1,1.923-.461c.623.143,1.159.276,1.644.4a14.578,14.578,0,0,0,4.03.616,14.569,14.569,0,0,0,4.028-.615c.486-.121,1.023-.255,1.647-.4a2.084,2.084,0,0,1,1.923.461c1.481,1.313,1.372,4.993,1.154,7.189a4.554,4.554,0,0,0,.591.637,5.487,5.487,0,0,1,.323-1.083,5.768,5.768,0,0,0,.213-.59.944.944,0,0,1,1.185-.615.944.944,0,0,1,.615,1.185,7.536,7.536,0,0,1-.3.815,10.683,10.683,0,0,0-.423,2.182.944.944,0,0,1-.561.763A.943.943,0,0,1-221.911-153.17Z" transform="translate(244.199 173.688)"/>
          </g>
          <g id="g5907" transform="translate(26.117 29.978)">
            <path id="path5909" d="M-34.55-10.075a.945.945,0,0,1-.239-.031,3.509,3.509,0,0,0-2.18,0,.944.944,0,0,1-1.152-.675.944.944,0,0,1,.675-1.152,5.338,5.338,0,0,1,3.134,0,.944.944,0,0,1,.675,1.152A.944.944,0,0,1-34.55-10.075Z" transform="translate(38.152 12.167)"/>
          </g>
          <g id="g5911" transform="translate(33.775 29.978)">
            <path id="path5913" d="M-9.059-10.075a.944.944,0,0,1-.913-.706A.944.944,0,0,1-9.3-11.932a5.338,5.338,0,0,1,3.134,0,.944.944,0,0,1,.675,1.152.944.944,0,0,1-1.152.675,3.509,3.509,0,0,0-2.18,0A.946.946,0,0,1-9.059-10.075Z" transform="translate(10.002 12.167)"/>
          </g>
          <g id="g5915" transform="translate(26.951 33.778)">
            <path id="path5917" d="M-9.056-7.495A.944.944,0,0,1-10-8.438v-.618A.944.944,0,0,1-9.056-10a.944.944,0,0,1,.944.944v.618A.944.944,0,0,1-9.056-7.495Z" transform="translate(10 10)"/>
          </g>
          <g id="g5919" transform="translate(35.598 33.778)">
            <path id="path5921" d="M-9.056-7.495A.944.944,0,0,1-10-8.438v-.618A.944.944,0,0,1-9.056-10a.944.944,0,0,1,.944.944v.618A.944.944,0,0,1-9.056-7.495Z" transform="translate(10 10)"/>
          </g>
          <g id="g5923" transform="translate(30.632 38.167)">
            <path id="path5925" d="M-8.441-8.02A3.324,3.324,0,0,1-9.3-8.145.944.944,0,0,1-9.972-9.3.944.944,0,0,1-8.82-9.972a1.146,1.146,0,0,0,.758,0A.944.944,0,0,1-6.91-9.3a.944.944,0,0,1-.675,1.152A3.324,3.324,0,0,1-8.441-8.02Z" transform="translate(10.002 10.002)"/>
          </g>
          <g id="g5927" transform="translate(29.31 40.734)">
            <path id="path5929" d="M-48.232-7.615a4.938,4.938,0,0,1-2.4-.618A.944.944,0,0,1-51-9.517a.944.944,0,0,1,1.284-.366,3.068,3.068,0,0,0,2.963,0,.944.944,0,0,1,1.284.366.944.944,0,0,1-.366,1.284A4.937,4.937,0,0,1-48.232-7.615Z" transform="translate(51.116 10.002)"/>
          </g>
          <g id="g5931" transform="translate(46.692 39.199)">
            <path id="path5933" d="M-54.7-10a6.285,6.285,0,0,1,3.172.862A6.285,6.285,0,0,1-48.356-10c3.2,0,5.7,2.755,5.7,6.272,0,2.127-1,6.218-7.708,9.715a2.514,2.514,0,0,1-1.165.287A2.518,2.518,0,0,1-52.7,5.986c-6.7-3.5-7.7-7.586-7.7-9.714C-60.4-7.245-57.9-10-54.7-10Zm3.172,2.931a.943.943,0,0,1-.553-.179A4.471,4.471,0,0,0-54.7-8.112c-2.138,0-3.813,1.926-3.813,4.385,0,1.7.87,5,6.693,8.041a.631.631,0,0,0,.581,0c5.827-3.039,6.7-6.343,6.7-8.043,0-2.459-1.675-4.385-3.813-4.385a4.471,4.471,0,0,0-2.619.864A.943.943,0,0,1-51.527-7.069Z" transform="translate(60.4 10)"/>
          </g>
          <g id="g5935" transform="translate(0 6.378)">
            <path id="path5937" d="M-54.7-10a6.285,6.285,0,0,1,3.172.862A6.285,6.285,0,0,1-48.356-10c3.2,0,5.7,2.755,5.7,6.272,0,2.127-1,6.218-7.708,9.715a2.514,2.514,0,0,1-1.165.287A2.518,2.518,0,0,1-52.7,5.986c-6.7-3.5-7.7-7.586-7.7-9.714C-60.4-7.245-57.9-10-54.7-10Zm3.172,2.931a.943.943,0,0,1-.553-.179A4.471,4.471,0,0,0-54.7-8.112c-2.138,0-3.813,1.926-3.813,4.385,0,1.7.87,5,6.693,8.041a.631.631,0,0,0,.581,0c5.827-3.039,6.7-6.343,6.7-8.043,0-2.459-1.675-4.385-3.813-4.385a4.471,4.471,0,0,0-2.619.864A.943.943,0,0,1-51.527-7.069Z" transform="translate(60.4 10)"/>
          </g>
          <g id="g5939" transform="translate(41.204 26.583)">
            <path id="path5941" d="M-62.984-54.718h-3.753a2.815,2.815,0,0,1-2.811-2.811v-1.123a2.815,2.815,0,0,1,2.811-2.811h3.753a2.815,2.815,0,0,1,2.811,2.811v1.123A2.815,2.815,0,0,1-62.984-54.718Zm-3.753-4.858a.925.925,0,0,0-.924.924v1.123a.925.925,0,0,0,.924.924h3.753a.925.925,0,0,0,.924-.924v-1.123a.925.925,0,0,0-.924-.924Z" transform="translate(69.549 61.464)"/>
          </g>
        </g>
      </g>
    </g>
  </g>
</svg>
