<svg xmlns="http://www.w3.org/2000/svg" xmlns:xlink="http://www.w3.org/1999/xlink" width="138" height="138" viewBox="0 0 138 138">
  <defs>
    <filter id="Elipse_14842" x="0" y="0" width="138" height="138" filterUnits="userSpaceOnUse">
      <feOffset dy="3" input="SourceAlpha"/>
      <feGaussianBlur stdDeviation="3" result="blur"/>
      <feFlood flood-opacity="0.161"/>
      <feComposite operator="in" in2="blur"/>
      <feComposite in="SourceGraphic"/>
    </filter>
  </defs>
  <g id="Grupo_1143105" data-name="Grupo 1143105" transform="translate(-707.051 -678)">
    <g id="Grupo_1143035" data-name="Grupo 1143035" transform="translate(183.969 243.469)">
      <g transform="matrix(1, 0, 0, 1, 523.08, 434.53)" filter="url(#Elipse_14842)">
        <g id="Elipse_14842-2" data-name="Elipse 14842" transform="translate(9 6)" fill="#f6d530" stroke="#fff" stroke-width="3">
          <circle cx="60" cy="60" r="60" stroke="none"/>
          <circle cx="60" cy="60" r="58.5" fill="none"/>
        </g>
      </g>
    </g>
    <g id="rehabilitacion_1_" data-name="rehabilitacion (1)" transform="translate(744.051 712.044)">
      <circle id="Elipse_14937" data-name="Elipse 14937" cx="6" cy="6" r="6" transform="translate(19 10)" fill="#cce2ff"/>
      <path id="Trazado_904754" data-name="Trazado 904754" d="M38,32.37l-.82-.14A15.06,15.06,0,0,1,29,28h0a15.06,15.06,0,0,1-8.18,4.23l-.82.14h0a17.84,17.84,0,0,0,7.49,12.52L29,46l1.88-1.46A17.83,17.83,0,0,0,38,32.38Z" fill="#67cc6d"/>
      <path id="Trazado_904755" data-name="Trazado 904755" d="M34.81,15H32.5V10a2,2,0,0,0-2-2H27.71a2,2,0,0,0-2,2.2l.51,5.1a3,3,0,0,0,3,2.7h4.23l2.06,5h3l-2.76-7.35A1,1,0,0,0,34.81,15Z" fill="#4d9aff"/>
      <circle id="Elipse_14938" data-name="Elipse 14938" cx="2.5" cy="2.5" r="2.5" transform="translate(26.5 2)" fill="#ffd199"/>
      <circle id="Elipse_14939" data-name="Elipse 14939" cx="2.75" cy="2.75" r="2.75" transform="translate(3.75 38.5)" fill="#ffd199"/>
      <path id="Trazado_904756" data-name="Trazado 904756" d="M9.2,54l1.8-.9V47.25A2.25,2.25,0,0,0,8.75,45H4.25A2.25,2.25,0,0,0,2,47.25V53.1l1.8.9.9,8H8.3Z" fill="#4d9aff"/>
      <circle id="Elipse_14940" data-name="Elipse 14940" cx="3" cy="3" r="3" transform="translate(48.5 43)" fill="#ffd199"/>
      <path id="Trazado_904757" data-name="Trazado 904757" d="M56,62V54.5L62,47l-2-2-5,5H48l-5-5-2,2,6,7.5V62Z" fill="#4d9aff"/>
      <path id="Trazado_904758" data-name="Trazado 904758" d="M37.34,31.25a13.94,13.94,0,0,1-7.63-4,1,1,0,0,0-1.42,0,13.94,13.94,0,0,1-7.63,4l-.83.13a1,1,0,0,0-.82,1.1A18.78,18.78,0,0,0,26.9,45.7l1.51,1.11a1,1,0,0,0,1.2-.02l1.89-1.46A18.84,18.84,0,0,0,39,32.5h0a1,1,0,0,0-.82-1.11Zm-7.07,12.5-1.29,1-.9-.67a16.88,16.88,0,0,1-6.95-10.89A15.92,15.92,0,0,0,29,29.38a15.92,15.92,0,0,0,7.87,3.81A17,17,0,0,1,30.27,43.75Z"/>
      <path id="Trazado_904759" data-name="Trazado 904759" d="M27,36.15l-1.41,1.41,2.12,2.12a1,1,0,0,0,1.42,0l4.24-4.24L32,34l-3.54,3.53Z"/>
      <path id="Trazado_904760" data-name="Trazado 904760" d="M24.72,10.3l.51,5.1a4,4,0,0,0,4,3.6h3.56l1.81,4.38a1,1,0,0,0,.92.62h3a1.005,1.005,0,0,0,.94-1.35L36.68,15.3A2,2,0,0,0,34.81,14H33.5V10a3,3,0,0,0-2.2-2.88,3.5,3.5,0,1,0-4.54,0A2.88,2.88,0,0,0,25.49,8a3,3,0,0,0-.77,2.3ZM29,3a1.5,1.5,0,1,1-1.5,1.5A1.5,1.5,0,0,1,29,3ZM27,9.33A1,1,0,0,1,27.71,9H30.5a1,1,0,0,1,1,1v5a1,1,0,0,0,1,1h2.31l2.25,6h-.89l-1.81-4.38a1,1,0,0,0-.92-.62H29.21a2,2,0,0,1-2-1.8l-.52-5.1A1,1,0,0,1,27,9.33Z"/>
      <path id="Trazado_904761" data-name="Trazado 904761" d="M23.33,11.28,22.67,9.4A7,7,0,0,0,25,23a6.93,6.93,0,0,0,3.87-1.17l-1.11-1.66a5,5,0,1,1-4.43-8.89Z"/>
      <path id="Trazado_904762" data-name="Trazado 904762" d="M1.55,54l1.32.66.84,7.46a1,1,0,0,0,1,.89H8.3a1,1,0,0,0,1-.89l.84-7.46L11.45,54a1,1,0,0,0,.55-.9V47.25A3.24,3.24,0,0,0,9,44a3.75,3.75,0,1,0-5,0,3.24,3.24,0,0,0-3,3.22V53.1a1,1,0,0,0,.55.9Zm5-14.49a1.47,1.47,0,1,1-.05-.01ZM3,47.25A1.25,1.25,0,0,1,4.25,46h4.5A1.25,1.25,0,0,1,10,47.25v5.23l-1.25.63a1,1,0,0,0-.54.78L7.41,61H5.59l-.8-7.11a1,1,0,0,0-.54-.78L3,52.48Z"/>
      <path id="Trazado_904763" data-name="Trazado 904763" d="M62.71,46.29l-2-2a1,1,0,0,0-1.42,0L54.59,49h-.47a4,4,0,1,0-5.24,0h-.47l-4.7-4.71a1,1,0,0,0-1.42,0l-2,2a1,1,0,0,0-.07,1.33L46,54.85V62a1,1,0,0,0,1,1h9a1,1,0,0,0,1-1V54.85l5.78-7.23A1,1,0,0,0,62.71,46.29ZM51.5,44a2,2,0,1,1-2,2A2,2,0,0,1,51.5,44Zm3.72,9.88a1,1,0,0,0-.22.62V61H48V54.5a1,1,0,0,0-.22-.62l-5.44-6.81.66-.66,4.29,4.3A1,1,0,0,0,48,51h7a1,1,0,0,0,.71-.29L60,46.41l.66.66Z"/>
      <path id="Trazado_904764" data-name="Trazado 904764" d="M40.44,55.36l-.88-1.8A23.75,23.75,0,0,1,29,56a24.1,24.1,0,0,1-9.09-1.79l2.19-.43-.39-2-4.9,1a1.015,1.015,0,0,0-.71,1.44l2.3,4.44,1.78-.92-.83-1.59A26.19,26.19,0,0,0,29,58a25.84,25.84,0,0,0,11.44-2.64Z"/>
      <path id="Trazado_904765" data-name="Trazado 904765" d="M14.27,16.69l.71-5a1,1,0,0,0-1.13-1.13l-4.95.71.28,2,2.08-.3A25.74,25.74,0,0,0,3,32a18.082,18.082,0,0,0,.08,2.08l2-.16A15.335,15.335,0,0,1,5,32a23.8,23.8,0,0,1,7.56-17.49l-.27,1.9Z"/>
      <path id="Trazado_904766" data-name="Trazado 904766" d="M37.64,9.6A24.16,24.16,0,0,1,53,32a15.5,15.5,0,0,1-.08,1.93l-1.05-1.74-1.71,1,2.58,4.28a1,1,0,0,0,.76.47h.1a1,1,0,0,0,.73-.32L57.72,34l-1.47-1.36L54.91,34.1A16.4,16.4,0,0,0,55,32,26.17,26.17,0,0,0,38.36,7.74Z"/>
    </g>
  </g>
</svg>
