<svg xmlns="http://www.w3.org/2000/svg" width="90" height="90" viewBox="0 0 90 90">
  <g id="Grupo_1143243" data-name="Grupo 1143243" transform="translate(-283.051 -1921)">
    <g id="Grupo_1107788" data-name="Grupo 1107788" transform="translate(-51.73 -1912)">
      <g id="Grupo_1098742" data-name="Grupo 1098742" transform="translate(-868.539 3444.258)">
        <g id="Rect치ngulo_400898" data-name="Rect치ngulo 400898" transform="translate(1203.32 388.742)" fill="#fdbabb" stroke="#fff" stroke-width="3" opacity="0.859">
          <rect width="90" height="90" rx="45" stroke="none"/>
          <rect x="1.5" y="1.5" width="87" height="87" rx="43.5" fill="none"/>
        </g>
        <g id="Rect치ngulo_400907" data-name="Rect치ngulo 400907" transform="translate(1203.32 388.742)" fill="none" stroke="#fff" stroke-width="3">
          <rect width="90" height="90" rx="45" stroke="none"/>
          <rect x="1.5" y="1.5" width="87" height="87" rx="43.5" fill="none"/>
        </g>
      </g>
    </g>
    <g id="Layer_21" transform="translate(298.051 1931.018)">
      <g id="Grupo_1143242" data-name="Grupo 1143242" transform="translate(0 5.983)">
        <g id="Grupo_1143131" data-name="Grupo 1143131" transform="translate(27.433 20.572)">
          <g id="Grupo_1143130" data-name="Grupo 1143130">
            <circle id="Elipse_14948" data-name="Elipse 14948" cx="2.649" cy="2.649" r="2.649" fill="#f9d0b4"/>
          </g>
        </g>
        <g id="Grupo_1143133" data-name="Grupo 1143133" transform="translate(17.039 19.172)">
          <g id="Grupo_1143132" data-name="Grupo 1143132">
            <path id="Trazado_904829" data-name="Trazado 904829" d="M97.973,87.914a1.449,1.449,0,0,0-1.97.379l-4.26,5.829L87.637,96.56a2.793,2.793,0,0,1-1.426.391H85.073a2.793,2.793,0,0,1-1.426-.391l-4.3-2.554-4.26-5.829a1.449,1.449,0,0,0-1.97-.379,1.41,1.41,0,0,0-.342,2l4.465,6.11a1.41,1.41,0,0,0,.419.381l3.718,2.346,0,0a.618.618,0,0,1,.289.534l.059,8.6h7.638l.059-8.479a.617.617,0,0,1,.289-.534l0,0L93.432,96.4a1.41,1.41,0,0,0,.419-.381l4.465-6.11A1.41,1.41,0,0,0,97.973,87.914Z" transform="translate(-72.5 -87.561)" fill="#f9d0b4"/>
          </g>
        </g>
        <g id="Grupo_1143135" data-name="Grupo 1143135" transform="translate(48.114 20.572)">
          <g id="Grupo_1143134" data-name="Grupo 1143134">
            <circle id="Elipse_14949" data-name="Elipse 14949" cx="2.649" cy="2.649" r="2.649" fill="#f9d0b4"/>
          </g>
        </g>
        <g id="Grupo_1143137" data-name="Grupo 1143137" transform="translate(37.25 19.172)">
          <g id="Grupo_1143136" data-name="Grupo 1143136">
            <path id="Trazado_904830" data-name="Trazado 904830" d="M161.084,88.176a1.449,1.449,0,0,0-1.97-.379,1.41,1.41,0,0,0-.342,2l.963,1.317,1.746-2.39Z" transform="translate(-158.5 -87.561)" fill="#f9d0b4"/>
          </g>
        </g>
        <g id="Grupo_1143139" data-name="Grupo 1143139" transform="translate(40.231 22.721)">
          <g id="Grupo_1143138" data-name="Grupo 1143138">
            <path id="Trazado_904831" data-name="Trazado 904831" d="M190.461,115.283c-1.166-3.872-.581-2.153-1.537-5.173a2.3,2.3,0,0,0-2.193-1.606h-5.956a2.793,2.793,0,0,1-1.426-.391l-4.3-2.554-2.116-2.9-1.746,2.39,1.756,2.4a1.41,1.41,0,0,0,.419.381l3.718,2.346,0,0a.618.618,0,0,1,.289.534l.059,8.6h7.638l.053-6.764a.77.77,0,0,1,1.506-.216l1.064,3.536-.671,7.189a1.449,1.449,0,0,0,1.224,1.589,1.41,1.41,0,0,0,1.578-1.268l.7-7.535A1.416,1.416,0,0,0,190.461,115.283Z" transform="translate(-171.183 -102.662)" fill="#f9d0b4"/>
          </g>
        </g>
        <g id="Grupo_1143141" data-name="Grupo 1143141" transform="translate(5.651 19.474)">
          <g id="Grupo_1143140" data-name="Grupo 1143140" transform="translate(0 0)">
            <circle id="Elipse_14950" data-name="Elipse 14950" cx="2.649" cy="2.649" r="2.649" transform="translate(0 3.746) rotate(-45)" fill="#f9d0b4"/>
          </g>
        </g>
        <g id="Grupo_1143143" data-name="Grupo 1143143" transform="translate(19.976 19.172)">
          <g id="Grupo_1143142" data-name="Grupo 1143142">
            <path id="Trazado_904832" data-name="Trazado 904832" d="M87.324,87.8a1.449,1.449,0,0,0-1.97.379L85,88.661l1.746,2.39.92-1.259A1.41,1.41,0,0,0,87.324,87.8Z" transform="translate(-85 -87.561)" fill="#f9d0b4"/>
          </g>
        </g>
        <g id="Grupo_1143145" data-name="Grupo 1143145" transform="translate(0.588 22.662)">
          <g id="Grupo_1143144" data-name="Grupo 1143144">
            <path id="Trazado_904833" data-name="Trazado 904833" d="M20.143,102.412l-2.159,2.955-4.3,2.554a2.793,2.793,0,0,1-1.426.391H6.3A2.3,2.3,0,0,0,4.1,109.918c-.956,3.02-.37,1.3-1.537,5.173a1.412,1.412,0,0,0-.062.563l.7,7.535a1.41,1.41,0,0,0,1.578,1.268,1.449,1.449,0,0,0,1.224-1.589l-.671-7.189,1.064-3.536a.77.77,0,0,1,1.506.216l.053,6.764H15.6l.059-8.6a.617.617,0,0,1,.289-.534l0,0,3.718-2.346a1.41,1.41,0,0,0,.419-.381l1.8-2.462Z" transform="translate(-2.5 -102.412)" fill="#f9d0b4"/>
          </g>
        </g>
        <g id="Grupo_1143147" data-name="Grupo 1143147" transform="translate(22.668 25.986)">
          <g id="Grupo_1143146" data-name="Grupo 1143146">
            <path id="Trazado_904834" data-name="Trazado 904834" d="M109.511,116.635l-3.549,2.106a2.793,2.793,0,0,1-1.426.391H103.4a2.793,2.793,0,0,1-1.426-.391l-3.682-2.185-1.836,2.208L99.7,120.81l0,0a.618.618,0,0,1,.289.534l.059,8.6h7.638l.059-8.479a.617.617,0,0,1,.289-.534l0,0,3.308-2.087Z" transform="translate(-96.454 -116.556)" fill="#70d6f9"/>
          </g>
        </g>
        <g id="Grupo_1143149" data-name="Grupo 1143149" transform="translate(42.88 25.986)">
          <g id="Grupo_1143148" data-name="Grupo 1143148">
            <path id="Trazado_904835" data-name="Trazado 904835" d="M197.547,120.738a2.3,2.3,0,0,0-2.193-1.606H189.4a2.793,2.793,0,0,1-1.426-.391l-3.682-2.185-1.836,2.208,3.244,2.047,0,0a.618.618,0,0,1,.289.534l.059,8.6h7.638l.053-6.764a.77.77,0,0,1,1.506-.216l.908,3.019,2.707-.812c-.867-2.907-.426-1.626-1.314-4.431Z" transform="translate(-182.454 -116.556)" fill="#f5c84c"/>
          </g>
        </g>
        <g id="Grupo_1143151" data-name="Grupo 1143151" transform="translate(0.878 25.986)">
          <g id="Grupo_1143150" data-name="Grupo 1143150">
            <path id="Trazado_904836" data-name="Trazado 904836" d="M18.3,116.556l-3.682,2.185a2.793,2.793,0,0,1-1.426.391H7.242a2.3,2.3,0,0,0-2.193,1.606c-.888,2.805-.447,1.524-1.314,4.432l2.707.812.908-3.019a.77.77,0,0,1,1.506.216l.053,6.764h7.638l.059-8.6a.617.617,0,0,1,.289-.534l0,0,3.244-2.047Z" transform="translate(-3.734 -116.556)" fill="#fc657e"/>
          </g>
        </g>
        <g id="Grupo_1143153" data-name="Grupo 1143153" transform="translate(26.263 39.373)">
          <g id="Grupo_1143152" data-name="Grupo 1143152">
            <path id="Trazado_904837" data-name="Trazado 904837" d="M111.75,173.517V189.5a1.41,1.41,0,0,0,2.82,0V177.571a1,1,0,0,1,2,0V189.5a1.41,1.41,0,0,0,2.82,0V173.517Z" transform="translate(-111.75 -173.517)" fill="#5290db"/>
          </g>
        </g>
        <g id="Grupo_1143155" data-name="Grupo 1143155" transform="translate(46.475 39.373)">
          <g id="Grupo_1143154" data-name="Grupo 1143154">
            <path id="Trazado_904838" data-name="Trazado 904838" d="M197.75,173.517V189.5a1.41,1.41,0,0,0,2.82,0V177.571a1,1,0,0,1,2,0V189.5a1.41,1.41,0,0,0,2.82,0V173.517Z" transform="translate(-197.75 -173.517)" fill="#5290db"/>
          </g>
        </g>
        <g id="Grupo_1143157" data-name="Grupo 1143157" transform="translate(6.052 39.373)">
          <g id="Grupo_1143156" data-name="Grupo 1143156">
            <path id="Trazado_904839" data-name="Trazado 904839" d="M25.75,173.517V189.5a1.41,1.41,0,0,0,2.82,0V177.571a1,1,0,0,1,2,0V189.5a1.41,1.41,0,0,0,2.82,0V173.517Z" transform="translate(-25.75 -173.517)" fill="#5290db"/>
          </g>
        </g>
        <g id="Grupo_1143159" data-name="Grupo 1143159" transform="translate(26.263 53.709)">
          <g id="Grupo_1143158" data-name="Grupo 1143158">
            <path id="Trazado_904840" data-name="Trazado 904840" d="M111.75,234.517v1.645a1.41,1.41,0,0,0,2.82,0v-1.645Z" transform="translate(-111.75 -234.517)" fill="#818182"/>
          </g>
        </g>
        <g id="Grupo_1143161" data-name="Grupo 1143161" transform="translate(31.081 53.709)">
          <g id="Grupo_1143160" data-name="Grupo 1143160">
            <path id="Trazado_904841" data-name="Trazado 904841" d="M132.25,234.517v1.645a1.41,1.41,0,0,0,2.82,0v-1.645Z" transform="translate(-132.25 -234.517)" fill="#818182"/>
          </g>
        </g>
        <g id="Grupo_1143163" data-name="Grupo 1143163" transform="translate(46.475 53.709)">
          <g id="Grupo_1143162" data-name="Grupo 1143162">
            <path id="Trazado_904842" data-name="Trazado 904842" d="M197.75,234.517v1.645a1.41,1.41,0,0,0,2.82,0v-1.645Z" transform="translate(-197.75 -234.517)" fill="#818182"/>
          </g>
        </g>
        <g id="Grupo_1143165" data-name="Grupo 1143165" transform="translate(51.292 53.709)">
          <g id="Grupo_1143164" data-name="Grupo 1143164">
            <path id="Trazado_904843" data-name="Trazado 904843" d="M218.25,234.517v1.645a1.41,1.41,0,0,0,2.82,0v-1.645Z" transform="translate(-218.25 -234.517)" fill="#818182"/>
          </g>
        </g>
        <g id="Grupo_1143167" data-name="Grupo 1143167" transform="translate(10.87 53.709)">
          <g id="Grupo_1143166" data-name="Grupo 1143166">
            <path id="Trazado_904844" data-name="Trazado 904844" d="M46.25,234.517v1.645a1.41,1.41,0,0,0,2.82,0v-1.645Z" transform="translate(-46.25 -234.517)" fill="#818182"/>
          </g>
        </g>
        <g id="Grupo_1143169" data-name="Grupo 1143169" transform="translate(6.052 53.709)">
          <g id="Grupo_1143168" data-name="Grupo 1143168">
            <path id="Trazado_904845" data-name="Trazado 904845" d="M25.75,234.517v1.645a1.41,1.41,0,0,0,2.82,0v-1.645Z" transform="translate(-25.75 -234.517)" fill="#818182"/>
          </g>
        </g>
        <g id="Grupo_1143171" data-name="Grupo 1143171" transform="translate(21.437 0.588)">
          <g id="Grupo_1143170" data-name="Grupo 1143170">
            <path id="Trazado_904846" data-name="Trazado 904846" d="M108.308,15.828H106.6a.2.2,0,0,1-.193-.157,6.663,6.663,0,0,0-.888-2.142.2.2,0,0,1,.026-.247l1.208-1.208a.2.2,0,0,0,0-.279l-1.559-1.559a.2.2,0,0,0-.279,0l-1.208,1.208a.2.2,0,0,1-.247.026,6.668,6.668,0,0,0-2.142-.888.2.2,0,0,1-.157-.193V8.68a.2.2,0,0,0-.2-.2h-2.2a.2.2,0,0,0-.2.2v1.709a.2.2,0,0,1-.157.193,6.663,6.663,0,0,0-2.142.888.2.2,0,0,1-.247-.026l-1.208-1.208a.2.2,0,0,0-.279,0l-1.559,1.559a.2.2,0,0,0,0,.279l1.208,1.208a.2.2,0,0,1,.026.247,6.668,6.668,0,0,0-.888,2.142.2.2,0,0,1-.193.157H91.413a.2.2,0,0,0-.2.2v2.2a.2.2,0,0,0,.2.2h1.709a.2.2,0,0,1,.193.157,6.663,6.663,0,0,0,.888,2.142.2.2,0,0,1-.026.247l-1.208,1.208a.2.2,0,0,0,0,.279l1.559,1.559a.2.2,0,0,0,.279,0l1.208-1.208a.2.2,0,0,1,.247-.026,6.668,6.668,0,0,0,2.142.888.2.2,0,0,1,.157.193v1.709a.2.2,0,0,0,.2.2h2.2a.2.2,0,0,0,.2-.2V23.867a.2.2,0,0,1,.157-.193,6.663,6.663,0,0,0,2.142-.888.2.2,0,0,1,.247.026l1.208,1.208a.2.2,0,0,0,.279,0l1.559-1.559a.2.2,0,0,0,0-.279l-1.208-1.208a.2.2,0,0,1-.026-.247,6.668,6.668,0,0,0,.888-2.142.2.2,0,0,1,.193-.157h1.709a.2.2,0,0,0,.2-.2v-2.2A.2.2,0,0,0,108.308,15.828Z" transform="translate(-91.216 -8.483)" fill="#dae6f1"/>
          </g>
        </g>
        <g id="Grupo_1143173" data-name="Grupo 1143173" transform="translate(25.661 4.849)">
          <g id="Grupo_1143172" data-name="Grupo 1143172">
            <circle id="Elipse_14951" data-name="Elipse 14951" cx="4.421" cy="4.421" r="4.421" fill="#70d6f9"/>
          </g>
        </g>
        <g id="Grupo_1143175" data-name="Grupo 1143175" transform="translate(38.178 45.597)">
          <g id="Grupo_1143174" data-name="Grupo 1143174">
            <path id="Trazado_904847" data-name="Trazado 904847" d="M166.763,202.08a2.608,2.608,0,0,1-2.092-2.045c0-.047-.094-.047-.094,0a2.608,2.608,0,0,1-2.092,2.045c-.047,0-.047.07,0,.094a2.608,2.608,0,0,1,2.092,2.045c0,.047.094.047.094,0a2.608,2.608,0,0,1,2.092-2.045C166.81,202.15,166.81,202.08,166.763,202.08Z" transform="translate(-162.45 -200)" fill="#f5c84c"/>
          </g>
        </g>
        <g id="Grupo_1143177" data-name="Grupo 1143177" transform="translate(12.158 14.34)">
          <g id="Grupo_1143176" data-name="Grupo 1143176">
            <path id="Trazado_904848" data-name="Trazado 904848" d="M54.76,68.46a1.83,1.83,0,0,1-1.468-1.435c0-.033-.066-.033-.066,0a1.83,1.83,0,0,1-1.468,1.435c-.033,0-.033.05,0,.066a1.83,1.83,0,0,1,1.468,1.435c0,.033.066.033.066,0a1.83,1.83,0,0,1,1.468-1.435C54.793,68.51,54.793,68.46,54.76,68.46Z" transform="translate(-51.734 -67.001)" fill="#f5c84c"/>
          </g>
        </g>
        <g id="Grupo_1143179" data-name="Grupo 1143179" transform="translate(44.301 6.725)">
          <g id="Grupo_1143178" data-name="Grupo 1143178">
            <path id="Trazado_904849" data-name="Trazado 904849" d="M191.837,35.893H191.3v-.541a.757.757,0,0,0-.752-.752.742.742,0,0,0-.752.752v.541h-.541a.757.757,0,0,0-.752.752.742.742,0,0,0,.752.752h.541v.541a.757.757,0,0,0,.752.752.742.742,0,0,0,.752-.752V37.4h.541a.757.757,0,0,0,.752-.752A.742.742,0,0,0,191.837,35.893Z" transform="translate(-188.5 -34.6)" fill="#70d6f9"/>
          </g>
        </g>
        <g id="Grupo_1143181" data-name="Grupo 1143181" transform="translate(36.992 53.353)">
          <g id="Grupo_1143180" data-name="Grupo 1143180">
            <path id="Trazado_904850" data-name="Trazado 904850" d="M158.2,233a.8.8,0,1,0,.8.8A.8.8,0,0,0,158.2,233Z" transform="translate(-157.4 -233)" fill="#fc657e"/>
          </g>
        </g>
        <g id="Grupo_1143183" data-name="Grupo 1143183" transform="translate(41.457 1.884)">
          <g id="Grupo_1143182" data-name="Grupo 1143182">
            <path id="Trazado_904851" data-name="Trazado 904851" d="M177.2,14a.8.8,0,1,0,.8.8A.8.8,0,0,0,177.2,14Z" transform="translate(-176.4 -14)" fill="#87d147"/>
          </g>
        </g>
        <g id="Grupo_1143186" data-name="Grupo 1143186" transform="translate(26.845 19.984)">
          <g id="Grupo_1143185" data-name="Grupo 1143185">
            <g id="Grupo_1143184" data-name="Grupo 1143184">
              <path id="Trazado_904852" data-name="Trazado 904852" d="M117.464,91.017a3.237,3.237,0,1,0,3.237,3.237,3.241,3.241,0,0,0-3.237-3.237Zm0,5.3a2.062,2.062,0,1,1,2.062-2.062,2.064,2.064,0,0,1-2.062,2.062Z" transform="translate(-114.227 -91.017)"/>
            </g>
          </g>
        </g>
        <g id="Grupo_1143189" data-name="Grupo 1143189" transform="translate(16.451 18.588)">
          <g id="Grupo_1143188" data-name="Grupo 1143188">
            <g id="Grupo_1143187" data-name="Grupo 1143187">
              <path id="Trazado_904853" data-name="Trazado 904853" d="M97.231,86.838a1.983,1.983,0,0,0-.84-1.311,2.044,2.044,0,0,0-2.776.517l-4.189,5.732-4,2.375a2.207,2.207,0,0,1-1.126.309H83.159a2.209,2.209,0,0,1-1.126-.309l-4.2-2.493-4.189-5.732a2.043,2.043,0,0,0-2.776-.517,2,2,0,0,0-.484,2.827l4.465,6.11a1.959,1.959,0,0,0,.58.531l3.727,2.35a.07.07,0,0,1,.008.038l.059,8.6a.588.588,0,0,0,.588.584h7.638a.588.588,0,0,0,.588-.584l.059-8.483c0-.02.006-.032,0-.029l.005,0,.01-.006L91.816,95a1.981,1.981,0,0,0,.593-.539l4.465-6.11a1.979,1.979,0,0,0,.357-1.515Zm-1.3.822-4.465,6.11A.841.841,0,0,1,91.2,94L87.49,96.344a1.206,1.206,0,0,0-.57,1.031l-.055,7.9H80.394l-.055-8.009a1.209,1.209,0,0,0-.57-1.035l-3.727-2.351a.816.816,0,0,1-.244-.222l-4.465-6.11a.822.822,0,0,1,.2-1.164.86.86,0,0,1,1.163.241l4.26,5.829a.59.59,0,0,0,.175.159l4.3,2.554a3.383,3.383,0,0,0,1.726.474H84.3a3.383,3.383,0,0,0,1.726-.474l4.106-2.437a.587.587,0,0,0,.175-.159l4.26-5.829a.86.86,0,0,1,1.163-.241.822.822,0,0,1,.2,1.164Z" transform="translate(-69.998 -85.073)"/>
            </g>
          </g>
        </g>
        <g id="Grupo_1143192" data-name="Grupo 1143192" transform="translate(47.527 19.984)">
          <g id="Grupo_1143191" data-name="Grupo 1143191">
            <g id="Grupo_1143190" data-name="Grupo 1143190">
              <path id="Trazado_904854" data-name="Trazado 904854" d="M205.465,91.017a3.237,3.237,0,1,0,3.237,3.237A3.24,3.24,0,0,0,205.465,91.017Zm0,5.3a2.062,2.062,0,1,1,2.062-2.062A2.064,2.064,0,0,1,205.465,96.316Z" transform="translate(-202.228 -91.017)"/>
            </g>
          </g>
        </g>
        <g id="Grupo_1143194" data-name="Grupo 1143194" transform="translate(36.662 18.588)">
          <g id="Grupo_1143193" data-name="Grupo 1143193">
            <path id="Trazado_904855" data-name="Trazado 904855" d="M159.96,86.36l-.317-.434a2.043,2.043,0,0,0-2.776-.517,2,2,0,0,0-.484,2.827l.856,1.171a.588.588,0,1,0,.949-.693l-.856-1.171a.822.822,0,0,1,.2-1.164.861.861,0,0,1,1.163.241l.317.434a.587.587,0,1,0,.949-.693Z" transform="translate(-155.997 -85.073)"/>
          </g>
        </g>
        <g id="Grupo_1143196" data-name="Grupo 1143196" transform="translate(39.746 22.29)">
          <g id="Grupo_1143195" data-name="Grupo 1143195">
            <path id="Trazado_904856" data-name="Trazado 904856" d="M189.446,113.711c-.55-1.826-.708-2.4-.824-2.822-.13-.472-.208-.758-.715-2.359a2.877,2.877,0,0,0-2.753-2.016H179.2a2.209,2.209,0,0,1-1.126-.309l-4.2-2.493-1.931-2.642a.588.588,0,1,0-.949.694l2,2.739a.59.59,0,0,0,.175.159l4.3,2.554a3.383,3.383,0,0,0,1.726.474h5.956a1.707,1.707,0,0,1,1.633,1.2c.5,1.58.576,1.857.7,2.316.117.426.278,1.01.835,2.86a.815.815,0,0,1,.036.328l-.7,7.535a.823.823,0,0,1-.921.74.861.861,0,0,1-.711-.952l.671-7.189a.587.587,0,0,0-.022-.224l-1.064-3.536a1.352,1.352,0,0,0-1.279-.966,1.357,1.357,0,0,0-1.377,1.346l-.048,6.181h-6.472l-.055-8.01a1.206,1.206,0,0,0-.568-1.034l0,0-3.725-2.35a.819.819,0,0,1-.244-.222l-1.653-2.262a.588.588,0,0,0-.949.694l1.653,2.262a1.964,1.964,0,0,0,.58.531l3.718,2.346.011.007a.079.079,0,0,1,.007.036l.059,8.6a.588.588,0,0,0,.588.584h7.638a.588.588,0,0,0,.588-.583l.053-6.764a.181.181,0,0,1,.055-.129.2.2,0,0,1,.13-.052.181.181,0,0,1,.172.13l1.031,3.427-.661,7.075a2,2,0,0,0,1.988,2.243,2,2,0,0,0,1.984-1.812l.7-7.535a1.977,1.977,0,0,0-.084-.787Z" transform="translate(-169.121 -100.829)"/>
          </g>
        </g>
        <g id="Grupo_1143199" data-name="Grupo 1143199" transform="translate(6.164 19.984)">
          <g id="Grupo_1143198" data-name="Grupo 1143198">
            <g id="Grupo_1143197" data-name="Grupo 1143197">
              <path id="Trazado_904857" data-name="Trazado 904857" d="M29.464,91.017A3.237,3.237,0,1,0,32.7,94.254,3.241,3.241,0,0,0,29.464,91.017Zm0,5.3a2.062,2.062,0,1,1,2.062-2.062A2.064,2.064,0,0,1,29.464,96.316Z" transform="translate(-26.227 -91.017)"/>
            </g>
          </g>
        </g>
        <g id="Grupo_1143201" data-name="Grupo 1143201" transform="translate(19.456 18.588)">
          <g id="Grupo_1143200" data-name="Grupo 1143200">
            <path id="Trazado_904858" data-name="Trazado 904858" d="M86.8,86.721a1.983,1.983,0,0,0-.84-1.312,2.044,2.044,0,0,0-2.777.518l-.286.392a.588.588,0,1,0,.949.694l.287-.393a.86.86,0,0,1,1.163-.241.822.822,0,0,1,.2,1.164L84.652,88.7a.588.588,0,1,0,.949.693l.846-1.157A1.982,1.982,0,0,0,86.8,86.721Z" transform="translate(-82.786 -85.073)"/>
          </g>
        </g>
        <g id="Grupo_1143203" data-name="Grupo 1143203" transform="translate(0 22.234)">
          <g id="Grupo_1143202" data-name="Grupo 1143202">
            <path id="Trazado_904859" data-name="Trazado 904859" d="M20.209,103.091a.588.588,0,0,0-.821.128L17.7,105.524a.837.837,0,0,1-.258.23L13.734,108.1a1.207,1.207,0,0,0-.573,1.033l-.055,8.013H6.634l-.048-6.181a1.357,1.357,0,0,0-2.657-.38l-1.064,3.536a.587.587,0,0,0-.022.224l.671,7.189a.861.861,0,0,1-.711.952.823.823,0,0,1-.921-.74l-.7-7.535a.833.833,0,0,1,.039-.339c.554-1.839.714-2.423.832-2.85.126-.459.2-.736.7-2.316a1.707,1.707,0,0,1,1.633-1.2h5.956a3.382,3.382,0,0,0,1.725-.474l4.3-2.554a.587.587,0,0,0,.175-.159l2.042-2.795a.588.588,0,1,0-.949-.694l-1.971,2.7-4.2,2.494a2.205,2.205,0,0,1-1.126.309H4.385a2.877,2.877,0,0,0-2.753,2.016c-.507,1.6-.585,1.886-.715,2.359-.116.42-.274,1-.82,2.812a1.986,1.986,0,0,0-.087.8l.7,7.535A2,2,0,0,0,2.7,123.663a2.056,2.056,0,0,0,.251-.016,2.044,2.044,0,0,0,1.737-2.227l-.661-7.075,1.031-3.427a.182.182,0,0,1,.172-.13h0a.182.182,0,0,1,.182.181l.053,6.764a.588.588,0,0,0,.588.583H13.69a.588.588,0,0,0,.588-.584l.059-8.6a.049.049,0,0,1,.01-.034l.008,0,3.7-2.337a1.987,1.987,0,0,0,.593-.539l1.685-2.306a.587.587,0,0,0-.128-.821Z" transform="translate(0 -100.591)"/>
          </g>
        </g>
        <g id="Grupo_1143206" data-name="Grupo 1143206" transform="translate(20.85 0)">
          <g id="Grupo_1143205" data-name="Grupo 1143205">
            <g id="Grupo_1143204" data-name="Grupo 1143204">
              <path id="Trazado_904860" data-name="Trazado 904860" d="M106.4,13.328h-1.4a7.234,7.234,0,0,0-.729-1.76l.992-.992a.784.784,0,0,0,0-1.11L103.7,7.908a.785.785,0,0,0-1.11,0L101.6,8.9a7.234,7.234,0,0,0-1.76-.729v-1.4a.786.786,0,0,0-.785-.785h-2.2a.786.786,0,0,0-.785.785v1.4A7.233,7.233,0,0,0,94.3,8.9l-.992-.992a.785.785,0,0,0-1.11,0L90.642,9.466a.785.785,0,0,0,0,1.11l.992.992a7.235,7.235,0,0,0-.729,1.76H89.5a.786.786,0,0,0-.785.785v2.2a.786.786,0,0,0,.785.785h1.4a7.235,7.235,0,0,0,.729,1.76l-.992.992a.786.786,0,0,0,0,1.11L92.2,22.523a.8.8,0,0,0,1.11,0l.992-.992a7.237,7.237,0,0,0,1.76.729v1.4a.786.786,0,0,0,.785.785h2.2a.786.786,0,0,0,.785-.785v-1.4a7.224,7.224,0,0,0,1.76-.729l.992.992a.8.8,0,0,0,1.11,0l1.559-1.559a.786.786,0,0,0,0-1.11l-.992-.992a7.23,7.23,0,0,0,.729-1.76h1.4a.786.786,0,0,0,.785-.785v-2.2a.786.786,0,0,0-.785-.785Zm-.39,2.6h-1.319a.781.781,0,0,0-.766.617,6.061,6.061,0,0,1-.81,1.954.782.782,0,0,0,.106.978l.933.933-1.007,1.007-.933-.933a.781.781,0,0,0-.978-.106,6.056,6.056,0,0,1-1.954.81.781.781,0,0,0-.617.766v1.319H97.237V21.954a.781.781,0,0,0-.617-.766,6.058,6.058,0,0,1-1.953-.809.781.781,0,0,0-.979.106l-.933.933-1.007-1.007.933-.933a.782.782,0,0,0,.105-.978,6.062,6.062,0,0,1-.81-1.954.781.781,0,0,0-.766-.617H89.892V14.5H91.21a.781.781,0,0,0,.766-.617,6.059,6.059,0,0,1,.81-1.954.782.782,0,0,0-.106-.978l-.933-.933,1.007-1.007.933.933a.781.781,0,0,0,.978.106,6.064,6.064,0,0,1,1.953-.81.781.781,0,0,0,.618-.766V7.158h1.424V8.477a.781.781,0,0,0,.617.766,6.065,6.065,0,0,1,1.954.809.781.781,0,0,0,.979-.106l.933-.933,1.007,1.007-.933.933a.782.782,0,0,0-.105.978,6.064,6.064,0,0,1,.81,1.954.781.781,0,0,0,.766.617h1.319v1.424Z" transform="translate(-88.717 -5.983)"/>
            </g>
          </g>
        </g>
        <g id="Grupo_1143208" data-name="Grupo 1143208" transform="translate(28.006 7.985)">
          <g id="Grupo_1143207" data-name="Grupo 1143207">
            <path id="Trazado_904861" data-name="Trazado 904861" d="M123.354,40.132a.587.587,0,0,0-.831,0l-1.556,1.556-.8-.8a.588.588,0,0,0-.831.831l1.213,1.213a.588.588,0,0,0,.831,0l1.971-1.971A.587.587,0,0,0,123.354,40.132Z" transform="translate(-119.166 -39.96)"/>
          </g>
        </g>
        <g id="Grupo_1143211" data-name="Grupo 1143211" transform="translate(25.073 4.261)">
          <g id="Grupo_1143210" data-name="Grupo 1143210">
            <g id="Grupo_1143209" data-name="Grupo 1143209">
              <path id="Trazado_904862" data-name="Trazado 904862" d="M111.7,24.115a5.009,5.009,0,1,0,5.009,5.008,5.014,5.014,0,0,0-5.009-5.008Zm0,8.842a3.833,3.833,0,1,1,3.834-3.833A3.838,3.838,0,0,1,111.7,32.957Z" transform="translate(-106.688 -24.115)"/>
            </g>
          </g>
        </g>
        <g id="Grupo_1143213" data-name="Grupo 1143213" transform="translate(35.228 25.587)">
          <g id="Grupo_1143212" data-name="Grupo 1143212">
            <path id="Trazado_904863" data-name="Trazado 904863" d="M152.565,117.026l-1.629-1.958a.588.588,0,0,0-.9.752l1.629,1.958a.588.588,0,0,0,.9-.752Z" transform="translate(-149.897 -114.856)"/>
          </g>
        </g>
        <g id="Grupo_1143215" data-name="Grupo 1143215" transform="translate(22.191 25.555)">
          <g id="Grupo_1143214" data-name="Grupo 1143214">
            <path id="Trazado_904864" data-name="Trazado 904864" d="M96.984,114.857a.588.588,0,0,0-.827.076l-1.6,1.918a.587.587,0,1,0,.9.752l1.6-1.918a.587.587,0,0,0-.076-.827Z" transform="translate(-94.425 -114.721)"/>
          </g>
        </g>
        <g id="Grupo_1143217" data-name="Grupo 1143217" transform="translate(56.227 34.074)">
          <g id="Grupo_1143216" data-name="Grupo 1143216">
            <path id="Trazado_904865" data-name="Trazado 904865" d="M242.665,151.388a.588.588,0,0,0-.732-.394l-2.269.681A.588.588,0,1,0,240,152.8l2.269-.681a.587.587,0,0,0,.394-.732Z" transform="translate(-239.246 -150.97)"/>
          </g>
        </g>
        <g id="Grupo_1143219" data-name="Grupo 1143219" transform="translate(42.393 25.535)">
          <g id="Grupo_1143218" data-name="Grupo 1143218">
            <path id="Trazado_904866" data-name="Trazado 904866" d="M182.969,114.77a.588.588,0,0,0-.827.076l-1.622,1.95a.587.587,0,1,0,.9.752l1.622-1.95A.587.587,0,0,0,182.969,114.77Z" transform="translate(-180.383 -114.634)"/>
          </g>
        </g>
        <g id="Grupo_1143221" data-name="Grupo 1143221" transform="translate(0.464 34.065)">
          <g id="Grupo_1143220" data-name="Grupo 1143220">
            <path id="Trazado_904867" data-name="Trazado 904867" d="M5.111,151.67l-2.381-.714a.588.588,0,1,0-.338,1.125l2.381.714a.588.588,0,1,0,.338-1.125Z" transform="translate(-1.974 -150.931)"/>
          </g>
        </g>
        <g id="Grupo_1143223" data-name="Grupo 1143223" transform="translate(14.985 25.549)">
          <g id="Grupo_1143222" data-name="Grupo 1143222">
            <path id="Trazado_904868" data-name="Trazado 904868" d="M66.4,116.825l-1.6-1.919a.588.588,0,0,0-.9.752l1.6,1.919a.588.588,0,0,0,.9-.752Z" transform="translate(-63.763 -114.694)"/>
          </g>
        </g>
        <g id="Grupo_1143225" data-name="Grupo 1143225" transform="translate(25.676 38.785)">
          <g id="Grupo_1143224" data-name="Grupo 1143224">
            <path id="Trazado_904869" data-name="Trazado 904869" d="M117.476,171.015a.587.587,0,0,0-.588.588v15.981a.815.815,0,0,1-.25.59.823.823,0,0,1-1.4-.591V175.657a1.586,1.586,0,1,0-3.173,0v11.927a.815.815,0,0,1-.25.59.823.823,0,0,1-1.4-.591V171.6a.588.588,0,1,0-1.175,0v15.981a2,2,0,1,0,4,0V175.657a.411.411,0,1,1,.823,0v11.927a1.988,1.988,0,0,0,1.937,2h.062a2,2,0,0,0,2-2V171.6A.587.587,0,0,0,117.476,171.015Z" transform="translate(-109.25 -171.015)"/>
          </g>
        </g>
        <g id="Grupo_1143227" data-name="Grupo 1143227" transform="translate(45.887 38.786)">
          <g id="Grupo_1143226" data-name="Grupo 1143226">
            <path id="Trazado_904870" data-name="Trazado 904870" d="M203.476,171.017a.587.587,0,0,0-.588.588v15.981a.816.816,0,0,1-.25.591.823.823,0,0,1-1.4-.591V175.659a1.586,1.586,0,0,0-3.173,0v11.927a.816.816,0,0,1-.25.591.823.823,0,0,1-1.4-.591V171.6a.588.588,0,1,0-1.175,0v15.981a2,2,0,1,0,4,0V175.659a.411.411,0,0,1,.823,0v11.927a1.988,1.988,0,0,0,1.937,2h.062a2,2,0,0,0,2-2V171.6A.588.588,0,0,0,203.476,171.017Z" transform="translate(-195.25 -171.017)"/>
          </g>
        </g>
        <g id="Grupo_1143229" data-name="Grupo 1143229" transform="translate(5.464 38.786)">
          <g id="Grupo_1143228" data-name="Grupo 1143228">
            <path id="Trazado_904871" data-name="Trazado 904871" d="M31.476,171.017a.587.587,0,0,0-.588.588v15.981a.823.823,0,1,1-1.645,0V175.659a1.586,1.586,0,1,0-3.173,0v11.927a.823.823,0,1,1-1.645,0V171.6a.588.588,0,0,0-1.175,0v15.981a2,2,0,1,0,4,0V175.659a.411.411,0,0,1,.823,0v11.927a2,2,0,0,0,2,2h.062a1.988,1.988,0,0,0,1.937-2V171.6A.587.587,0,0,0,31.476,171.017Z" transform="translate(-23.25 -171.017)"/>
          </g>
        </g>
        <g id="Grupo_1143231" data-name="Grupo 1143231" transform="translate(25.901 53.122)">
          <g id="Grupo_1143230" data-name="Grupo 1143230">
            <path id="Trazado_904872" data-name="Trazado 904872" d="M113.175,232.017H110.8a.588.588,0,1,0,0,1.175h2.38a.588.588,0,1,0,0-1.175Z" transform="translate(-110.208 -232.017)"/>
          </g>
        </g>
        <g id="Grupo_1143233" data-name="Grupo 1143233" transform="translate(30.728 53.122)">
          <g id="Grupo_1143232" data-name="Grupo 1143232">
            <path id="Trazado_904873" data-name="Trazado 904873" d="M133.717,232.017h-2.38a.588.588,0,1,0,0,1.175h2.38a.588.588,0,1,0,0-1.175Z" transform="translate(-130.75 -232.017)"/>
          </g>
        </g>
        <g id="Grupo_1143235" data-name="Grupo 1143235" transform="translate(46.063 53.122)">
          <g id="Grupo_1143234" data-name="Grupo 1143234">
            <path id="Trazado_904874" data-name="Trazado 904874" d="M198.982,232.017h-2.394a.588.588,0,1,0,0,1.175h2.394a.588.588,0,1,0,0-1.175Z" transform="translate(-196 -232.017)"/>
          </g>
        </g>
        <g id="Grupo_1143237" data-name="Grupo 1143237" transform="translate(50.95 53.122)">
          <g id="Grupo_1143236" data-name="Grupo 1143236">
            <path id="Trazado_904875" data-name="Trazado 904875" d="M219.774,232.017h-2.394a.588.588,0,1,0,0,1.175h2.394a.588.588,0,1,0,0-1.175Z" transform="translate(-216.793 -232.017)"/>
          </g>
        </g>
        <g id="Grupo_1143239" data-name="Grupo 1143239" transform="translate(10.422 53.122)">
          <g id="Grupo_1143238" data-name="Grupo 1143238">
            <path id="Trazado_904876" data-name="Trazado 904876" d="M47.443,232.017H44.932a.588.588,0,1,0,0,1.175h2.512a.588.588,0,1,0,0-1.175Z" transform="translate(-44.344 -232.017)"/>
          </g>
        </g>
        <g id="Grupo_1143241" data-name="Grupo 1143241" transform="translate(5.618 53.122)">
          <g id="Grupo_1143240" data-name="Grupo 1143240">
            <path id="Trazado_904877" data-name="Trazado 904877" d="M26.991,232.017h-2.5a.588.588,0,1,0,0,1.175h2.5a.588.588,0,1,0,0-1.175Z" transform="translate(-23.906 -232.017)"/>
          </g>
        </g>
      </g>
    </g>
  </g>
</svg>
