<svg xmlns="http://www.w3.org/2000/svg" width="90" height="90" viewBox="0 0 90 90">
  <g id="Grupo_1143129" data-name="Grupo 1143129" transform="translate(-598.051 -1921)">
    <g id="Grupo_1107988" data-name="Grupo 1107988" transform="translate(263.27 -1912)">
      <g id="Grupo_1098742" data-name="Grupo 1098742" transform="translate(-868.539 3444.258)">
        <g id="Rect치ngulo_400898" data-name="Rect치ngulo 400898" transform="translate(1203.32 388.742)" fill="#fdbabb" stroke="#fff" stroke-width="3" opacity="0.859">
          <rect width="90" height="90" rx="45" stroke="none"/>
          <rect x="1.5" y="1.5" width="87" height="87" rx="43.5" fill="none"/>
        </g>
        <g id="Rect치ngulo_400907" data-name="Rect치ngulo 400907" transform="translate(1203.32 388.742)" fill="none" stroke="#fff" stroke-width="3">
          <rect width="90" height="90" rx="45" stroke="none"/>
          <rect x="1.5" y="1.5" width="87" height="87" rx="43.5" fill="none"/>
        </g>
      </g>
    </g>
    <g id="_04-Smiling" data-name="04-Smiling" transform="translate(611.051 1934)">
      <path id="Trazado_904807" data-name="Trazado 904807" d="M51,57.71V61a18.874,18.874,0,0,1-8.47,2H21.47A18.874,18.874,0,0,1,13,61V57.71a4.005,4.005,0,0,1,1.03-2.69,4.289,4.289,0,0,1,1.48-1.03L26.74,49.5a2.013,2.013,0,0,0,1.23-1.51L28,48c0,1.66,1.6,3,4,3s4-1.34,4-3l.03-.01a2.013,2.013,0,0,0,1.23,1.51l11.23,4.49a4.289,4.289,0,0,1,1.48,1.03A4,4,0,0,1,51,57.71Z" fill="#fdadc8"/>
      <path id="Trazado_904808" data-name="Trazado 904808" d="M50,28v1c0,2.76-2.24,6-5,6H44l-.03-.02a22.28,22.28,0,0,0,2.93-8.99L47,26h1a2.006,2.006,0,0,1,2,2Z" fill="#faa68e"/>
      <path id="Trazado_904809" data-name="Trazado 904809" d="M50,29V55l-.03.02a4.289,4.289,0,0,0-1.48-1.03L37.26,49.5a2.013,2.013,0,0,1-1.23-1.51,1.87,1.87,0,0,1-.03-.34V42.23a16.493,16.493,0,0,0,7.97-7.25L44,35h1C47.76,35,50,31.76,50,29Z" fill="#a65d4e"/>
      <path id="Trazado_904810" data-name="Trazado 904810" d="M50,18V28a2.006,2.006,0,0,0-2-2H47l-.1-.01A18.941,18.941,0,0,0,47,24c0-6.63-6-6-8-12,0,5.53-11.5,9-22,9v3a18.942,18.942,0,0,0,.1,1.99L17,26H16a2.006,2.006,0,0,0-2,2V18C14,8.61,22.06,1,32,1A18.483,18.483,0,0,1,44.73,5.98,16.509,16.509,0,0,1,50,18Z" fill="#a65d4e"/>
      <path id="Trazado_904811" data-name="Trazado 904811" d="M36.03,47.99,36,48c0,1.66-1.6,3-4,3s-4-1.34-4-3l-.03-.01a1.87,1.87,0,0,0,.03-.34V42.23a10.775,10.775,0,0,0,8,0v5.42A1.87,1.87,0,0,0,36.03,47.99Z" fill="#ffcdbe"/>
      <path id="Trazado_904812" data-name="Trazado 904812" d="M28,42.23v5.42a1.87,1.87,0,0,1-.03.34,2.013,2.013,0,0,1-1.23,1.51L15.51,53.99a4.289,4.289,0,0,0-1.48,1.03L14,55V29c0,2.76,2.24,6,5,6h1l.03-.02A16.493,16.493,0,0,0,28,42.23Z" fill="#a65d4e"/>
      <path id="Trazado_904813" data-name="Trazado 904813" d="M39,12c0,5.53-11.5,9-22,9v3a18.942,18.942,0,0,0,.1,1.99,22.28,22.28,0,0,0,2.93,8.99A16.493,16.493,0,0,0,28,42.23a10.775,10.775,0,0,0,8,0,16.493,16.493,0,0,0,7.97-7.25,22.28,22.28,0,0,0,2.93-8.99A18.942,18.942,0,0,0,47,24C47,17.37,41,18,39,12Z" fill="#ffcebf"/>
      <path id="Trazado_904814" data-name="Trazado 904814" d="M20.03,34.98,20,35H19c-2.76,0-5-3.24-5-6V28a2.006,2.006,0,0,1,2-2h1l.1-.01a22.28,22.28,0,0,0,2.93,8.99Z" fill="#faa68e"/>
      <path id="Trazado_904815" data-name="Trazado 904815" d="M39,12c0,5.53-11.5,9-22,9v3c10.5,0,22-3.47,22-9,1.866,5.6,7.207,5.43,7.917,10.762C46.971,25.176,47,24.584,47,24,47,17.37,41,18,39,12Z" fill="#faa68e"/>
      <path id="Trazado_904816" data-name="Trazado 904816" d="M31,49V47a2,2,0,0,1,2-2h3V42.23a10.775,10.775,0,0,1-8,0v5.42a1.87,1.87,0,0,1-.03.34L28,48c0,1.66,1.6,3,4,3a5.932,5.932,0,0,0,.593-.042A2,2,0,0,1,31,49Z" fill="#faa68e"/>
      <path id="Trazado_904817" data-name="Trazado 904817" d="M20.03,34.98,20,35H19a3.883,3.883,0,0,1-2-.585V53.394L26.74,49.5a2.013,2.013,0,0,0,1.23-1.51,1.87,1.87,0,0,0,.03-.34V42.23a16.493,16.493,0,0,1-7.97-7.25Z" fill="#784132"/>
      <path id="Trazado_904818" data-name="Trazado 904818" d="M43.97,34.98,44,35h1a3.883,3.883,0,0,0,2-.585V53.394L37.26,49.5a2.013,2.013,0,0,1-1.23-1.51,1.87,1.87,0,0,1-.03-.34V42.23a16.493,16.493,0,0,0,7.97-7.25Z" fill="#784132"/>
      <path id="Trazado_904819" data-name="Trazado 904819" d="M48.545,59.864A4.59,4.59,0,0,1,47.438,60H24.3A4.3,4.3,0,0,1,20,55.7V52.2L15.51,54A4.015,4.015,0,0,0,13,57.71V61a18.874,18.874,0,0,0,8.47,2H42.53A18.874,18.874,0,0,0,51,61V58.282a4.551,4.551,0,0,1-2.455,1.582Z" fill="#d88caa"/>
      <path id="Trazado_904820" data-name="Trazado 904820" d="M28.407,8.805A21.423,21.423,0,0,0,31.8,11H32c7,0,11.679-1.256,14.322-3.265A17.5,17.5,0,0,0,44.73,5.98c-.115-.109-.244-.2-.363-.311C41.6,7.7,37.819,9,32,9a32.387,32.387,0,0,1-3.593-.2Z" fill="#c38778"/>
      <path id="Trazado_904821" data-name="Trazado 904821" d="M28.407,8.805A32.387,32.387,0,0,0,32,9c5.819,0,9.6-1.3,12.367-3.331A18.485,18.485,0,0,0,32,1a18.769,18.769,0,0,0-7.8,1.7,11.191,11.191,0,0,0,4.207,6.105Z" fill="#b46e5a"/>
      <path id="Trazado_904822" data-name="Trazado 904822" d="M28.407,8.805a17.641,17.641,0,0,1-8.774-3.136,17.337,17.337,0,0,0-1.956,2.065C20.293,9.724,24.912,10.972,31.8,11a21.423,21.423,0,0,1-3.393-2.195Z" fill="#b46e5a"/>
      <path id="Trazado_904823" data-name="Trazado 904823" d="M49.7,15c-.06-.316-.131-.629-.209-.938-.02-.08-.043-.159-.064-.238A16.3,16.3,0,0,0,48.9,12.2c-.028-.073-.056-.147-.085-.219a16.5,16.5,0,0,0-1.325-2.6l-.007-.011a17.2,17.2,0,0,0-1.16-1.63h0C43.679,9.744,39,11,32,11h-.2a32.274,32.274,0,0,0,6.871,2.589A4.038,4.038,0,0,0,39,12a9.193,9.193,0,0,0,.881,1.9A45.761,45.761,0,0,0,49.7,15Z" fill="#b46e5a"/>
      <path id="Trazado_904824" data-name="Trazado 904824" d="M27,34H37s-1,4-5,4S27,34,27,34Z" fill="#ff808c"/>
      <ellipse id="Elipse_14947" data-name="Elipse 14947" cx="3.57" cy="1.5" rx="3.57" ry="1.5" transform="translate(28.43 35)" fill="#f25a6b"/>
      <path id="Trazado_904825" data-name="Trazado 904825" d="M51,54.719V18C51,8.075,42.477,0,32,0S13,8.075,13,18V54.719a4.977,4.977,0,0,0-1,2.989V61a1,1,0,0,0,.553.9A20.051,20.051,0,0,0,21.472,64H42.528a20.051,20.051,0,0,0,8.919-2.1A1,1,0,0,0,52,61V57.708a4.977,4.977,0,0,0-1-2.989Zm-2-1.583c-.049-.022-.093-.05-.144-.071l-11.227-4.49A1,1,0,0,1,37,47.646V42.9A17.592,17.592,0,0,0,44.483,36H45a5.435,5.435,0,0,0,4-1.98ZM35.026,48H35c0,1.159-1.262,2-3,2s-3-.841-3-2h-.026A3.188,3.188,0,0,0,29,47.646V43.608a11.676,11.676,0,0,0,6,0v4.038a3.188,3.188,0,0,0,.026.354ZM15,28a1,1,0,0,1,1-1h.226a23.723,23.723,0,0,0,2.143,6.915C16.5,33.451,15,31.027,15,29Zm3-4V21.99c9.237-.179,18.5-2.826,21.209-7.276a14.675,14.675,0,0,0,3.378,3.4C44.494,19.629,46,20.828,46,24c0,10.3-7.392,18-14,18S18,34.3,18,24Zm29.774,3H48a1,1,0,0,1,1,1v1c0,2.027-1.5,4.451-3.369,4.915A23.723,23.723,0,0,0,47.774,27ZM32,2c9.374,0,17,7.178,17,16v7.184A2.966,2.966,0,0,0,48,25h-.027c.016-.334.027-.668.027-1,0-4.136-2.119-5.822-4.168-7.453-1.583-1.26-3.079-2.45-3.884-4.863A1,1,0,0,0,38,12c0,4.262-9.813,8-21,8a1,1,0,0,0-1,1v3c0,.332.011.666.027,1H16a2.966,2.966,0,0,0-1,.184V18C15,9.178,22.626,2,32,2ZM19,36h.517A17.592,17.592,0,0,0,27,42.9v4.741a1,1,0,0,1-.628.928L15.144,53.065c-.051.021-.1.049-.144.071V34.02A5.435,5.435,0,0,0,19,36ZM50,60.37A18.043,18.043,0,0,1,42.528,62H21.472A18.043,18.043,0,0,1,14,60.37V57.708a2.984,2.984,0,0,1,1.886-2.785l11.229-4.492a3.019,3.019,0,0,0,.6-.334A5.242,5.242,0,0,0,32,52a5.242,5.242,0,0,0,4.282-1.9,3.053,3.053,0,0,0,.6.335L48.11,54.926A2.984,2.984,0,0,1,50,57.708Z"/>
      <path id="Trazado_904826" data-name="Trazado 904826" d="M37,33H27a1,1,0,0,0-.97,1.243,6.125,6.125,0,0,0,11.94,0A1,1,0,0,0,37,33Zm-5,4a3.941,3.941,0,0,1-3.476-2h6.952A3.941,3.941,0,0,1,32,37Z"/>
      <path id="Trazado_904827" data-name="Trazado 904827" d="M39,26c1.383,0,2,.617,2,2h2a3.675,3.675,0,0,0-4-4,4,4,0,0,0-4,4h2A2,2,0,0,1,39,26Z"/>
      <path id="Trazado_904828" data-name="Trazado 904828" d="M27,28h2a4,4,0,0,0-4-4,3.675,3.675,0,0,0-4,4h2c0-1.383.617-2,2-2A2,2,0,0,1,27,28Z"/>
    </g>
  </g>
</svg>
