<svg xmlns="http://www.w3.org/2000/svg" xmlns:xlink="http://www.w3.org/1999/xlink" width="90" height="90" viewBox="0 0 90 90">
  <defs>
    <clipPath id="clip-path">
      <path id="path9426" d="M0-682.665H58.3v58.3H0Z" transform="translate(0 682.665)"/>
    </clipPath>
  </defs>
  <g id="Grupo_1143128" data-name="Grupo 1143128" transform="translate(-913.051 -1921)">
    <g id="Grupo_1107989" data-name="Grupo 1107989" transform="translate(578.27 -1912)">
      <g id="Grupo_1098742" data-name="Grupo 1098742" transform="translate(-868.539 3444.258)">
        <g id="Rect치ngulo_400898" data-name="Rect치ngulo 400898" transform="translate(1203.32 388.742)" fill="#fdbabb" stroke="#fff" stroke-width="3" opacity="0.859">
          <rect width="90" height="90" rx="45" stroke="none"/>
          <rect x="1.5" y="1.5" width="87" height="87" rx="43.5" fill="none"/>
        </g>
        <g id="Rect치ngulo_400907" data-name="Rect치ngulo 400907" transform="translate(1203.32 388.742)" fill="none" stroke="#fff" stroke-width="3">
          <rect width="90" height="90" rx="45" stroke="none"/>
          <rect x="1.5" y="1.5" width="87" height="87" rx="43.5" fill="none"/>
        </g>
      </g>
    </g>
    <g id="g9420" transform="translate(929.051 2619.665)">
      <g id="g9422" transform="translate(0 -682.665)">
        <g id="g9424" clip-path="url(#clip-path)">
          <g id="g9430" transform="translate(37.66 5.592)">
            <path id="path9432" d="M0-60.216l8.973-5.623h8.06c.5,0,.681.358.42.768l-2.615,4.086a1.2,1.2,0,0,0,0,1.54l2.615,4.083c.261.41.065.771-.42.771H.913C.258-54.59,0-54.9,0-55.5Z" transform="translate(0 65.839)" fill="#ef4151" fill-rule="evenodd"/>
          </g>
          <g id="g9434" transform="translate(28.687 0.854)">
            <path id="path9436" d="M-183.692-120.434h-17.152V-131.68h17.152a.814.814,0,0,1,.794.83v9.587a.814.814,0,0,1-.794.83" transform="translate(200.845 131.68)" fill="#ff6979" fill-rule="evenodd"/>
          </g>
          <g id="g9438" transform="translate(0.854 42.157)">
            <path id="path9440" d="M-11.684,0H3.571A1.1,1.1,0,0,1,4.662,1.094L5.1,4.345,4.662,8.518A1.094,1.094,0,0,1,3.571,9.609H-11.684a1.094,1.094,0,0,1-1.091-1.091V1.094A1.1,1.1,0,0,1-11.684,0" transform="translate(12.775 0)" fill="#bcf59d" fill-rule="evenodd"/>
          </g>
          <g id="g9442" transform="translate(18.29 41.55)">
            <path id="path9444" d="M-88.183-4.735l3.157-.442,2.7.442A1.539,1.539,0,0,1-80.779-3.3V3.767A1.44,1.44,0,0,1-82.215,5.2h-6.407a7.946,7.946,0,0,1-3.815-.936c-.72-.394-.549-.32-1.4-.32h-2.582V-3.476H-92.5c1.136,0,.826-.074,1.795-.526a4.532,4.532,0,0,1,2.521-.733" transform="translate(96.417 5.177)" fill="#ffccbf" fill-rule="evenodd"/>
          </g>
          <g id="g9446" transform="translate(24.368 31.615)">
            <path id="path9448" d="M-79.3-4.735l-3.415-.442-2.553.442A1.44,1.44,0,0,0-86.7-3.3V3.764A1.439,1.439,0,0,0-85.265,5.2h6.41a7.954,7.954,0,0,0,3.893-.978,1.285,1.285,0,0,1,1.075-.277h2.824l1.327-4.093L-71.063-3.48h-3.828c-1.168,0-.826-.019-1.817-.494A4.591,4.591,0,0,0-79.3-4.735" transform="translate(86.701 5.177)" fill="#ffccbf" fill-rule="evenodd"/>
          </g>
          <g id="g9450" transform="translate(0.854 22.283)">
            <path id="path9452" d="M-11.684,0H3.571A1.094,1.094,0,0,1,4.662,1.091L5.1,4.554l-.442,3.96A1.1,1.1,0,0,1,3.571,9.609H-11.684a1.1,1.1,0,0,1-1.091-1.094V1.091A1.094,1.094,0,0,1-11.684,0" transform="translate(12.775 0)" fill="#93ceff" fill-rule="evenodd"/>
          </g>
          <g id="g9454" transform="translate(18.29 19.317)">
            <path id="path9456" d="M-152.1-30a1.439,1.439,0,0,1,1.436,1.436V-21.5a1.442,1.442,0,0,1-1.436,1.436H-158.5a8.174,8.174,0,0,1-3.16-.62,4.623,4.623,0,0,0-3.112-.639H-166.3v-7.424h4.709c.578-1.988,3.1-3.783,6.239-4.041a1.42,1.42,0,0,1,.2-.016,1.4,1.4,0,0,1,1.4,1.4,1.4,1.4,0,0,1-1.4,1.4Z" transform="translate(166.3 32.807)" fill="#ffccbf" fill-rule="evenodd"/>
          </g>
          <g id="g9458" transform="translate(40.007 32.221)">
            <path id="path9460" d="M-175.084,0h-15.258a1.094,1.094,0,0,0-1.091,1.091V8.515a1.094,1.094,0,0,0,1.091,1.091h15.258a1.094,1.094,0,0,0,1.091-1.091V1.091A1.094,1.094,0,0,0-175.084,0" transform="translate(191.433)" fill="#f4d3ff" fill-rule="evenodd"/>
          </g>
          <g id="g9462" transform="translate(49.456 5.592)">
            <path id="path9464" d="M-2.995-51.989a1.2,1.2,0,0,0,0,1.54L-.38-46.367c.261.41.065.771-.42.771H1.963c.484,0,.681-.361.42-.771L-.232-50.45a1.2,1.2,0,0,1,0-1.54l2.615-4.086c.261-.41.084-.768-.42-.768H-.8c.5,0,.681.358.42.768Z" transform="translate(3.275 56.844)" fill="#dc303f" fill-rule="evenodd"/>
          </g>
          <g id="g9466" transform="translate(40.007 32.221)">
            <path id="path9468" d="M-157.179-61.6a1.1,1.1,0,0,1-1.094,1.091h-13.583v1.672a1.094,1.094,0,0,0,1.091,1.091h15.258a1.094,1.094,0,0,0,1.091-1.091v-7.424a1.094,1.094,0,0,0-1.091-1.091h-1.672Z" transform="translate(171.856 67.352)" fill="#e1bff2" fill-rule="evenodd"/>
          </g>
          <g id="g9470" transform="translate(0.854 22.283)">
            <path id="path9472" d="M-157.144-61.6a1.1,1.1,0,0,1-1.091,1.094h-13.582v1.669a1.1,1.1,0,0,0,1.091,1.094h15.254a1.1,1.1,0,0,0,1.091-1.094v-7.424a1.094,1.094,0,0,0-1.091-1.091h-1.672Z" transform="translate(171.817 67.352)" fill="#6cc0ff" fill-rule="evenodd"/>
          </g>
          <g id="g9474" transform="translate(0.854 42.157)">
            <path id="path9476" d="M-157.144-61.633a1.094,1.094,0,0,1-1.091,1.091h-13.582v1.672a1.094,1.094,0,0,0,1.091,1.091h15.254a1.094,1.094,0,0,0,1.091-1.091V-66.3a1.1,1.1,0,0,0-1.091-1.091h-1.672Z" transform="translate(171.817 67.388)" fill="#9ce79e" fill-rule="evenodd"/>
          </g>
          <g id="g9478" transform="translate(24.368 37.973)">
            <path id="path9480" d="M-137.233,0a3.779,3.779,0,0,0-2.437.636,5.2,5.2,0,0,1-2.53.62h-7.847V2.582a1.439,1.439,0,0,0,1.436,1.436h.72c1.946,0,3.909.036,5.852,0a7.931,7.931,0,0,0,3.731-.978,1.285,1.285,0,0,1,1.075-.277h2.824V0Z" transform="translate(150.048)" fill="#ffbfb0" fill-rule="evenodd"/>
          </g>
          <g id="g9482" transform="translate(18.29 41.98)">
            <path id="path9484" d="M-120.538-76.97H-124a5.228,5.228,0,0,1-2.485-.594,4.058,4.058,0,0,0-2.547-.662h-2.763v2.763h2.582c.849,0,.678-.074,1.4.32a7.946,7.946,0,0,0,3.815.936h6.407a1.44,1.44,0,0,0,1.436-1.436v-7.066a1.539,1.539,0,0,0-1.543-1.437c-.213-.032-.949.013-1.22.013v5.758a1.456,1.456,0,0,1-1.62,1.4" transform="translate(131.793 84.157)" fill="#ffbfb0" fill-rule="evenodd"/>
          </g>
          <g id="g9486" transform="translate(18.29 22.119)">
            <path id="path9488" d="M-137.889-61.426c0,1.169-.562,1.436-1.649,1.436h-3.431a5.426,5.426,0,0,1-2.085-.4A7.013,7.013,0,0,0-148-61.229h-2.763v2.747h1.523a4.623,4.623,0,0,1,3.112.639,8.15,8.15,0,0,0,3.16.62h6.407a1.442,1.442,0,0,0,1.436-1.436v-7.066a1.439,1.439,0,0,0-1.436-1.436h-1.327Z" transform="translate(150.765 67.161)" fill="#ffbfb0" fill-rule="evenodd"/>
          </g>
          <g id="g9490" transform="translate(0 41.303)">
            <path id="path9492" d="M-72.243-111.2h-5.694a.854.854,0,0,1-.854-.854.854.854,0,0,1,.854-.854h5.694a.24.24,0,0,0,.237-.237v-7.424a.242.242,0,0,0-.237-.241H-87.5a.242.242,0,0,0-.237.241v7.424a.24.24,0,0,0,.237.237H-81.8a.854.854,0,0,1,.854.854.854.854,0,0,1-.854.854H-87.5a1.947,1.947,0,0,1-1.945-1.945v-7.424a1.949,1.949,0,0,1,1.945-1.948h15.254a1.949,1.949,0,0,1,1.945,1.948v7.424A1.947,1.947,0,0,1-72.243-111.2Z" transform="translate(89.442 122.512)"/>
          </g>
          <g id="g9494" transform="translate(0 21.429)">
            <path id="path9496" d="M-72.243-111.2h-5.694a.854.854,0,0,1-.854-.854.854.854,0,0,1,.854-.854h5.694a.242.242,0,0,0,.237-.24v-7.424a.24.24,0,0,0-.237-.237H-87.5a.24.24,0,0,0-.237.237v7.424a.242.242,0,0,0,.237.24H-81.8a.854.854,0,0,1,.854.854.854.854,0,0,1-.854.854H-87.5a1.948,1.948,0,0,1-1.945-1.948v-7.424a1.947,1.947,0,0,1,1.945-1.945h15.254a1.947,1.947,0,0,1,1.945,1.945v7.424A1.949,1.949,0,0,1-72.243-111.2Z" transform="translate(89.442 122.512)"/>
          </g>
          <g id="g9498" transform="translate(39.153 31.368)">
            <path id="path9500" d="M-117.557-111.162h-5.694a.854.854,0,0,1-.854-.854.854.854,0,0,1,.854-.854h5.694a.24.24,0,0,0,.237-.237v-7.424a.24.24,0,0,0-.237-.237h-15.258a.24.24,0,0,0-.237.237v7.424a.24.24,0,0,0,.237.237h5.694a.854.854,0,0,1,.854.854.854.854,0,0,1-.854.854h-5.694a1.947,1.947,0,0,1-1.945-1.945v-7.424a1.947,1.947,0,0,1,1.945-1.945h15.258a1.947,1.947,0,0,1,1.945,1.945v7.424A1.947,1.947,0,0,1-117.557-111.162Z" transform="translate(134.759 122.475)"/>
          </g>
          <g id="g9502" transform="translate(27.833 0)">
            <path id="path9504" d="M-9.143-587.953a.854.854,0,0,1-.854-.854v-18.408a.854.854,0,0,1,.854-.854.854.854,0,0,1,.854.854v18.408A.854.854,0,0,1-9.143-587.953Z" transform="translate(9.997 608.069)"/>
          </g>
          <g id="g9506" transform="translate(27.878 0)">
            <path id="path9508" d="M8.758,2.956h-17.9A.854.854,0,0,1-10,2.1a.854.854,0,0,1,.854-.854H7.9V-8.289H1.719a.854.854,0,0,1-.854-.854A.854.854,0,0,1,1.719-10h7.04a.854.854,0,0,1,.854.854V2.1A.854.854,0,0,1,8.758,2.956Z" transform="translate(9.997 9.997)"/>
          </g>
          <g id="g9510" transform="translate(36.806 4.739)">
            <path id="path9512" d="M-96.835,2.959h-17.946a.854.854,0,0,1-.854-.854V-2.578a.854.854,0,0,1,.854-.854.854.854,0,0,1,.854.854v3.83H-98.4l-2.761-4.312a.854.854,0,0,1,0-.921l2.76-4.308h-7.364a.854.854,0,0,1-.854-.854A.854.854,0,0,1-105.76-10h8.925a.854.854,0,0,1,.749.444.854.854,0,0,1-.03.87L-99.423-3.52l3.307,5.166a.854.854,0,0,1,.03.87A.854.854,0,0,1-96.835,2.959Z" transform="translate(115.635 9.997)"/>
          </g>
          <g id="g9514" transform="translate(17.437 41.138)">
            <path id="path9516" d="M-97.326-10h5.862a2.377,2.377,0,0,1,2.4,2.29V-.641a2.293,2.293,0,0,1-2.29,2.29h-6.407A8.789,8.789,0,0,1-101.991.608l-.083-.045a2.856,2.856,0,0,0-.339-.177l-.565.008h-2.582a.854.854,0,0,1-.854-.854V-7.884a.854.854,0,0,1,.854-.854h3.919c.593,0,.593,0,.8-.118.144-.082.333-.188.632-.328.162-.076.3-.147.436-.212A4.562,4.562,0,0,1-97.326-10Zm5.968,9.938a.583.583,0,0,0,.583-.582V-7.706a.7.7,0,0,0-.689-.583h-5.862a2.937,2.937,0,0,0-1.687.423c-.141.07-.3.146-.471.229-.244.114-.4.2-.514.267a2.6,2.6,0,0,1-1.643.34h-3.065v5.716l2.235-.006a2.122,2.122,0,0,1,1.218.384l.083.045a7.08,7.08,0,0,0,3.406.831Z" transform="translate(106.414 9.997)"/>
          </g>
          <g id="g9518" transform="translate(23.515 31.203)">
            <path id="path9520" d="M-94.408-10h5.968a4.672,4.672,0,0,1,2.535.636c.128.065.267.135.424.21.259.124.434.22.568.293.214.117.214.117.879.117h3.828a.854.854,0,0,1,.854.854V-.463a.854.854,0,0,1-.854.854l-3.15,0c-.02,0-.028,0-.029,0-.033.018-.072.042-.123.071l-.177.1A8.786,8.786,0,0,1-88,1.646h-6.41A2.293,2.293,0,0,1-96.7-.644V-7.707A2.293,2.293,0,0,1-94.408-10Zm13.348,2.963h-2.975a2.664,2.664,0,0,1-1.7-.326c-.115-.063-.265-.145-.488-.252-.168-.081-.317-.156-.454-.225a3.039,3.039,0,0,0-1.766-.453h-5.968a.583.583,0,0,0-.583.583V-.644a.583.583,0,0,0,.583.582H-88A7.077,7.077,0,0,0-84.524-.93l.163-.093a1.648,1.648,0,0,1,1.006-.3l.326,0h1.971Z" transform="translate(96.698 9.997)"/>
          </g>
          <g id="g9522" transform="translate(17.437 18.463)">
            <path id="path9524" d="M-164.291-42.8a2.257,2.257,0,0,1,2.255,2.255A2.252,2.252,0,0,1-162.1-40h.863a2.293,2.293,0,0,1,2.29,2.29v7.066a2.293,2.293,0,0,1-2.29,2.29h-6.407a9.08,9.08,0,0,1-3.491-.686c-.268-.113-.479-.206-.655-.284a2.247,2.247,0,0,0-1.354-.29l-2.3,0a.854.854,0,0,1-.854-.854v-7.424a.854.854,0,0,1,.854-.854h4.12c.983-2.131,3.7-3.787,6.758-4.038A1.845,1.845,0,0,1-164.291-42.8Zm-.854,3.655a.854.854,0,0,1,.854-.854.548.548,0,0,0,.547-.547.548.548,0,0,0-.547-.547.546.546,0,0,0-.078.007c-3.045.252-5.115,1.956-5.545,3.435a.854.854,0,0,1-.82.615h-3.856v5.717l1.442,0a3.723,3.723,0,0,1,2.042.435c.169.074.373.164.63.273a7.356,7.356,0,0,0,2.827.552h6.407a.59.59,0,0,0,.583-.582v-7.066a.583.583,0,0,0-.583-.582h-3.05A.854.854,0,0,1-165.144-39.148Z" transform="translate(176.296 42.803)"/>
          </g>
        </g>
      </g>
    </g>
  </g>
</svg>
